<?xml version="1.0" encoding="utf-8"?>
<!-- Generator: Adobe Illustrator 16.0.0, SVG Export Plug-In . SVG Version: 6.00 Build 0)  -->
<!DOCTYPE svg PUBLIC "-//W3C//DTD SVG 1.1//EN" "http://www.w3.org/Graphics/SVG/1.1/DTD/svg11.dtd">
<svg version="1.1" id="Layer_1" xmlns="http://www.w3.org/2000/svg" xmlns:xlink="http://www.w3.org/1999/xlink" x="0px" y="0px"
	 width="400px" height="400px" viewBox="0 0 400 400" enable-background="new 0 0 400 400" xml:space="preserve">
<g>
	<path fill="#7A6EA6" d="M328.705,341.45L205.602,27.496c-0.044-0.107-0.1-0.203-0.148-0.306c-0.052-0.115-0.104-0.228-0.163-0.338
		c-0.021-0.04-0.038-0.084-0.06-0.124c-0.019-0.031-0.033-0.062-0.052-0.092c-0.106-0.179-0.229-0.346-0.352-0.513
		c-0.034-0.047-0.063-0.1-0.101-0.146c-0.041-0.054-0.09-0.104-0.133-0.156c-0.069-0.083-0.146-0.158-0.219-0.237
		c-0.125-0.131-0.248-0.264-0.383-0.383c-0.05-0.044-0.103-0.081-0.154-0.123l0,0c-0.092-0.077-0.182-0.151-0.277-0.222
		c-0.14-0.102-0.283-0.195-0.43-0.285c-0.079-0.049-0.159-0.095-0.242-0.141c-0.003-0.001-0.003-0.001-0.007-0.002
		c-0.073-0.042-0.143-0.091-0.22-0.128c-0.179-0.088-0.365-0.156-0.552-0.226c-0.071-0.027-0.138-0.059-0.209-0.083
		c-0.069-0.023-0.14-0.046-0.213-0.066c-0.093-0.028-0.189-0.043-0.285-0.067c-0.184-0.044-0.366-0.091-0.556-0.118
		c-0.059-0.008-0.12-0.007-0.18-0.013c-0.026-0.003-0.054-0.004-0.081-0.007c-0.062-0.006-0.12-0.027-0.182-0.031
		c-0.054-0.004-0.104,0.007-0.159,0.005c-0.083-0.003-0.163-0.019-0.247-0.019c-0.085,0-0.167,0.016-0.252,0.019
		c-0.052,0.002-0.102-0.008-0.154-0.005c-0.062,0.004-0.119,0.024-0.18,0.031c-0.096,0.009-0.194,0.008-0.288,0.021
		c-0.181,0.027-0.354,0.074-0.53,0.116c-0.095,0.023-0.192,0.039-0.285,0.067c-0.059,0.017-0.117,0.033-0.174,0.051
		c-0.117,0.038-0.227,0.09-0.342,0.136c-0.154,0.061-0.309,0.115-0.457,0.188c-0.065,0.032-0.125,0.073-0.189,0.108
		c-0.109,0.059-0.215,0.122-0.322,0.188c-0.132,0.082-0.261,0.168-0.386,0.26c-0.088,0.064-0.172,0.132-0.256,0.201
		c-0.065,0.053-0.132,0.102-0.194,0.157c-0.129,0.116-0.246,0.244-0.365,0.371c-0.074,0.079-0.15,0.153-0.22,0.235
		c-0.041,0.049-0.085,0.095-0.125,0.146c-0.048,0.061-0.085,0.129-0.131,0.192c-0.113,0.155-0.228,0.309-0.327,0.476
		c-0.019,0.033-0.037,0.066-0.055,0.098c-0.021,0.037-0.035,0.077-0.055,0.113c-0.061,0.114-0.114,0.231-0.168,0.349
		c-0.047,0.103-0.105,0.197-0.146,0.303L71.294,341.45c-0.727,1.852-0.49,3.942,0.631,5.588c1.12,1.643,2.982,2.626,4.971,2.626
		h98.609l12.815,20.233c2.549,4.025,6.914,6.428,11.68,6.428s9.132-2.402,11.678-6.428l12.816-20.233h98.609
		c1.989,0,3.852-0.983,4.974-2.626C329.197,345.393,329.433,343.302,328.705,341.45z M191.373,68.177l-18.181,269.454H85.718
		L191.373,68.177z M201.512,363.46c-0.459,0.725-1.143,0.833-1.512,0.833c-0.369,0-1.053-0.108-1.513-0.833l-13.536-21.368
		L200,119.073l15.049,223.019L201.512,363.46z M226.809,337.631L208.628,68.177l105.653,269.454H226.809z"/>
	<path fill="#7A6EA6" d="M158.113,190.539c-2.332-0.887-4.935,0.288-5.819,2.616l-11.411,30.055c-0.884,2.33,0.287,4.935,2.618,5.82
		c0.528,0.2,1.068,0.296,1.6,0.296c1.822,0,3.536-1.11,4.22-2.913l11.411-30.054C161.615,194.029,160.445,191.423,158.113,190.539z"
		/>
	<path fill="#7A6EA6" d="M127.978,319.363H112.5l8.392-21.399c0.909-2.32-0.233-4.938-2.555-5.849
		c-2.321-0.911-4.939,0.232-5.848,2.553l-10.806,27.562c-0.545,1.39-0.367,2.958,0.473,4.19c0.84,1.231,2.236,1.969,3.729,1.969
		h22.094c2.493,0,4.513-2.021,4.513-4.513C132.49,321.385,130.471,319.363,127.978,319.363z"/>
	<path fill="#7A6EA6" d="M148.572,319.363h-6.944c-2.492,0-4.513,2.021-4.513,4.513c0,2.492,2.021,4.513,4.513,4.513h6.944
		c2.493,0,4.512-2.021,4.512-4.513C153.084,321.385,151.065,319.363,148.572,319.363z"/>
	<path fill="#7A6EA6" d="M263.379,257.847l21.134,53.899c0.698,1.78,2.399,2.867,4.201,2.867c0.549,0,1.105-0.102,1.646-0.312
		c2.322-0.911,3.464-3.53,2.557-5.851l-21.136-53.899c-0.911-2.32-3.53-3.467-5.847-2.553
		C263.613,252.908,262.469,255.526,263.379,257.847z"/>
	<path fill="#7A6EA6" d="M249.401,222.197l6.03,15.383c0.698,1.78,2.4,2.867,4.202,2.867c0.549,0,1.105-0.101,1.646-0.312
		c2.32-0.909,3.464-3.528,2.555-5.849l-6.032-15.385c-0.91-2.32-3.53-3.466-5.847-2.553
		C249.635,217.258,248.491,219.876,249.401,222.197z"/>
</g>
</svg>
