<svg xmlns="http://www.w3.org/2000/svg" width="734.403" height="980"><path fill="#89BCCC" d="M566.782 907.395s-89.134 22.259-199.086 22.259-199.086-22.259-199.086-22.259 89.134-22.26 199.086-22.26 199.086 22.26 199.086 22.26z"/><g fill="#8ED61D"><path d="M960.169 881.214c8.071 4.026 17.744 1.812 26.357-.865 8.612-2.678 17.781-5.767 26.441-3.248-4.973-7.863-10.228-15.081-15.2-22.943-5.469-.995-11.744.024-16.983 1.883-5.238 1.858-10.335 4.222-15.784 5.317s-11.479.771-16.045-2.398l11.214 22.254zM899.34 845.495c-8.754-5.587-20.951-5.136-29.27 1.083-.266-6.26.301-12.944.035-19.204 9.953-7.763 26.165-8.667 36.737-1.772-1.942 5.977-5.559 13.916-7.502 19.893zM826.529 776.427c-.841-9.918-1.795-20.256-2.637-30.174 7.979-1.059 15.323-2.724 23.303-3.782l-.324 28.835c-6.317.98-14.024 4.14-20.342 5.121zM919.586 670.532c-.842-9.919-1.795-20.256-2.637-30.175 7.979-1.058 15.323-2.724 23.303-3.781-.108 9.611-.217 19.223-.324 28.835-6.318.981-14.025 4.141-20.342 5.121zM788.25 820.104c-8.755-5.586-20.952-5.135-29.27 1.083-.266-6.26.301-12.944.035-19.204 9.952-7.762 26.165-8.667 36.736-1.772-1.941 5.977-5.559 13.916-7.501 19.893zM671.382 838.085c6.957 2.736 14.493 4.804 21.449 7.54.418-6.845 4.865-12.933 10.398-16.981 5.534-4.05 12.105-6.385 18.572-8.665-5.825-4.156-11.437-8.613-17.262-12.77-13.613 5.848-25.843 17.99-33.157 30.876zM778.154 745.246c6.903 5.104 13.814 9.098 20.717 14.203-1.795-8.524-.52-17.663 3.543-25.369s10.88-13.923 18.927-17.259c-8.348-2.782-16.769-6.188-25.116-8.97-10.292 8.512-16.81 21.643-18.895 34.834l.824 2.561zM643.793 886.224c8.071 4.026 17.744 1.812 26.357-.865 8.612-2.677 17.781-5.767 26.441-3.248-4.973-7.863-10.228-15.081-15.2-22.943-5.469-.994-11.744.025-16.983 1.883-5.238 1.858-10.335 4.222-15.784 5.317-5.449 1.097-11.479.772-16.044-2.398l11.213 22.254zM601.357 861.783c5.393-5.596 8.587-12.885 12.594-19.543 4.007-6.659 9.413-13.136 16.897-15.23-6.076-6.24-11.229-12.398-17.307-18.64-4.536 1.733-8.596 5.068-11.782 8.733-2.77 3.184-4.824 6.913-6.857 10.611l-5.896 10.722 12.351 23.347zM626.936 782.166c3.181 6.844 6.27 14.375 9.45 21.22 15.505-3.782 32.246-2.718 47.473 2.062l-6.364-23.385c-15.873-1.892-34.719-2.034-50.559.103zM582.318 761.902c8.07 4.026 17.744 1.812 26.356-.865 8.613-2.677 17.781-5.766 26.442-3.248-4.973-7.862-10.229-15.08-15.201-22.943-5.469-.994-11.744.025-16.982 1.884-5.238 1.857-10.335 4.222-15.784 5.317s-11.479.771-16.045-2.399l11.214 22.254zM804.999 900.163c-8.754-5.587-20.952-5.136-29.27 1.083-.266-6.26.301-12.945.035-19.205 9.953-7.762 26.165-8.666 36.737-1.771-1.942 5.977-5.56 13.916-7.502 19.893zM546.949 824.262c-.842-9.919-1.795-20.256-2.637-30.174 7.979-1.059 15.322-2.725 23.302-3.783l-.324 28.836c-6.316.98-14.023 4.14-20.341 5.121zM949.78 735.081c6.903 5.104 13.813 9.098 20.717 14.202-1.796-8.524-.52-17.662 3.543-25.368 4.062-7.707 10.88-13.924 18.927-17.26-8.348-2.781-16.769-6.188-25.117-8.97-10.291 8.513-16.809 21.643-18.895 34.835l.825 2.561zM756.148 561.739c6.903 5.104 13.814 9.098 20.717 14.202-1.795-8.523-.52-17.662 3.543-25.368s10.88-13.923 18.928-17.259c-8.348-2.782-16.77-6.188-25.117-8.97-10.292 8.512-16.81 21.643-18.895 34.834l.824 2.561zM928.163 818.067c8.07 4.026 17.744 1.812 26.356-.865 8.613-2.678 17.781-5.767 26.442-3.248-4.973-7.863-10.228-15.081-15.2-22.943-5.469-.995-11.744.024-16.983 1.883-5.238 1.858-10.335 4.222-15.784 5.317s-11.479.772-16.045-2.398l11.214 22.254zM746.753 786.155c5.393-5.597 8.587-12.885 12.595-19.544 4.007-6.658 9.413-13.136 16.897-15.229-6.077-6.24-11.23-12.399-17.307-18.64-4.536 1.732-8.597 5.068-11.783 8.732-2.769 3.185-4.823 6.914-6.856 10.611l-5.896 10.723 12.35 23.347zM668.131 642.694c3.18 6.844 6.27 14.375 9.45 21.22 15.505-3.783 32.245-2.718 47.473 2.062l-6.364-23.385c-15.873-1.892-34.718-2.033-50.559.103z"/></g><path fill="#3C2415" d="M388.854 897.807c-2.931 4.379-7.979 6.869-13.028 8.377s-10.329 2.236-15.253 4.111c-1.101.419-2.205.91-3.057 1.723-2.616 2.492-1.903 6.782-.796 10.223 10.873 1.453 22.92 3.033 32.511-2.291 5.333-2.96 9.628-7.815 15.423-9.718 3.248-1.065 6.728-1.115 10.146-1.154a107.178 107.178 0 0 0-.934-16.053c-.076-.566-.187-1.188-.633-1.546-.389-.312-.929-.333-1.428-.334-8.15 0-18.419-.111-22.951 6.662zM497.142 827.775c2.545 8.293 1.979 17.502-1.562 25.422-1.336 2.988-3.101 5.869-3.548 9.112-.447 3.242.931 7.068 4.043 8.083 7.553-8.67 13.583-18.995 15.716-30.294 1.067-5.651 1.783-12.148 6.458-15.498-3.384-7.502-11.382-12.68-19.612-12.696-.11 4.771-2.895 11.31-1.495 15.871z"/><linearGradient id="a" gradientUnits="userSpaceOnUse" x1="135.132" y1="591.865" x2="164.765" y2="591.865"><stop offset="0" stop-color="#ff828c"/><stop offset="1" stop-color="#ffbe8c"/></linearGradient><path fill="url(#a)" d="M161.092 572.769c-.357-.689-.777-1.409-1.478-1.745-.911-.438-1.99-.09-2.921.3-13.337 5.584-22.374 20.092-21.503 34.524.112 1.857.455 3.873 1.838 5.119 2.29 2.062 5.975.919 8.881 1.942l8.848-6.935c5.346-3.168 8.815-9.038 9.734-15.185.92-6.144-.543-12.502-3.399-18.02z"/><linearGradient id="b" gradientUnits="userSpaceOnUse" x1="148.52" y1="601.814" x2="164.335" y2="601.814"><stop offset="0" stop-color="#ff828c"/><stop offset="1" stop-color="#ffbe8c"/></linearGradient><path fill="url(#b)" d="M162.435 608.741c3.795-4.478 5.738-10.479 5.286-16.33-.031-.4-.076-.811-.26-1.167-.553-1.069-2.093-1.176-3.204-.713-3.334 1.391-4.058 5.648-5.396 9.004-2.026 5.078-6.252 8.899-10.34 12.529 5.258 2.68 10.232 1.02 13.914-3.323z"/><linearGradient id="c" gradientUnits="userSpaceOnUse" x1="145.587" y1="605.492" x2="161.405" y2="605.492"><stop offset="0" stop-color="#ff828c"/><stop offset=".711" stop-color="#ffbe8c"/></linearGradient><path fill="url(#c)" d="M160.056 609.896c.951-2.004 1.145-4.272 1.29-6.485.152-2.319.132-4.986-1.612-6.523-1.815-1.599-4.78-1.126-6.662.395-1.882 1.52-2.941 3.809-3.937 6.014l-2.928 6.482c-3.836 8.494 11.299 5.492 13.849.117z"/><linearGradient id="d" gradientUnits="userSpaceOnUse" x1="153.772" y1="605.148" x2="139.447" y2="608.531"><stop offset="0" stop-color="#ffbe8c"/><stop offset="1" stop-color="#ff828c"/></linearGradient><path fill="url(#d)" d="M152.939 611.229c1.036-1.946 1.126-4.256.951-6.454-.133-1.662-.423-3.366-1.311-4.778-.887-1.412-2.49-2.479-4.15-2.31-2.024.206-3.429 2.044-4.577 3.724-2.403 3.513-8.668 9.685-3.93 13.248 3.793 2.851 10.954.448 13.017-3.43z"/><path fill="#014A5B" d="M315.874 640.83c10.146 63.328 42.091 122.954 89.194 166.48 19.886 18.376 48.872 21.513 75.224 27.738l14.443 3.413c5.895-10.032 10.92-21.995 14.967-32.904-15.497-22.965-37.46-44.655-61.083-59.129-4.509-2.763-9.28-5.477-12.315-9.807-2.204-3.146-3.315-6.905-4.421-10.583-5.784-19.23-12.442-38.316-22.092-55.927-7.359-13.43-16.382-25.863-25.378-38.256-7.333-10.102-14.768-20.312-24.329-28.337-7.231-6.069-16.054-10.91-25.494-10.96-2.694-.015-5.554.435-7.599 2.189-1.816 1.558-2.719 3.902-3.522 6.156-4.654 13.057-9.787 26.243-7.595 39.927z"/><path fill="#005773" d="M422.83 722.746c-6.366 6.367-10.345 14.324-14.324 22.283-1.592 2.387-3.979 6.366-7.162 5.57-15.632-2.369-30.981-3.607-46.385-4.559 13.812 22.583 30.665 43.301 50.11 61.27 15.469 14.295 36.445 19.367 57.403 23.846-2.075-8.792-4.256-17.617-7.015-26.443-8.754-27.853-13.528-58.093-32.627-81.967z"/><path fill="#C49A6C" d="M496.047 310.097c17.437 5.065 36.428 6.408 53.093 13.614 17.343 7.5 32.603 19.102 46.766 31.609 58.747 51.877 101.45 121.676 120.892 197.599 5.948 23.229 9.704 48.101 2.354 70.925-4.066 12.627-11.345 23.973-19.246 34.628-27.098 36.539-62.953 67.034-104.74 85.013-14.558 6.265-30.142 11.054-45.979 10.429-17.546-.693-34.186-7.978-49.381-16.777-48.468-28.068-86.799-73.241-106.602-125.633-20.125-53.245-21.135-111.448-29.335-167.776-2.545-17.486-5.735-35.787.15-52.448 4.487-12.702 13.825-23.06 23.6-32.33a279.93 279.93 0 0 1 53.579-39.828c16.933-9.685 36.117-14.466 54.849-9.025z"/><path fill="#A97C50" d="M611.434 697.281c-50.136-2.388-101.066-15.916-147.223-34.22-6.366-18.303-3.979-37.402-6.366-56.501-1.592-21.486-17.508-37.402-31.832-53.318-5.57-7.162-9.549-14.324-13.528-21.486-16.88-32.992-32.287-64.505-49.773-95.965.379 2.658.776 5.306 1.159 7.936 8.2 56.328 9.209 114.531 29.335 167.776 19.803 52.392 58.133 97.564 106.602 125.633 15.196 8.8 31.835 16.084 49.381 16.777 15.837.625 31.421-4.164 45.979-10.429 41.787-17.979 77.643-48.474 104.74-85.013 7.901-10.655 15.18-22.001 19.246-34.628 4.351-13.513 4.809-27.743 3.225-41.925-3.142 15.36-8.077 29.835-18.632 42.148-25.467 31.833-58.891 51.729-92.313 73.215z"/><path fill="#ECECEC" d="M156.145 547.047l-12.958 13.039c7.799 5.727 15.829 11.986 22.146 19.315 4.346-7.61 8.364-15.374 13.198-22.685-5.852-5.12-14.668-8.721-22.386-9.669z"/><path fill="#A97C50" d="M457.275 440.259c49.23 26.771 97.024 58.761 152.488 66.768-42.729 13.09-148.938-2.551-171.124-16.892 14.353 39.504 11.115 85.042-8.683 122.118a713.61 713.61 0 0 0-47.832-179.558c23.73 3.681 54.056-3.907 75.151 7.564z"/><path fill="#005773" d="M346.813 624.584c-10.576 48.721-19.561 99.345-9.228 148.118 9.283 43.813 33.739 83.746 39.398 128.173 14.133 2.266 27.878-.312 40.636-6.802 7.912-33.893 13.619-72.226 11.02-106.933-1.177-15.713-3.963-31.382-3.166-47.118.557-11.006 2.861-21.841 5.306-32.586 6.396-28.11 13.838-56.147 16.074-84.89 2.236-28.741-1.078-58.695-15.044-83.915-.937-1.692-1.99-3.432-3.663-4.403-4.021-2.336-8.923.847-12.393 3.944-25.762 23.004-61.613 52.66-68.94 86.412z"/><path fill="#014A5B" d="M431.81 538.631c-.937-1.691-1.99-3.431-3.663-4.402-4.021-2.336-8.923.847-12.393 3.944-25.763 23.003-61.615 52.659-68.941 86.411a1414 1414 0 0 0-2.498 11.733l8.611 11.56c2.133 2.863 4.458 5.873 7.814 7.09 2.615.948 5.498.667 8.255.296a150.364 150.364 0 0 0 51.598-16.855c13.35 46.614 3.294 99.316-26.282 137.74 10.086-3.954 19.002-10.842 25.375-19.603-4.102 37.861-9.163 76.086-23.105 111.523-4.518 11.482-10.079 22.689-16.671 33.202 13.102 1.489 25.833-1.157 37.708-7.197 7.912-33.893 13.619-72.226 11.02-106.933-1.177-15.713-3.963-31.382-3.166-47.118.557-11.006 2.861-21.841 5.306-32.586 6.396-28.11 13.838-56.147 16.074-84.89 2.238-28.74-1.076-58.694-15.042-83.915z"/><path fill="#005773" d="M268.507 350.989c-28.659 25.604-45.686 61.481-60.907 96.768s-29.842 71.763-55.256 100.589c8.313 8.986 17.308 16.33 23.86 26.67 48.419-39.383 84.144-93.133 105.134-151.911 4.56-12.767 8.47-26.128 7.605-39.657-.864-13.53-8.56-25.921-20.436-32.459z"/><path fill="#014A5B" d="M288.943 383.447c-.864-13.529-8.56-25.92-20.436-32.458-14.254 12.734-25.629 28.011-35.337 44.492 4.061 1.126 7.263 4.872 9.81 8.947 7.958 13.529 11.937 30.24 6.366 45.36-15.303 43.441-37.044 84.732-66.348 119.517 44.971-38.793 78.345-90.21 98.339-146.201 4.56-12.767 8.471-26.127 7.606-39.657z"/><path fill="#005773" d="M457.352 596.752c-4.408 8.397-9.382 14.934-15.912 21.812-2.871-21.138-7.746-42.896-12.335-63.728.516 23.338-.544 45.249-1.091 68.586-5.936 4.057-11.875 8.115-17.998 11.886-18.585 11.442-39.096 19.656-60.172 25.328-3.045-17.95-10.904-35.439-18.897-51.798-5.337 17.806-9.508 36.484-9.209 55.07-8.591-4.517-15.249-11.842-21.627-19.158a1131.744 1131.744 0 0 0-44.206-212.117c-3.517-11.312-7.242-22.737-7.762-34.571-.743-16.928 16.289-31.756 32.816-35.496s33.782-.324 50.176 3.959c4.733 1.236 9.512 2.573 13.712 5.08 5.19 3.098 9.198 7.802 13.008 12.495 48.999 60.364 87.516 135.832 99.497 212.652z"/><path fill="#0A758E" d="M262.668 354.828c-3.861 17.272-1.389 36.279-9.779 51.862a32.889 32.889 0 0 1 11.817-4.8c-.008 7.216-2.297 14.576-5.074 21.236 9.853 28.721 22.05 56.52 37.474 82.674 21.149-28.008 35.021-62.021 38.882-96.903-7.96-3.797-15.389-11.661-19.536-19.444 4.646 1.741 9.735 1.568 14.381 3.31 1.971.739 4.235 1.466 6.1.489-4.412-14.142-8.449-27.053-11.288-41.592-19.709-3.644-41.165-3.587-60.663 1.056-.446.106-1.058.132-1.213-.299-.155-.433-.738 2.131-1.101 2.411z"/><path fill="#ECECEC" d="M262.144 350.037c-.057 7.549 1.022 15.063 2.425 22.481 7.927 41.93 26.177 81.611 31.465 123.954 8.215-47.709 13.771-95.434 16.568-143.764-8.708-2.194-18.043-5.029-26.752-7.223-6.379-1.607-13.098-3.215-19.449-1.502-2.083.562-4.24 3.896-4.257 6.054z"/><path fill="#FFBE8C" d="M259.545 355.373c5.819 1.872 12.093 4.081 15.417 9.211 1.437 2.218 2.183 4.801 2.911 7.342l5.296 18.5c1.697-9.513 5.051-18.469 7.937-27.692-4.895-8.793-9.825-19.153-12.063-28.964-7.439 6.289-13.281 14.104-19.498 21.603z"/><linearGradient id="e" gradientUnits="userSpaceOnUse" x1="259.545" y1="348.787" x2="283.599" y2="348.787"><stop offset="0" stop-color="#ff828c"/><stop offset="1" stop-color="#ffbe8c"/></linearGradient><path fill="url(#e)" d="M279.042 333.77c-7.438 6.289-13.28 14.104-19.497 21.603 5.513 1.774 11.431 3.854 14.865 8.431 4.234-4.489 6.986-10.235 9.188-16.306-1.911-4.554-3.523-9.199-4.556-13.728z"/><path fill="#FFBE8C" d="M202.987 287.878c-4.615 14.337-10.391 28.31-14.229 42.875-2.325 8.823-3.815 18.672.521 26.701 3.328 6.163 9.62 10.215 16.154 12.737 10.377 4.006 21.989 4.745 32.791 2.086 17.391-4.281 31.805-17.003 41.527-32.045 9.723-15.041 15.284-32.352 20.071-49.611 4.551-16.413 8.525-33.186 8.505-50.218-.004-3.646-.208-7.368-1.537-10.762-1.767-4.515-5.372-8.061-9.207-11.027-9.942-7.691-22.151-12.416-34.682-13.419-13.163-1.055-40.315-.488-44.551 15.28-5.989 22.295-8.237 45.266-15.363 67.403z"/><path fill="#726658" d="M290.382 219.887c-19.224 8.855-41.527 4.984-62.692 5.11-6.376.039-13.033.541-18.506 3.812-5.474 3.271-9.318 10.08-7.272 16.119-7.651-10.327-11.364-23.297-11.833-36.141-.2-5.475.375-11.195 3.223-15.875 5.63-9.252 17.924-11.518 28.743-12.024 24.082-1.128 49.216 2.254 69.514 15.262 2.138 1.37 4.287 2.923 5.487 5.16 3.236 6.031-.447 15.713-6.664 18.577z"/><path fill="#726658" d="M284.501 217.39c-2.11 7.322-3.021 15.084-1.763 22.6 1.258 7.515 4.805 14.771 10.568 19.755.627 12.864.981 25.909-.998 38.636a277.766 277.766 0 0 1 17.045-31.436c3.703-5.889 7.688-11.773 9.477-18.496 3.702-13.921-3.893-29.969-17.005-35.933-3.151-1.433-6.659-2.336-10.078-1.791s-6.288 3.339-7.246 6.665z"/><path fill="#FFBE8C" d="M309.616 264.627c2.126-1.706 4.446-3.328 7.123-3.84s5.79.363 7.174 2.711c.753 1.277.916 2.813.92 4.296.037 11.66-8.368 21.449-16.545 29.761-5.714 5.808-12.102 11.768-20.144 13.07-2.788.451 1.528-20.548 2.782-23.126 4.273-8.791 11.105-16.787 18.69-22.872z"/><path fill="#014A5B" d="M337.448 554.098a34.196 34.196 0 0 0 15.956-3.935 41.397 41.397 0 0 1 2.405 18.079c8.43 1.741 15.43-6.529 23.717-8.856 7.668-2.154 15.722.969 23.671 1.463 7.95.493 17.791-3.949 17.486-11.908-41.168-40.568-39.966-109.281-76.625-153.965 1.735 2.115-7.041 35.1-7.292 40.408-.71 14.975 1.609 28.946 4.005 43.618 3.921 24.008 1.351 51.307-3.323 75.096z"/><path fill="#FFBE8C" d="M125.39 578.643c-2.455 3.127-4.655 6.555-5.663 10.4-1.354 5.172-.405 10.811 2.122 15.521 3.145 5.863 9.262 10.539 15.909 10.251s12.838-6.873 11.272-13.34c-.132-.546-.334-1.112-.777-1.459-.84-.657-2.059-.224-3.012.255a62.236 62.236 0 0 0-5.789 3.308c-2.447-2.963-.723-7.7 2.302-10.069 3.024-2.37 6.935-3.206 10.459-4.734 6.565-2.847 12.207-8.962 12.377-16.115.181-7.613-8.444-17.191-16.218-13.37-8.526 4.191-17.146 11.915-22.982 19.352z"/><path fill="#8B5E3C" d="M173.784 635.328l-2.248-20.649a11.967 11.967 0 0 0-9.693-10.512l-38.134-7.308a12.008 12.008 0 0 0-12.265 5.131l-10.522 15.755-7.941-5.304 10.522-15.754a21.531 21.531 0 0 1 22.004-9.207l38.134 7.308c9.369 1.796 16.357 9.374 17.389 18.856l2.248 20.649-9.494 1.035z"/><path fill="#603913" d="M15.382 729.511c.796-1.193 55.706-122.722 55.706-122.722l138.469 32.001-32.628 120.961-161.547-30.24z"/><path fill="#3C2415" d="M48.273 657.233l42.165 17.766-2.24 6.366 53.654 12.335 1.335-8.754 51.76 8.006-48.867-35.719z"/><path fill="#8B5E3C" d="M44.429 656.298L198.018 693.7l15.915-55.706L70.69 603.775z"/><path fill="#A97C50" d="M351.627 477.408c3.026 25.971 3.385 52.439-1.535 78.12 6.209 2.185 12.376-2.716 18.009-6.121a44.058 44.058 0 0 1 12.554-5.144c2.384-.568 4.959-.922 7.232-.005 1.728.697 3.101 2.062 4.749 2.931 4.38 2.311 9.711.779 14.408-.791a245.04 245.04 0 0 0-12.813-45.983c-4.101-10.592-8.933-20.884-13.395-31.33a484.407 484.407 0 0 1-22.198-64.015c-.396-1.465-.833-3.015-1.953-4.04-.998-.915-2.381-1.259-3.711-1.512-5.414-1.028-15.015-3.307-14.957 4.089.061 7.694 3.678 16.716 5.248 24.285 3.4 16.393 6.423 32.88 8.362 49.516z"/><path fill="#C49A6C" d="M328.158 492.655c-.819 8.747-1.865 17.486-2.044 26.27-.044 2.15.026 4.487 1.375 6.162 2.079 2.581 6.013 2.334 9.292 1.85l20.856-3.082c1.361-.201 2.799-.436 3.854-1.319 2.069-1.734 1.699-4.956 1.169-7.603a419.995 419.995 0 0 1-5.837-38.294c-2.178-20.638-2.902-41.791-10.202-61.217-1.99-5.294-8.412-14.922-14.739-8.725-5.208 5.101-1.852 18.542-1.682 24.943a510.575 510.575 0 0 1-2.042 61.015z"/><path fill="#8B5E3C" d="M331.579 513.928c-2.469 1.524-4.353 4.215-4.319 7.117.024 2.117 1.029 4.037 2.462 5.638 2.088.815 4.736.598 7.059.254l20.856-3.082c1.361-.201 2.799-.436 3.854-1.319 1.86-1.56 1.748-4.32 1.322-6.785-7.627-1.361-15.141-4.086-22.89-3.915-2.902.063-5.876.568-8.344 2.092z"/><path fill="#C49A6C" d="M95.758 659.879l-7.56 21.486 49.931 8.754 5.058-22.681zM319.445 352.059c-2.063-10.479-2.518-23.123 5.737-29.901 8.069-6.626 19.88-4.046 30.232-2.687 46.909 6.161 95.719-20.36 140.634-5.493l-49.259 26.107c-8.811 4.669-17.637 9.348-25.96 14.84-19.943 13.159-36.797 30.968-48.835 51.607-.725 1.243-1.602 2.622-3.015 2.894-.913.176-1.837-.165-2.705-.5-10.957-4.238-32.508-7.694-38.015-19.122-4.97-10.311-6.325-26.547-8.814-37.745z"/><path fill="#A97C50" d="M324.009 357.73c-.994-3.599-1.997-7.288-1.702-11.009s2.153-7.546 5.52-9.159c-3.865 1.852 1.674 37.25 2.224 41.847-2.132-7.186-4.046-14.45-6.042-21.679zM344.085 361.196c1.98-4.831 4.323-9.646 8.035-13.318 3.126-3.093 7.075-5.223 11.104-6.987 9.276-4.062 19.202-6.385 29.063-8.688-24.887 15.414-45.234 38.061-57.905 64.451 5.095-10.693 5.088-24.198 9.703-35.458z"/><path fill="#FFBE8C" d="M389.499 418.763l-1.323 12.039c-14.435 1.792-29.575-3.337-39.948-13.534-1.243-1.221-2.45-2.533-3.995-3.339-3.628-1.893-8-.559-11.992.342-2.614.589-5.59.907-7.765-.659-2.175-1.567-2.395-6.262.173-7.028-1.834-.794-3.207-2.57-3.513-4.545-.306-1.975 1.112-4.28 2.619-5.593-2.257-.241-4.28-1.977-4.861-4.171-.582-2.194.823-4.327 2.665-5.654-1.94.67-3.716-1.925-3.121-3.89.594-1.965 2.511-3.184 4.32-4.156a79.74 79.74 0 0 1 14.134-5.921c5.392-1.67 11.398-2.725 16.554-.426 4.407 1.964 7.442 6.041 10.23 9.979a642.835 642.835 0 0 1 15.708 23.249c2.647 4.107 6.226 10.346 10.115 13.307z"/><path fill="#ECECEC" d="M399.443 437.326c-1.615-.757-3.481-.672-5.261-.572-3.845.217-8.178.872-12.022 1.088a122.194 122.194 0 0 0-1.548-36.589c4.613 1.056 9.718 2.669 14.331 3.726 2.488 10.696 4.205 21.369 4.5 32.347z"/><path fill="#005773" d="M458.438 402.695c-16.21-4.901-33.526-4.023-50.435-3.1-5.54.303-11.439.942-16.979 1.245a135.454 135.454 0 0 1 3.553 41.388c11.558-.069 23.519-.108 35.076-.296 14.277-.232 28.795-.594 42.374-5.012 5.223-1.699 10.774-4.531 12.527-9.736 1.491-4.428-.279-9.36-3.015-13.148-4.965-6.873-14.985-8.887-23.101-11.341z"/><path fill="#C49A6C" d="M440.978 427.081c19.802 15.823 39.046 32.848 61.812 43.992s50.201 15.787 73.454 5.697c8.754-3.798 16.819-9.785 21.589-18.05 7.847-13.598 5.597-30.628 1.881-45.881-3.855-15.827-9.173-31.607-18.733-44.795-18.854-26.006-51.653-38.371-83.525-42.367-25.399-3.185-51.988-1.771-75.318 8.765-10.649 4.81-20.432 11.653-28.483 20.132-6.123 6.448-18.851 21.184-18.117 30.934.591 7.855 22.531 12.649 30.185 16.943 12.521 7.025 24.058 15.683 35.255 24.63z"/><path fill="#120C00" d="M235.656 237.161c-.468-.867-.641-1.856-.807-2.827-.393-2.292-.988-3.746-1.38-6.038-.168 2.123-.038 4.589-.207 6.711a60.94 60.94 0 0 1-2.752-6.457 41.286 41.286 0 0 0-16.506 8.422c.887 2.122.763 4.433 1.064 6.713 5.552-2.811 12.138-4.752 18.229-6.023.951-.198 1.641.151 2.359-.501zM278.791 238.919c-1.484-3.17-4.127-5.691-7.101-7.538-2.974-1.848-6.046-2.503-9.361-3.629-.968 1.595-1.934 3.456-2.902 5.05 0-1.68-.502-3.082-.502-4.762a64.28 64.28 0 0 0-3.612 10.297c4.675-.391 9.608 1.142 13.597 3.611 1.937 1.2 3.675 2.69 5.403 4.174L276 247.57c.681-2.169 2.33-6.423 2.791-8.651z"/><ellipse transform="rotate(9.642 260.758 275.783)" fill="#120C00" cx="260.753" cy="275.774" rx="4.244" ry="18.834"/><ellipse transform="rotate(3.139 223.45 269.936)" fill="#120C00" cx="223.265" cy="269.959" rx="3.34" ry="14.819"/><linearGradient id="f" gradientUnits="userSpaceOnUse" x1="176.881" y1="302.742" x2="229.341" y2="302.742"><stop offset="0" stop-color="#ff828c"/><stop offset="1" stop-color="#ffbe8c"/></linearGradient><path fill="url(#f)" d="M213.514 295.09c-3.595.161-7.169-.525-10.703-1.208l-11.975-2.315c-3.907-.755-8.42-1.366-11.457 1.206-2.876 2.437-3.148 7.022-1.434 10.38 1.714 3.357 4.969 5.662 8.338 7.353 10.59 5.314 23.779 5.57 34.184-.097 3.955-2.154 7.674-5.415 8.708-9.798.655-2.776-.619-9.122-4.302-9.564-1.69-.203-2.974 1.601-4.384 2.345-2.113 1.114-4.607 1.591-6.975 1.698z"/><path fill="#BA2E49" d="M258.702 317.562c-13.913 7.065-29.935 9.91-45.43 8.066 7.011 9.408 18.553 14.622 30.139 12.767 4.81-.771 9.589-2.751 12.812-6.403 3.222-3.653 4.55-10.023 2.479-14.43z"/><path fill="#FFF" d="M275.684 303.182c-28.703-14.474-81.113-23.854-81.639-23.947l-1.172-.207.256 1.162c1.951 8.861 5.442 14.06 10.378 15.451 7.447 2.098 15.533-5.193 17.389-6.997l3.328 1.325c3.926 9.365 9.944 15.565 17.89 18.43 3.673 1.324 7.44 1.833 11.065 1.833 11.737 0 21.963-5.342 22.52-5.638l1.357-.721-1.372-.691zm-71.748-9.074c-4.116-1.162-7.134-5.563-8.98-13.088 3.325.62 13.271 2.54 25.628 5.522l-.453.617c-.088.091-8.82 9.035-16.195 6.949zm38.717 12.794c-7.594-2.738-13.343-8.744-17.087-17.851l.219-1.224c15.714 3.971 34.135 9.463 47.724 16.055-4.46 2.021-18.457 7.49-30.856 3.02z"/><path fill="#C97D5D" d="M308.729 272.699c1.902-1.741 4.2-3.526 6.76-3.217.372.045.764.149 1.01.432.239.274.293.659.332 1.021.209 1.963.25 3.945.121 5.916-.477-1.695-1.21-3.654-2.912-4.106-1.143-.304-2.354.221-3.285.951-.93.729-1.685 1.664-2.623 2.384 1.3.603 2.632 1.228 3.625 2.261s1.584 2.582 1.095 3.928a11.022 11.022 0 0 0-6.057-3.985c-1.502 4.239 2.047 8.964.787 13.281-.705 2.413-2.894 4.229-5.327 4.862s-5.056.195-7.356-.819v-1.731c1.657-.002 3.369-.39 4.666-1.421 1.503-1.195 2.348-3.431 1.319-5.187-1.125-1.92-3.515-1.389-2.447-3.787.874-1.963 3.489-4.015 4.969-5.565 1.715-1.801 3.49-3.54 5.323-5.218z"/><path fill="#9B8579" d="M205.568 193.413l-.748 8.786c3.636-3.242 9.272-1.225 13.835.48 14.738 5.506 31.34 5.873 46.307 1.023 1.152-.374 2.354-.782 3.55-.588 2.349.383 3.868 2.933 6.207 3.377 2.426.461 4.888-2.101 4.331-4.507a19.241 19.241 0 0 0 10.794.155c-1.018 3.435-5.826 5.031-8.696 2.888-.633 1.87-1.308 3.808-2.692 5.215-1.385 1.407-3.701 2.108-5.375 1.062-1.176-.734-1.929-2.22-3.298-2.434-1.001-.156-1.943.443-2.805.976-11.556 7.139-26.195 6.018-39.71 4.657-4.059-.409-8.854-1.328-10.472-5.073-.55-1.273-.772-2.904-2.018-3.513-1.819-.89-3.563 1.222-5.347 2.179-2.758 1.48-6.704-.455-7.224-3.542-2.89 3.984-4.677 8.577-5.543 13.403-.46-10.012-2.043-19.149 8.904-24.544zM288.775 232.748l3.433 4.53c.076-1.082.163-2.202.677-3.157.514-.956 1.579-1.705 2.644-1.498.438.085.83.317 1.24.492 2.895 1.23 6.122-.519 8.776-2.207 1.025-.652 2.084-1.337 2.729-2.367.645-1.029.744-2.509-.106-3.376 4.333 1.69 7.29 6.388 6.939 11.026a6.729 6.729 0 0 0-3.733-4.547c.276 2.235.265 5.05-1.74 6.073-1.328.678-2.93.196-4.413.341-1.446.142-2.769.886-4.2 1.137-1.431.252-3.219-.242-3.62-1.639a26.04 26.04 0 0 1-1.2 6.035l-4.428-2.891c.586.383.282 5.912.267 6.525-4.318-3.649-4.881-9.22-3.265-14.477z"/><path fill="#BA2E49" d="M302.614 454.151l-13.55-44.677 6.852-7.706-12.746-11.342-5.661 11.639 6.091 9.127 1.703 36.62c4.628 16.009 8.668 32.132 10.733 48.66 2.426-14.1 4.619-28.202 6.578-42.321z"/><linearGradient id="g" gradientUnits="userSpaceOnUse" x1="132.977" y1="608.664" x2="142.444" y2="582.712"><stop offset="0" stop-color="#ff828c"/><stop offset="1" stop-color="#ffbe8c"/></linearGradient><path fill="url(#g)" d="M128.844 588.87c-2.524 6.438 1.044 14.036 6.656 18.078 1.481 1.066 3.162 1.97 4.984 2.082 1.821.113 3.793-.732 4.569-2.385 1.298-2.765-1.122-5.7-2.464-8.443-.345-.705-.626-1.515-.388-2.263.138-.434.437-.796.728-1.146l5.327-6.387c2.551-3.059 5.255-6.579 4.889-10.545-.576-6.23-8.705-8.756-13.25-4.993-1.763 1.46-2.798 4.291-4.11 6.132-2.321 3.258-5.453 6.075-6.941 9.87z"/><path fill="#A97C50" d="M541.875 560.77c12.227 6.257 25.227 11.962 34.463 22.128-24.09-3.769-46.374-15.546-65.6-30.542-16.664-12.998-37.787-30.49-48.24-48.616 27.572 17.521 49.377 41.678 79.377 57.03zM584.162 529.082c27.351 2.73 56.284 5.206 81.119-6.57-10.437 13.024-27.598 19.19-44.268 20.005-16.671.814-33.172-3.071-49.41-6.93-22.902-5.443-45.965-10.462-68.732-16.433 26.716 2.244 54.153 9.928 81.291 9.928zM414.93 382.198c13.129-7.388 26.402-14.837 40.865-19.054 18.998-5.54 39.669-5.19 58.469.988-30.856-3.866-62.896 2.372-90.047 17.533-10.521 5.875-23.402 16.606-35.923 16.062 8.024-5.947 17.798-10.556 26.636-15.529zM441.406 328.509c-11.843 12.695-23.729 25.395-34.606 38.939-3.783 4.711-21.535 35.211-24.161 16.463-1.352-9.646 17.05-26.79 23.368-32.746 9.761-9.201 27.057-13.715 35.399-22.656z"/><path fill="#FFF" d="M265.713 272.751c-.039-.12-.102-.217-.155-.323a6.644 6.644 0 0 0-.125-.72 2.372 2.372 0 0 0-1.001-1.479c-.403-.282-1.119-.287-1.522 0a2.402 2.402 0 0 0-.928 1.25c-.411.313-.773.787-.884 1.273-.268 1.174.255 2.347 1.386 2.824 1.048.442 2.432.075 2.989-.979.293-.557.44-1.23.24-1.846zM226.108 269.892l.005-.023c.015-.102.028-.205.042-.308a1.34 1.34 0 0 0 .137-.565 1.221 1.221 0 0 0-.326-.876l-.065-.068c-.445-.465-1.078-.451-1.618-.209-.843.376-1.126 1.273-1.193 2.121-.044.56-.083 1.368.1 1.898.223.647.778 1.132 1.487 1.132.665 0 1.325-.477 1.487-1.132.146-.589-.003-1.296-.048-1.898a3.875 3.875 0 0 1-.008-.072z"/><path opacity=".7" fill="#FFF" d="M667.907 488.399c-12.479-16.435-27.835-30.388-46.874-38.754-4.183-1.838-8.439-3.426-12.742-4.861a289.565 289.565 0 0 0-2.433-3.956c-11.757-18.743-24.944-36.633-38.402-54.179a518.697 518.697 0 0 0-12.785-16.013c5.146-.02 10.298.199 15.354.764 7.654.855 15.722 1.763 22.657 5.39 3.27 1.71 7.05-2.606 4.099-5.312-11.297-10.355-28.672-13.467-43.387-14.825a115.742 115.742 0 0 0-11.07-.5 113.267 113.267 0 0 1-4.08-5.279c-1.232-1.706-2.229-3.55-3.421-5.271-1.197-1.728-2.629-3.026-3.627-4.901-2.145-4.03-7.485-1.708-7.878 2.134-.545 5.331.947 10.182 3.214 14.783-6.554 1.29-12.799 3.528-18.056 7.148-6.056 4.17-11.241 10.033-12.597 17.476-1.278 7.013.303 13.761 3.34 20.113 6.197 12.963 17.845 23.292 29.353 31.494 19.046 13.575 42.21 17.057 64.366 23.195 7.55 13.124 14.339 26.657 19.928 40.771 8.438 21.31 18.296 42.292 25.013 64.232.783 2.558 1.564 5.128 2.158 7.737.243 1.069.449 2.147.636 3.229.016.088.281 1.985.316 2.152.597 5.008.861 10.052 1.243 15.079l.132 1.698c-1.193.34-2.392.662-3.594.947-2.119.501-4.255.884-6.4 1.247-.188.031-.346.059-.475.082-.141.011-.312.024-.529.043-1.229.105-2.453.24-3.685.32a84.609 84.609 0 0 1-11.883-.093c-.896-.068-1.79-.163-2.685-.231-.3-.035-.519-.061-.667-.076-.289-.045-.579-.086-.867-.135a65.874 65.874 0 0 1-5.899-1.257c-3.719-.976-7.291-2.046-11.037-2.905-4.317-.989-8.933.654-11.22 4.565-2.031 3.472-1.872 9.383 1.553 12.04 3.737 2.897 7.045 5.136 11.663 6.438 4.23 1.193 8.59 1.854 12.951 2.347 7.886.89 15.74.31 23.56-.932a86.419 86.419 0 0 0 12.163-2.86c.963 3.528 2.239 6.971 3.995 10.267 2.804 5.263 10.108 6.889 15.111 3.963 5.264-3.079 6.857-9.872 3.963-15.111a36.551 36.551 0 0 1-1.003-1.937c-.031-.201-.63-1.844-.669-1.968-.477-1.526-.854-3.082-1.188-4.646a69.811 69.811 0 0 0 9.338-7.266c30.855-28.641 14.939-77.556-6.953-106.386zm-116.29-59.569a12.31 12.31 0 0 0-.226-.082l-.186-.086c-.613-.282-1.226-.564-1.832-.86a77.947 77.947 0 0 1-4.522-2.409c-5.885-3.372-10.934-7.019-15.627-11.109-5.07-4.419-10.072-9.607-13.265-14.445a47.7 47.7 0 0 1-2.426-4.084 38.8 38.8 0 0 1-.771-1.557c-.05-.152-.5-1.237-.532-1.333a44.8 44.8 0 0 1-.95-3.383 10.784 10.784 0 0 0-.103-.399c-.003-.059-.005-.108-.01-.179a30.769 30.769 0 0 1-.044-2.63c.002-.117.002-.21.001-.293.016-.061.03-.115.048-.191.181-.755.378-1.496.636-2.226-.201.843 2.144-3.175 1.292-2.164 2.31-2.746 4.443-4.061 7.999-5.84.173-.087.294-.149.394-.202a52.044 52.044 0 0 1 3.326-1.132 67.705 67.705 0 0 1 5.762-1.518 72.05 72.05 0 0 1 4.628-.846c3.516 5.186 7.224 10.243 10.872 15.334 11.815 16.497 23.681 32.895 34.675 49.947-5.849-1.466-11.699-2.94-17.497-4.608-3.909-1.126-7.823-2.293-11.642-3.705zM671.31 568.86c-.087.233-.146.399-.193.537-.067.132-.15.298-.269.541a43.205 43.205 0 0 1-1.628 3.067 40.19 40.19 0 0 1-2.304 3.506l-.238.295a47.213 47.213 0 0 1-3.536 3.8c-.021.02-.042.037-.062.057-.576-6.273-1.337-12.549-3.021-18.598-6.054-21.729-16.511-41.984-25-62.8-4.391-10.766-9.069-21.332-14.231-31.658a87.042 87.042 0 0 1 4.898 2.81c16.966 10.544 30.359 27.03 39.259 44.761 8.107 16.156 12.781 36.151 6.325 53.682z"/><g fill="#8ED61D"><path d="M459.959 641.642c8.136-4.059 17.888-1.827 26.57.872s17.925 5.813 26.656 3.274c-5.013 7.927-10.311 15.203-15.324 23.129-5.513 1.003-11.839-.025-17.12-1.898s-10.418-4.256-15.912-5.36c-5.493-1.104-11.572-.778-16.174 2.418l11.304-22.435zM620.771 701.722c-8.825 5.632-21.121 5.177-29.506-1.092-.268 6.311.303 13.05.035 19.36 10.033 7.824 26.377 8.736 37.034 1.786-1.957-6.026-5.604-14.029-7.563-20.054zM473.883 756.936c-6.279 7.828-12.886 15.943-19.165 23.771 6.083 5.37 11.293 10.892 17.375 16.262l15.935-24.314c-4.736-4.373-9.409-11.348-14.145-15.719zM640.17 783.863c7.097-2.535 14.757-4.377 21.854-6.912.202 6.91 4.488 13.187 9.934 17.443 5.447 4.258 11.993 6.82 18.436 9.325-6.002 4.001-11.798 8.312-17.8 12.313-13.532-6.326-25.466-18.952-32.424-32.169z"/><g><path d="M504.422 584.878c-.849 9.998-1.81 20.419-2.658 30.418 8.043 1.066 15.447 2.746 23.491 3.812l-.327-29.068c-6.368-.988-14.138-4.174-20.506-5.162zM486.23 584.931c-8.825 5.632-21.121 5.177-29.506-1.092-.268 6.311.303 13.049.036 19.359 10.033 7.825 26.376 8.737 37.034 1.786-1.959-6.025-5.605-14.028-7.564-20.053zM331.383 512.445c6.959-5.146 13.926-9.171 20.885-14.317-1.811 8.594-.524 17.806 3.571 25.574 4.095 7.769 10.968 14.036 19.08 17.398-8.415 2.805-16.905 6.238-25.32 9.042-10.375-8.58-16.945-21.817-19.047-35.116l.831-2.581zM508.796 714.242c6.959-5.146 13.926-9.171 20.884-14.317-1.81 8.594-.523 17.806 3.572 25.574s10.968 14.036 19.081 17.398c-8.416 2.805-16.905 6.238-25.32 9.043-10.375-8.581-16.945-21.818-19.048-35.116l.831-2.582zM373.348 572.125c8.136-4.06 17.888-1.827 26.57.871 8.682 2.699 17.925 5.813 26.656 3.275-5.013 7.926-10.311 15.202-15.324 23.129-5.513 1.002-11.839-.025-17.12-1.898-5.281-1.874-10.418-4.256-15.912-5.361-5.493-1.104-11.572-.777-16.174 2.419l11.304-22.435zM396.914 695.17c7.729 1.278 14.7 5.248 21.949 8.22s15.52 4.954 22.832 2.142c-1.156 8.704-1.615 16.786-2.771 25.49-4.711 1.33-10.002 1.077-14.785.033-4.156-.908-8.063-2.687-11.933-4.452l-11.222-5.12-4.07-26.313zM356.354 677.024c3.207-6.899 6.321-14.492 9.527-21.392 15.63 3.813 32.506 2.739 47.856-2.079l-6.416 23.575c-16 1.907-34.998 2.051-50.967-.104z"/></g></g><ellipse transform="translate(1.302 -.861)" fill="#BA6509" cx="580.893" cy="877.063" rx="24.673" ry="10.558"/><ellipse transform="translate(1.298 -.86)" fill="#F7941E" cx="580.622" cy="874.165" rx="24.673" ry="10.558"/><ellipse transform="translate(1.295 -.859)" fill="#BA6509" cx="580.622" cy="874.164" rx="19.787" ry="8.468"/><ellipse transform="translate(1.286 -.853)" fill="#FBB040" cx="580.622" cy="874.165" rx="18.269" ry="7.818"/><path fill="#FFF" d="M570.692 868.632l-.003-.002c-.675-.379-1.974-.424-2.773-.094-2.911 1.202-4.887 2.816-5.416 4.626-.141.48.746.905 1.879.899.938-.005 1.702-.308 1.821-.706.428-1.438 2.006-2.721 4.328-3.677.672-.276.731-.728.164-1.046z"/><path fill="#F7941E" d="M596.79 875.489h-.005c-.969-.115-1.974.119-2.271.529-1.469 2.028-5.306 3.613-10.123 4.161-1.03.117-1.631.573-1.311 1.009.297.404 1.281.644 2.236.537 6.068-.682 10.897-2.668 12.751-5.219.317-.434-.253-.895-1.277-1.017z"/><path fill="#FFF" d="M574.021 867.818c.415.356 1.373.521 2.258.402.4-.053.809-.1 1.223-.138.858-.08 1.476-.4 1.477-.776v-.001c0-.507-1.092-.89-2.248-.784-.547.051-1.083.111-1.61.182-1.09.147-1.61.677-1.1 1.115z"/><path fill="#BA6509" d="M579.065 879.268l.001-1.189c-1.959-.04-3.859-.269-4.97-.545l.879-1.463c1.228.29 2.953.555 4.854.558 1.667.003 2.807-.271 2.808-.771.001-.476-.935-.777-3.098-1.093-3.128-.455-5.262-1.084-5.26-2.298.002-1.102 1.816-1.962 4.945-2.22l.002-1.188 2.865.004-.002 1.101c1.959.041 3.274.218 4.239.42l-.85 1.412c-.761-.139-2.105-.429-4.21-.432-1.9-.003-2.516.347-2.517.697 0 .413 1.023.677 3.508 1.081 3.479.53 4.881 1.221 4.88 2.348-.002 1.113-1.846 2.062-5.209 2.307l-.002 1.276-2.863-.005z"/><g><ellipse transform="rotate(-26.517 929.387 773.903)" fill="#BA6509" cx="929.371" cy="773.938" rx="24.674" ry="10.558"/><ellipse transform="rotate(-26.517 927.805 771.412)" fill="#F7941E" cx="927.831" cy="771.467" rx="24.673" ry="10.559"/><ellipse transform="rotate(-26.517 927.846 771.432)" fill="#BA6509" cx="927.831" cy="771.467" rx="19.787" ry="8.468"/><ellipse transform="rotate(-26.517 927.857 771.438)" fill="#FBB040" cx="927.831" cy="771.467" rx="18.268" ry="7.817"/><path fill="#FFF" d="M916.475 770.967h-.003c-.774-.036-1.956.505-2.522 1.158-2.064 2.379-3.107 4.706-2.771 6.562.09.493 1.073.476 2.083-.037.836-.425 1.385-1.038 1.312-1.446-.261-1.478.575-3.332 2.224-5.227.475-.548.325-.979-.323-1.01z"/><path fill="#F7941E" d="M942.881 765.412l-.006.001c-.917.331-1.711.99-1.793 1.49-.404 2.472-3.125 5.606-7.188 8.254-.868.566-1.201 1.243-.72 1.489.446.228 1.434.002 2.239-.521 5.121-3.327 8.55-7.266 9.064-10.376.088-.529-.626-.687-1.596-.337z"/><path fill="#FFF" d="M919.087 768.749c.53.133 1.46-.148 2.199-.651.334-.227.678-.451 1.031-.671.731-.456 1.14-1.019.972-1.355-.227-.454-1.374-.308-2.361.306-.466.289-.918.584-1.357.883-.91.617-1.137 1.325-.484 1.488z"/><path fill="#BA6509" d="M928.724 776.727l-.531-1.063c-1.77.842-3.571 1.488-4.688 1.738l.132-1.701a21.815 21.815 0 0 0 4.589-1.675c1.491-.744 2.389-1.5 2.165-1.947-.212-.426-1.184-.276-3.259.409-3.001.994-5.19 1.388-5.732.302-.491-.985.745-2.567 3.428-4.199l-.531-1.064 2.564-1.279.491.985c1.77-.841 3.025-1.271 3.978-1.523l-.127 1.644c-.741.217-2.073.56-3.957 1.5-1.701.848-2.094 1.436-1.938 1.749.185.37 1.218.148 3.62-.604 3.348-1.083 4.911-1.094 5.414-.087.497.997-.727 2.67-3.624 4.396l.57 1.142-2.564 1.277z"/></g><g><circle fill="#BA6509" cx="811.18" cy="842.154" r="21.907"/><circle fill="#F7941E" cx="809.496" cy="842.642" r="21.907"/><circle fill="#BA6509" cx="809.496" cy="842.642" r="17.569"/><circle fill="#FBB040" cx="809.496" cy="842.642" r="16.22"/><path fill="#FFF" d="M796.872 835.6l-.003-.001a1.653 1.653 0 0 0-2.337.799 16.158 16.158 0 0 0-.623 10.729 1.657 1.657 0 0 0 2.269 1.052 1.663 1.663 0 0 0 .905-1.988 12.867 12.867 0 0 1 .514-8.536c.32-.764-.002-1.648-.725-2.055z"/><path fill="#F7941E" d="M823.755 839.462l-.005.001a1.65 1.65 0 0 0-1.416 1.81 12.964 12.964 0 0 1-4.838 11.506 1.658 1.658 0 0 0-.242 2.386h.001a1.647 1.647 0 0 0 2.261.233 16.249 16.249 0 0 0 6.113-14.448 1.663 1.663 0 0 0-1.874-1.488z"/><path fill="#FFF" d="M798.918 832.875c.63.532 1.545.509 2.17-.029.282-.243.576-.476.883-.695a1.658 1.658 0 0 0 .566-2.001v-.001a1.654 1.654 0 0 0-2.475-.701 16.51 16.51 0 0 0-1.162.914 1.654 1.654 0 0 0 .018 2.513z"/><path fill="#BA6509" d="M812.408 852.919l-.973-2.267c-1.63.614-3.365.851-4.496.714l-.482-3.098c1.237.118 2.86.016 4.411-.65 1.36-.583 2.064-1.508 1.655-2.462-.389-.906-1.397-1.151-3.419-.99-2.922.236-5.175-.209-6.168-2.523-.901-2.1-.128-4.381 2.21-5.977l-.973-2.267 2.338-1.003.9 2.1c1.63-.615 2.847-.741 3.798-.697l.465 2.992c-.732.004-2.065-.074-3.783.663-1.551.665-1.766 1.549-1.479 2.217.338.787 1.389.93 3.744.823 3.269-.216 4.977.604 5.898 2.752.911 2.123.186 4.581-2.354 6.236l1.045 2.433-2.337 1.004z"/></g><g><ellipse transform="rotate(-27.021 662.317 781.856)" fill="#BA6509" cx="662.271" cy="781.81" rx="25.424" ry="10.88"/><ellipse transform="rotate(-27.021 660.677 779.303)" fill="#F7941E" cx="660.661" cy="779.279" rx="25.424" ry="10.88"/><ellipse transform="rotate(-27.021 660.703 779.322)" fill="#BA6509" cx="660.661" cy="779.279" rx="20.389" ry="8.724"/><ellipse transform="rotate(-27.021 660.726 779.34)" fill="#FBB040" cx="660.661" cy="779.279" rx="18.824" ry="8.055"/><path fill="#FFF" d="M648.956 778.866h-.003c-.798-.031-2.011.537-2.589 1.215-2.105 2.471-3.159 4.878-2.796 6.786.097.508 1.109.48 2.146-.057.856-.444 1.416-1.082 1.339-1.502-.282-1.52.562-3.438 2.243-5.405.487-.568.329-1.011-.34-1.037z"/><path fill="#F7941E" d="M676.113 772.903l-.005.002c-.942.349-1.754 1.035-1.834 1.551-.396 2.551-3.17 5.806-7.331 8.57-.891.591-1.228 1.291-.729 1.54.462.231 1.478-.011 2.303-.558 5.246-3.474 8.743-7.562 9.245-10.773.087-.545-.652-.701-1.649-.332z"/><path fill="#FFF" d="M651.627 776.557c.549.132 1.504-.166 2.261-.69.342-.237.694-.471 1.057-.701.75-.477 1.165-1.06.989-1.405-.237-.465-1.419-.305-2.431.336-.478.303-.941.61-1.391.923-.93.644-1.159 1.375-.485 1.537z"/><path fill="#BA6509" d="M661.629 784.69l-.557-1.092c-1.816.883-3.666 1.566-4.814 1.833l.119-1.754a22.506 22.506 0 0 0 4.714-1.767c1.529-.78 2.447-1.567 2.213-2.026-.223-.437-1.222-.274-3.354.451-3.083 1.052-5.335 1.477-5.903.362-.516-1.011.745-2.651 3.493-4.357l-.556-1.092 2.63-1.341.516 1.011c1.815-.883 3.105-1.338 4.085-1.605l-.116 1.694c-.763.229-2.132.595-4.064 1.58-1.744.891-2.145 1.499-1.98 1.821.193.379 1.256.141 3.725-.655 3.44-1.146 5.051-1.172 5.578-.138.521 1.021-.725 2.757-3.694 4.561l.598 1.172-2.633 1.342z"/></g></svg>