<?xml version="1.0" encoding="utf-8"?>
<!-- Generator: Adobe Illustrator 16.0.0, SVG Export Plug-In . SVG Version: 6.00 Build 0)  -->
<!DOCTYPE svg PUBLIC "-//W3C//DTD SVG 1.1//EN" "http://www.w3.org/Graphics/SVG/1.1/DTD/svg11.dtd">
<svg version="1.1" id="Layer_1" xmlns="http://www.w3.org/2000/svg" xmlns:xlink="http://www.w3.org/1999/xlink" x="0px" y="0px"
	 width="400px" height="400px" viewBox="0 0 400 400" enable-background="new 0 0 400 400" xml:space="preserve">
<g>
	<path fill="#7A6EA6" d="M218.307,150.709c-2.138,0-3.87,1.733-3.87,3.871v18.21c0,2.138,1.732,3.87,3.87,3.87
		c2.139,0,3.871-1.732,3.871-3.87v-18.21C222.178,152.442,220.445,150.709,218.307,150.709z"/>
	<path fill="#7A6EA6" d="M215.571,139.56c-0.722,0.722-1.135,1.716-1.135,2.734c0,1.019,0.413,2.013,1.135,2.735
		c0.71,0.723,1.717,1.135,2.735,1.135c1.02,0,2.014-0.413,2.736-1.135c0.721-0.722,1.135-1.716,1.135-2.735
		c0-1.019-0.414-2.012-1.135-2.734C219.598,138.114,217.004,138.114,215.571,139.56z"/>
	<path fill="#7A6EA6" d="M189.127,199.592c-2.138,0-3.871,1.734-3.871,3.872v5.953c0,2.138,1.733,3.869,3.871,3.869
		c2.138,0,3.871-1.731,3.871-3.869v-5.953C192.998,201.326,191.265,199.592,189.127,199.592z"/>
	<path fill="#7A6EA6" d="M189.127,222.59c-2.138,0-3.871,1.733-3.871,3.87v30.235c0,2.137,1.733,3.869,3.871,3.869
		c2.138,0,3.871-1.732,3.871-3.869V226.46C192.998,224.323,191.265,222.59,189.127,222.59z"/>
	<path fill="#7A6EA6" d="M218.307,301.972c-2.138,0-3.87,1.732-3.87,3.869v15.94c0,1.503-0.584,2.911-1.644,3.974l-4.385,4.385
		c-1.513,1.511-1.513,3.962,0,5.473c0.755,0.756,1.744,1.135,2.735,1.135s1.98-0.379,2.735-1.135l4.387-4.385
		c2.522-2.523,3.912-5.876,3.912-9.446v-15.94C222.178,303.704,220.445,301.972,218.307,301.972z"/>
	<path fill="#7A6EA6" d="M218.307,280.842c-2.138,0-3.87,1.733-3.87,3.87v5.837c0,2.137,1.732,3.87,3.87,3.87
		c2.139,0,3.871-1.733,3.871-3.87v-5.837C222.178,282.575,220.445,280.842,218.307,280.842z"/>
	<path fill="#7A6EA6" d="M139.397,304.226h8.756c2.139,0,3.871-1.733,3.871-3.87c0-2.139-1.732-3.871-3.871-3.871h-4.886v-9.438
		c0-2.136-1.732-3.869-3.87-3.869c-2.138,0-3.871,1.733-3.871,3.869v13.31C135.526,302.492,137.259,304.226,139.397,304.226z"/>
	<path fill="#7A6EA6" d="M264.732,201.647v6.018c0,2.137,1.732,3.871,3.871,3.871c2.138,0,3.87-1.734,3.87-3.871v-6.018
		c0-5.553-2.074-10.859-5.838-14.942l-0.435-0.471c-0.002-0.002-0.003-0.005-0.006-0.007l-5.252-5.697
		c-1.45-1.57-3.898-1.67-5.47-0.222c-1.572,1.449-1.671,3.897-0.223,5.469l5.252,5.697c0.003,0.002,0.004,0.003,0.007,0.005
		l0.437,0.473C263.387,194.602,264.732,198.045,264.732,201.647z"/>
	<path fill="#7A6EA6" d="M268.604,222.59c-2.139,0-3.871,1.733-3.871,3.87v5.604c0,2.137,1.732,3.868,3.871,3.868
		c2.138,0,3.87-1.731,3.87-3.868v-5.604C272.474,224.323,270.741,222.59,268.604,222.59z"/>
	<path fill="#7A6EA6" d="M329.036,278.521l-35.661-46.005v-35.897c0-7.577-2.828-14.816-7.963-20.385l-42.331-45.908v-38.63
		c0-19.005-7.401-36.872-20.842-50.312c-4.947-4.948-11.524-7.672-18.522-7.672c-6.997,0-13.574,2.724-18.521,7.672
		c-13.44,13.439-20.84,31.306-20.84,50.312v39.241l-41.767,45.296c-5.136,5.569-7.964,12.808-7.964,20.385v35.897l-35.661,46.005
		c-3.964,5.112-6.146,11.49-6.146,17.957v23.489c0,2.85,2.311,5.159,5.16,5.159h19.603v10.423c0,2.85,2.31,5.16,5.161,5.16h41.909
		c2.85,0,5.161-2.311,5.161-5.16v-10.423h14.544c0,6.997,2.726,13.573,7.672,18.52l13.167,13.168
		c5.106,5.106,11.813,7.66,18.522,7.66c6.706,0,13.415-2.555,18.521-7.66l13.169-13.168l0,0c4.945-4.948,7.671-11.522,7.673-18.52
		h15.108v10.423c0,2.85,2.311,5.16,5.16,5.16h41.909c2.85,0,5.161-2.311,5.161-5.16v-10.423h19.602c2.85,0,5.16-2.31,5.16-5.159
		v-23.489C335.182,290.011,332.999,283.633,329.036,278.521z M124.946,196.619c0-4.977,1.857-9.731,5.23-13.389l34.18-37.067
		v168.644H144.65h-19.705v-80.524V196.619z M83.139,296.478c0-4.188,1.414-8.319,3.981-11.633l27.504-35.482v65.444h-11.883H83.139
		V296.478z M139.49,330.39h-31.588v-5.264h11.883h19.705V330.39z M232.76,325.123c0,4.239-1.652,8.226-4.648,11.225l-13.169,13.167
		c-2.999,2.998-6.985,4.65-11.226,4.65s-8.226-1.652-11.225-4.65l-13.167-13.168c-2.997-2.998-4.649-6.984-4.649-11.224v-5.156
		V132.954V91.696c0-16.249,6.328-31.524,17.816-43.013c3.096-3.095,7.16-4.643,11.226-4.643c4.064,0,8.129,1.548,11.225,4.643
		c11.49,11.489,17.817,26.765,17.817,43.013V325.123z M243.646,146.163l34.18,37.068c3.371,3.656,5.229,8.411,5.229,13.388v37.664
		v80.524H263.35h-19.704V146.163z M300.099,330.39h-31.588v-5.264h19.704h11.884V330.39z M324.86,314.807h-19.602h-11.884v-65.444
		l27.506,35.482c2.567,3.313,3.979,7.444,3.979,11.633V314.807z"/>
	<path fill="#7A6EA6" d="M203.718,58.106c-10.816,0-19.289,13.084-19.289,29.786c0,16.703,8.473,29.787,19.289,29.787
		c10.814,0,19.288-13.084,19.288-29.787C223.006,71.19,214.532,58.106,203.718,58.106z M203.718,109.938
		c-5.461,0-11.548-9.054-11.548-22.046c0-12.991,6.086-22.045,11.548-22.045c5.461,0,11.547,9.054,11.547,22.045
		C215.265,100.884,209.179,109.938,203.718,109.938z"/>
	<path fill="#7A6EA6" d="M123.696,349.013c-2.138,0-3.87,1.733-3.87,3.869v19.704c0,2.139,1.732,3.872,3.87,3.872
		c2.138,0,3.87-1.733,3.87-3.872v-19.704C127.566,350.746,125.834,349.013,123.696,349.013z"/>
	<path fill="#7A6EA6" d="M107.552,348.671c-1.852-1.069-4.219-0.434-5.288,1.417l-7.846,13.59c-1.068,1.852-0.433,4.219,1.418,5.288
		c0.609,0.352,1.275,0.519,1.931,0.519c1.339,0,2.64-0.694,3.356-1.936l7.846-13.591
		C110.037,352.106,109.403,349.74,107.552,348.671z"/>
	<path fill="#7A6EA6" d="M145.11,350.088c-1.067-1.851-3.432-2.483-5.286-1.417c-1.851,1.069-2.486,3.436-1.416,5.287l7.875,13.642
		c0.717,1.24,2.017,1.936,3.355,1.936c0.657,0,1.322-0.168,1.932-0.52c1.851-1.068,2.486-3.436,1.416-5.288L145.11,350.088z"/>
	<path fill="#7A6EA6" d="M268.154,348.671c-1.854-1.069-4.219-0.434-5.288,1.417l-7.846,13.59c-1.069,1.852-0.436,4.219,1.417,5.288
		c0.608,0.352,1.274,0.519,1.93,0.519c1.339,0,2.639-0.694,3.356-1.936l7.846-13.591
		C270.639,352.106,270.004,349.74,268.154,348.671z"/>
	<path fill="#7A6EA6" d="M305.712,350.088c-1.067-1.851-3.434-2.483-5.286-1.417c-1.852,1.069-2.485,3.436-1.417,5.287l7.877,13.642
		c0.716,1.24,2.016,1.936,3.354,1.936c0.657,0,1.321-0.168,1.932-0.52c1.851-1.068,2.486-3.436,1.415-5.288L305.712,350.088z"/>
	<path fill="#7A6EA6" d="M284.297,349.013c-2.137,0-3.87,1.733-3.87,3.869v19.704c0,2.139,1.733,3.872,3.87,3.872
		c2.139,0,3.871-1.733,3.871-3.872v-19.704C288.168,350.746,286.436,349.013,284.297,349.013z"/>
</g>
</svg>
