<svg xmlns="http://www.w3.org/2000/svg" width="288" height="288"><radialGradient id="a" cx="60.8" cy="3602.934" r="84.008" gradientTransform="matrix(1.4609 0 0 .1 56.623 -135.23)" gradientUnits="userSpaceOnUse"><stop offset="0" stop-color="#787878"/><stop offset=".067" stop-color="#8f8f8f"/><stop offset=".184" stop-color="#b2b2b2"/><stop offset=".309" stop-color="#cecece"/><stop offset=".443" stop-color="#e4e4e4"/><stop offset=".589" stop-color="#f3f3f3"/><stop offset=".757" stop-color="#fcfcfc"/><stop offset="1" stop-color="#fff"/></radialGradient><ellipse opacity=".25" fill="url(#a)" cx="145.446" cy="225.065" rx="122.721" ry="8.4"/><path fill="#DBDBDB" d="M144.779 42.397s-21.892 115.557-90.161 175.425c0 0 78.827-22.68 164.215-4.752 0 0-25.864-18.742-45.245-20.757-19.381-2.016-23.543-5.462-33.202-6.026-9.659-.564 9.643-45.036 9.527-59.278-.115-14.242-5.134-84.612-5.134-84.612z"/><path fill="#F0F0F0" d="M140.387 186.287c-9.659-.564 9.643-45.036 9.527-59.278-.116-14.242-5.135-84.611-5.135-84.611s-21.892 115.557-90.161 175.425c0 0 41.913-13.204 86.237-31.503-.155-.011-.309-.023-.468-.033z"/><linearGradient id="b" gradientUnits="userSpaceOnUse" x1="165.027" y1="-546.12" x2="389.127" y2="-295.001" gradientTransform="rotate(22.521 -1009.5 -486.241)"><stop offset="0" stop-color="#ff1919"/><stop offset=".301" stop-color="#ffb41e"/><stop offset=".679" stop-color="#710fff"/><stop offset="1" stop-color="#ea00ca"/></linearGradient><path fill="url(#b)" d="M218.834 213.07a341.325 341.325 0 0 0-33.923-7.795c-2.537-12.055-5.383-23.24-8.424-33.603-3.823-13.019-7.947-24.733-12.161-35.212-7.672-19.07-15.639-34.065-22.629-45.36 1.23-7.8 2.021-14.853 2.514-21.083.859-10.887.891-20.156.57-27.619 4.636 4.856 16.527 18.398 29.937 42.239-.004.007-.004.007.004.01 12.37 21.991 26.045 52.764 36.514 93.571a499.664 499.664 0 0 1 7.598 34.852z"/><path opacity=".33" d="M166.23 141.31c5.916-10.503 12.735-29.004 16.826-40.801a320.672 320.672 0 0 0-8.334-15.861c-.008-.003-.008-.003-.004-.01a299.46 299.46 0 0 0-2.671-4.647c-4.874 10.144-14.583 30.365-14.812 30.914-.077.187-.409 3.31-.705 7.688a332.362 332.362 0 0 1 9.7 22.717z"/><linearGradient id="c" gradientUnits="userSpaceOnUse" x1="153.484" y1="-803.236" x2="665.771" y2="-641.127" gradientTransform="rotate(40.527 -1021.034 -493.669)"><stop offset="0" stop-color="#ff1919"/><stop offset=".301" stop-color="#ffb41e"/><stop offset=".679" stop-color="#710fff"/><stop offset="1" stop-color="#ea00ca"/></linearGradient><path fill="url(#c)" d="M140.784 200.303c-13.83-.698-25.8-.467-35.245.053a437.678 437.678 0 0 0 14.511-32.371c12.016-30.051 18.374-56.114 21.647-76.88a273.223 273.223 0 0 0 2.515-21.09c.856-10.883.887-20.151.567-27.617 4.641 4.856 16.533 18.399 29.941 42.24-.005.006-.005.006.001.011-1.831 15.214-5.044 32.571-10.397 51.81-2.886 10.371-6.395 21.286-10.636 32.704a454.313 454.313 0 0 1-12.904 31.14z"/><path opacity=".33" fill="#B23100" d="M150.229 178.11l.034-.027a440.322 440.322 0 0 0 3.425-8.921c.196-.527.383-1.049.576-1.575-7.21-2.363-19.329-6.097-30.778-8.524a406.073 406.073 0 0 1-3.437 8.922 429.388 429.388 0 0 1-3.039 7.393l33.219 2.732z"/><linearGradient id="d" gradientUnits="userSpaceOnUse" x1="155.009" y1="-246.286" x2="288.184" y2="-297.128" gradientTransform="rotate(22.521 -1009.5 -486.241)"><stop offset="0" stop-color="#ff1919"/><stop offset=".301" stop-color="#ffb41e"/><stop offset=".679" stop-color="#710fff"/><stop offset="1" stop-color="#ea00ca"/></linearGradient><path fill="url(#d)" d="M184.911 205.275a352.448 352.448 0 0 0-44.125-4.973c-13.836-.696-25.802-.471-35.249.051a436.435 436.435 0 0 0 14.514-32.366c9.914-.112 21.232.185 33.639 1.175a383.33 383.33 0 0 1 22.797 2.511c3.041 10.362 5.887 21.548 8.424 33.602z"/><path opacity=".33" d="M167.124 170.485c3.908 6.424 13.223 22.327 17.562 34.752.076.014.149.024.225.038-2.537-12.055-5.383-23.24-8.424-33.603-3.178-.445-6.29-.832-9.363-1.187z"/></svg>