<?xml version="1.0" encoding="utf-8"?>
<!-- Generator: Adobe Illustrator 16.0.0, SVG Export Plug-In . SVG Version: 6.00 Build 0)  -->
<!DOCTYPE svg PUBLIC "-//W3C//DTD SVG 1.1//EN" "http://www.w3.org/Graphics/SVG/1.1/DTD/svg11.dtd">
<svg version="1.1" id="Layer_1" xmlns="http://www.w3.org/2000/svg" xmlns:xlink="http://www.w3.org/1999/xlink" x="0px" y="0px"
	 width="400px" height="400px" viewBox="0 0 400 400" enable-background="new 0 0 400 400" xml:space="preserve">
<g>
	<g>
		<path fill="#7A6EA6" d="M178.337,256.953h6.048c1.776,0,3.215-1.439,3.215-3.214c0-1.776-1.439-3.217-3.215-3.217h-2.833v-12.842
			c0-1.776-1.439-3.216-3.215-3.216s-3.215,1.439-3.215,3.216v16.059C175.122,255.514,176.561,256.953,178.337,256.953z"/>
		<path fill="#7A6EA6" d="M229.663,202.934c1.776,0,3.216-1.439,3.216-3.215v-35.096c0-1.775-1.439-3.215-3.216-3.215
			s-3.215,1.44-3.215,3.215v35.096C226.448,201.494,227.887,202.934,229.663,202.934z"/>
		<path fill="#7A6EA6" d="M229.663,155.154c1.776,0,3.216-1.439,3.216-3.215v-5.699c0-1.775-1.439-3.215-3.216-3.215
			s-3.215,1.439-3.215,3.215v5.699C226.448,153.714,227.887,155.154,229.663,155.154z"/>
		<path fill="#7A6EA6" d="M197.325,54.234c0.277,0,0.559-0.036,0.84-0.112c1.893-0.51,3.856-0.769,5.835-0.769
			c1.776,0,3.215-1.439,3.215-3.215c0-1.775-1.438-3.215-3.215-3.215c-2.544,0-5.071,0.333-7.509,0.991
			c-1.715,0.462-2.73,2.227-2.267,3.941C194.61,53.29,195.908,54.234,197.325,54.234z"/>
		<path fill="#7A6EA6" d="M178.337,81.172c1.776,0,3.215-1.44,3.215-3.215v-2.155c0-6.158,2.455-11.907,6.913-16.187
			c1.28-1.23,1.321-3.266,0.092-4.546c-1.229-1.283-3.266-1.322-4.546-0.093c-5.733,5.505-8.889,12.901-8.889,20.826v2.155
			C175.122,79.732,176.561,81.172,178.337,81.172z"/>
		<path fill="#7A6EA6" d="M128.343,187.225c0.385,0.151,0.78,0.222,1.17,0.222c1.285,0,2.499-0.776,2.995-2.046
			c2.562-6.551,5.465-13.055,8.631-19.332c0.799-1.585,0.162-3.519-1.423-4.318c-1.58-0.797-3.519-0.163-4.319,1.423
			c-3.255,6.456-6.242,13.146-8.877,19.885C125.872,184.714,126.688,186.579,128.343,187.225z"/>
		<path fill="#7A6EA6" d="M130.747,250.522h-13.038c0.56-7.529,1.506-15.085,2.821-22.508c0.311-1.748-0.857-3.418-2.604-3.728
			c-1.756-0.312-3.418,0.856-3.728,2.605c-1.555,8.788-2.611,17.756-3.136,26.657c-0.052,0.884,0.263,1.75,0.871,2.395
			s1.454,1.009,2.339,1.009h16.476c1.775,0,3.215-1.439,3.215-3.214C133.962,251.963,132.522,250.522,130.747,250.522z"/>
		<path fill="#7A6EA6" d="M145.15,250.522h-2.069c-1.776,0-3.215,1.44-3.215,3.217c0,1.774,1.439,3.214,3.215,3.214h2.069
			c1.776,0,3.215-1.439,3.215-3.214C148.365,251.963,146.926,250.522,145.15,250.522z"/>
		<path fill="#7A6EA6" d="M205.375,135.261c10.525,0,19.089-8.563,19.089-19.089s-8.563-19.089-19.089-19.089
			c-10.526,0-19.089,8.564-19.089,19.089S194.849,135.261,205.375,135.261z M205.375,105.656c5.798,0,10.516,4.718,10.516,10.516
			s-4.718,10.515-10.516,10.515c-5.798,0-10.515-4.717-10.515-10.515S199.577,105.656,205.375,105.656z"/>
		<path fill="#7A6EA6" d="M278.133,192.51c0.467,1.321,1.707,2.148,3.033,2.148c0.354,0,0.714-0.06,1.068-0.185
			c1.675-0.589,2.555-2.426,1.964-4.101c-0.865-2.453-1.778-4.913-2.717-7.312c-0.646-1.652-2.512-2.469-4.167-1.823
			c-1.652,0.648-2.469,2.512-1.822,4.166C276.404,187.734,277.294,190.126,278.133,192.51z"/>
		<path fill="#7A6EA6" d="M281.816,203.919c3.574,12.172,6.127,24.728,7.591,37.316c0.191,1.637,1.58,2.844,3.189,2.844
			c0.124,0,0.25-0.007,0.376-0.022c1.764-0.204,3.026-1.8,2.821-3.564c-1.505-12.949-4.132-25.865-7.808-38.385
			c-0.501-1.703-2.291-2.683-3.991-2.179C282.292,200.429,281.315,202.216,281.816,203.919z"/>
		<path fill="#7A6EA6" d="M311.779,283.042v-15.934c0-43.758-11.746-86.812-33.967-124.509l-30.493-51.726V75.801
			c0-23.887-19.433-43.32-43.319-43.32s-43.32,19.434-43.32,43.32v15.072l-30.493,51.726
			c-22.22,37.697-33.967,80.751-33.967,124.509v15.934c0,1.946,1.306,3.572,3.084,4.095l-2.836,7.621
			c-0.489,1.315-0.303,2.788,0.498,3.941c0.802,1.153,2.116,1.84,3.521,1.84H123.8c1.402,0,2.715-0.686,3.517-1.835
			c0.802-1.15,0.99-2.62,0.506-3.935l-2.744-7.44h8.852l-2.764,7.429c-0.489,1.315-0.303,2.788,0.497,3.941
			c0.802,1.153,2.117,1.84,3.521,1.84h23.315c1.402,0,2.714-0.686,3.516-1.835c0.802-1.151,0.99-2.62,0.506-3.935l-2.813-7.628
			c1.785-0.518,3.098-2.147,3.098-4.1v-11.646h2.161h1.522v11.646c0,2.367,1.918,4.287,4.287,4.287h2.2l-5.803,8.994
			c-0.852,1.318-0.913,2.996-0.162,4.375c0.75,1.378,2.194,2.235,3.765,2.235h66.448c1.569,0,3.013-0.857,3.764-2.235
			c0.751-1.379,0.689-3.057-0.162-4.375l-5.803-8.994h2.201c2.367,0,4.286-1.92,4.286-4.287v-11.646h1.521h2.16v11.646
			c0,1.95,1.31,3.577,3.093,4.098l-2.826,7.623c-0.488,1.316-0.301,2.788,0.501,3.938c0.802,1.151,2.116,1.838,3.519,1.838h23.316
			c1.401,0,2.717-0.687,3.519-1.838c0.802-1.15,0.988-2.622,0.501-3.938l-2.754-7.434h8.852l-2.754,7.434
			c-0.487,1.316-0.301,2.788,0.501,3.938c0.802,1.151,2.115,1.838,3.519,1.838h23.314c1.403,0,2.717-0.687,3.519-1.838
			c0.802-1.15,0.99-2.622,0.503-3.938l-2.826-7.623C310.47,286.619,311.779,284.992,311.779,283.042z M270.426,146.953
			c20.719,35.147,32,75.121,32.74,115.868h-53.688h-2.159V107.757L270.426,146.953z M169.254,75.801
			c0-19.159,15.586-34.746,34.746-34.746c19.158,0,34.747,15.587,34.747,34.746v16.242v170.778h-1.522h-21.182V161.088
			c0-2.368-1.92-4.287-4.287-4.287h-12.759c-2.368,0-4.287,1.919-4.287,4.287v101.733h-23.933h-1.522V92.043V75.801z
			 M207.469,262.821h-4.186v-97.447h4.186V262.821z M137.574,146.953l23.106-39.196v155.064h-2.161h-53.686
			C105.574,222.074,116.855,182.1,137.574,146.953z M117.65,291.965h-10.994l1.726-4.636h7.558L117.65,291.965z M141.354,291.965
			l1.725-4.636h7.559l1.71,4.636H141.354z M154.233,278.755h-0.608H140.1h-21.172h-13.526h-0.607v-7.359h49.439V278.755z
			 M229.355,294.359h-50.711l4.537-7.03h41.637L229.355,294.359z M232.937,278.755h-5.781h-46.31h-5.782v-7.359h23.933h12.759
			h21.181V278.755z M303.205,271.396v7.359h-0.607h-13.525H267.9h-13.526h-0.608v-7.359H303.205z M266.634,291.965h-10.995
			l1.719-4.636h7.559L266.634,291.965z M290.337,291.965l1.719-4.636h7.56l1.717,4.636H290.337z"/>
		<path fill="#7A6EA6" d="M178.337,226.094c1.776,0,3.215-1.44,3.215-3.217v-1.312c0-1.776-1.439-3.216-3.215-3.216
			s-3.215,1.439-3.215,3.216v1.312C175.122,224.653,176.561,226.094,178.337,226.094z"/>
	</g>
	<g>
		<path fill="#7A6EA6" d="M104.794,296.252c0-2.367-1.919-4.287-4.287-4.287c-2.367,0-4.287,1.92-4.287,4.287v27.081
			c0,16.379-12.415,29.906-28.327,31.686c-2.557-10.255-11.819-17.885-22.854-17.885c-0.59,0-1.18,0.03-1.768,0.074
			c-4.549-13.522-17.126-22.71-31.687-22.71c-2.367,0-4.287,1.92-4.287,4.287c0,2.368,1.92,4.287,4.287,4.287
			c11.681,0,21.658,7.938,24.261,19.304c0.001,0.003,0.002,0.005,0.003,0.008c0.415,1.816,0.626,3.693,0.626,5.58
			c0,5.785-1.926,11.211-5.566,15.69c-1.495,1.837-1.215,4.537,0.622,6.03c0.794,0.646,1.75,0.962,2.703,0.962
			c1.245,0,2.481-0.54,3.328-1.584c4.828-5.938,7.487-13.432,7.487-21.099c0-0.752-0.033-1.503-0.083-2.251
			c0.024,0,0.049-0.005,0.073-0.005c8.274,0,15.005,6.731,15.005,15.005c0,2.852-0.802,5.625-2.32,8.02
			c-1.267,2-0.672,4.649,1.327,5.916c0.711,0.45,1.505,0.667,2.29,0.667c1.42,0,2.81-0.706,3.626-1.993
			c1.873-2.956,3.042-6.277,3.464-9.733c20.394-2.062,36.363-19.328,36.363-40.256V296.252z"/>
		<path fill="#7A6EA6" d="M170.776,326.55c-2.369,0-4.287,1.92-4.287,4.286v4.019c0,2.369,1.918,4.287,4.287,4.287
			c2.367,0,4.287-1.918,4.287-4.287v-4.019C175.063,328.47,173.144,326.55,170.776,326.55z"/>
		<path fill="#7A6EA6" d="M170.776,294.592c-2.369,0-4.287,1.92-4.287,4.287v19.008c0,2.367,1.918,4.287,4.287,4.287
			c2.367,0,4.287-1.92,4.287-4.287v-19.008C175.063,296.512,173.144,294.592,170.776,294.592z"/>
		<path fill="#7A6EA6" d="M237.225,332.123c-2.368,0-4.288,1.92-4.288,4.285v6.732c0,2.365,1.92,4.286,4.288,4.286
			c2.367,0,4.286-1.921,4.286-4.286v-6.732C241.511,334.043,239.592,332.123,237.225,332.123z"/>
		<path fill="#7A6EA6" d="M237.225,294.359c-2.368,0-4.288,1.92-4.288,4.287v23.832c0,2.367,1.92,4.287,4.288,4.287
			c2.367,0,4.286-1.92,4.286-4.287v-23.832C241.511,296.279,239.592,294.359,237.225,294.359z"/>
		<path fill="#7A6EA6" d="M217.396,344.776c-1.776,0-3.215,1.44-3.215,3.217v2.812c0,1.775,1.438,3.216,3.215,3.216
			s3.215-1.44,3.215-3.216v-2.812C220.611,346.217,219.173,344.776,217.396,344.776z"/>
		<path fill="#7A6EA6" d="M217.396,313.651c-1.776,0-3.215,1.44-3.215,3.216v16.97c0,1.776,1.438,3.215,3.215,3.215
			s3.215-1.438,3.215-3.215v-16.97C220.611,315.092,219.173,313.651,217.396,313.651z"/>
		<path fill="#7A6EA6" d="M190.604,357.986c-1.776,0-3.215,1.439-3.215,3.217v4.848c0,1.776,1.439,3.217,3.215,3.217
			s3.215-1.44,3.215-3.217v-4.848C193.819,359.426,192.38,357.986,190.604,357.986z"/>
		<path fill="#7A6EA6" d="M190.604,328.898c-1.776,0-3.215,1.439-3.215,3.215v18.604c0,1.775,1.439,3.215,3.215,3.215
			s3.215-1.439,3.215-3.215v-18.604C193.819,330.338,192.38,328.898,190.604,328.898z"/>
		<path fill="#7A6EA6" d="M131.428,366.34c-1.393-1.099-3.416-0.859-4.515,0.533c-1.027,1.302-2.108,2.579-3.214,3.799
			c-1.193,1.317-1.094,3.35,0.221,4.542c0.615,0.559,1.389,0.835,2.159,0.835c0.876,0,1.748-0.356,2.381-1.057
			c1.207-1.328,2.384-2.72,3.501-4.137C133.062,369.462,132.821,367.44,131.428,366.34z"/>
		<path fill="#7A6EA6" d="M145.466,306.507c-1.776,0-3.215,1.439-3.215,3.216v12.935c0,10.649-2.293,20.902-6.819,30.474
			c-0.758,1.604-0.072,3.521,1.533,4.279c0.444,0.211,0.912,0.31,1.373,0.31c1.204,0,2.36-0.68,2.908-1.842
			c4.935-10.436,7.436-21.612,7.436-33.221v-12.935C148.681,307.946,147.243,306.507,145.466,306.507z"/>
		<path fill="#7A6EA6" d="M84.229,364.405c-2.643,1.2-5.416,2.15-8.24,2.825c-1.728,0.413-2.792,2.148-2.38,3.875
			c0.353,1.476,1.67,2.47,3.124,2.47c0.248,0,0.5-0.03,0.751-0.089c3.225-0.771,6.388-1.856,9.404-3.227
			c1.618-0.734,2.333-2.641,1.599-4.257C87.753,364.386,85.847,363.673,84.229,364.405z"/>
		<path fill="#7A6EA6" d="M114.386,306.507c-1.776,0-3.215,1.439-3.215,3.216v12.935c0,11.451-4.267,22.424-12.012,30.894
			c-1.199,1.312-1.107,3.345,0.202,4.543c0.617,0.564,1.394,0.842,2.168,0.842c0.872,0,1.74-0.352,2.375-1.044
			c8.833-9.659,13.697-22.172,13.697-35.234v-12.935C117.601,307.946,116.161,306.507,114.386,306.507z"/>
		<path fill="#7A6EA6" d="M281.087,367.506c-1.099-1.396-3.122-1.634-4.515-0.533c-1.394,1.099-1.634,3.119-0.534,4.515
			c1.122,1.421,2.299,2.813,3.5,4.138c0.635,0.699,1.506,1.055,2.383,1.055c0.77,0,1.544-0.274,2.158-0.833
			c1.316-1.193,1.414-3.227,0.222-4.542C283.198,370.09,282.117,368.811,281.087,367.506z"/>
		<path fill="#7A6EA6" d="M265.749,323.289v-12.936c0-1.775-1.438-3.215-3.215-3.215s-3.216,1.439-3.216,3.215v12.936
			c0,11.608,2.502,22.786,7.437,33.222c0.548,1.161,1.704,1.842,2.908,1.842c0.461,0,0.929-0.1,1.373-0.31
			c1.604-0.759,2.29-2.675,1.531-4.281C268.043,344.191,265.749,333.938,265.749,323.289z"/>
		<path fill="#7A6EA6" d="M332.011,367.863c-2.824-0.675-5.597-1.625-8.24-2.827c-1.615-0.731-3.522-0.018-4.258,1.598
			c-0.734,1.618-0.019,3.522,1.598,4.258c3.019,1.371,6.184,2.457,9.407,3.226c0.251,0.06,0.501,0.089,0.749,0.089
			c1.455,0,2.771-0.992,3.124-2.471C334.803,370.009,333.737,368.275,332.011,367.863z"/>
		<path fill="#7A6EA6" d="M296.829,323.289v-12.935c0-1.776-1.438-3.216-3.215-3.216s-3.216,1.439-3.216,3.216v12.935
			c0,13.062,4.865,25.576,13.697,35.233c0.635,0.694,1.503,1.046,2.375,1.046c0.774,0,1.551-0.278,2.168-0.843
			c1.311-1.199,1.401-3.231,0.203-4.542C301.097,345.713,296.829,334.741,296.829,323.289z"/>
		<path fill="#7A6EA6" d="M396.415,314.498c-14.561,0-27.138,9.188-31.687,22.71c-0.589-0.044-1.179-0.074-1.771-0.074
			c-11.034,0-20.296,7.63-22.853,17.885c-15.913-1.779-28.326-15.307-28.326-31.686v-27.081c0-2.367-1.919-4.287-4.287-4.287
			c-2.367,0-4.287,1.92-4.287,4.287v27.081c0,20.928,15.969,38.194,36.361,40.256c0.423,3.455,1.592,6.775,3.466,9.732
			c0.816,1.288,2.206,1.994,3.626,1.994c0.783,0,1.578-0.217,2.29-0.667c1.999-1.267,2.594-3.915,1.326-5.916
			c-1.517-2.395-2.32-5.168-2.32-8.02c0-8.273,6.73-15.005,15.004-15.005c0.026,0,0.05,0.005,0.075,0.005
			c-0.05,0.748-0.083,1.499-0.083,2.251c0,7.667,2.658,15.16,7.487,21.099c0.849,1.044,2.084,1.584,3.328,1.584
			c0.951,0,1.909-0.315,2.703-0.962c1.836-1.493,2.114-4.193,0.621-6.03c-3.642-4.48-5.567-9.905-5.567-15.69
			c0-1.885,0.212-3.761,0.628-5.58c0.001-0.003,0.002-0.005,0.002-0.008c2.605-11.365,12.582-19.304,24.263-19.304
			c2.367,0,4.287-1.919,4.287-4.287C400.702,316.418,398.782,314.498,396.415,314.498z"/>
	</g>
</g>
</svg>
