<?xml version="1.0" encoding="utf-8"?>
<!-- Generator: Adobe Illustrator 16.0.0, SVG Export Plug-In . SVG Version: 6.00 Build 0)  -->
<!DOCTYPE svg PUBLIC "-//W3C//DTD SVG 1.1//EN" "http://www.w3.org/Graphics/SVG/1.1/DTD/svg11.dtd">
<svg version="1.1" id="_x31_" xmlns="http://www.w3.org/2000/svg" xmlns:xlink="http://www.w3.org/1999/xlink" x="0px" y="0px"
	 width="3257.349px" height="2417.516px" viewBox="0 0 3257.349 2417.516" enable-background="new 0 0 3257.349 2417.516"
	 xml:space="preserve">
<g id="website_2_">
	<path fill="#626F84" d="M3115.063,2205.958h-1782.84c-33.19,0-60.096-26.904-60.096-60.096V463.183
		c0-33.19,26.906-60.096,60.096-60.096h1782.84c33.189,0,60.096,26.906,60.096,60.096v1682.68
		C3175.159,2179.054,3148.253,2205.958,3115.063,2205.958z"/>
	<rect x="1392.319" y="751.439" fill="#D5EAF7" width="1662.648" height="636.171"/>
	<rect x="1634.583" y="841.786" fill="#FFFFFF" width="309.179" height="307.232"/>
	<path fill="#545F75" d="M3175.159,543.311H1272.128v-80.127c0-33.19,26.906-60.096,60.096-60.096h1782.84
		c33.19,0,60.096,26.906,60.096,60.096V543.311z"/>
	<circle fill="#979CA5" cx="1382.304" cy="473.199" r="30.048"/>
	<circle fill="#979CA5" cx="1482.463" cy="473.199" r="30.048"/>
	<circle fill="#979CA5" cx="1582.622" cy="473.199" r="30.048"/>
	<rect x="2072.695" y="841.786" fill="#545F75" width="329.873" height="40.064"/>
	<rect x="2027.992" y="1498.261" fill="#ACB3B7" width="391.303" height="40.064"/>
	<rect x="2072.695" y="941.945" fill="#FFFFFF" width="743.173" height="20.032"/>
	<rect x="1871.347" y="648.812" fill="#E1E6EA" width="116.053" height="20.032"/>
	<rect x="2067.527" y="648.812" fill="#E1E6EA" width="116.053" height="20.032"/>
	<rect x="2263.708" y="648.812" fill="#E1E6EA" width="116.052" height="20.032"/>
	<rect x="2459.888" y="648.812" fill="#E1E6EA" width="116.053" height="20.032"/>
	<rect x="1392.319" y="624.773" fill="#ACB3B7" width="100.553" height="15.083"/>
	<rect x="1392.319" y="659.967" fill="#ACB3B7" width="100.553" height="15.083"/>
	<rect x="1392.319" y="695.16" fill="#ACB3B7" width="100.553" height="15.083"/>
	<rect x="2072.695" y="1002.041" fill="#FFFFFF" width="743.173" height="20.032"/>
	<rect x="2072.695" y="1062.137" fill="#FFFFFF" width="635" height="20.032"/>
	<rect x="2072.695" y="1122.232" fill="#FFFFFF" width="450.706" height="20.031"/>
	<rect x="1633.709" y="1189.082" fill="#BFDCE8" width="310.485" height="20.032"/>
	<rect x="1633.709" y="1249.178" fill="#BFDCE8" width="270.421" height="20.032"/>
	<rect x="2058.791" y="1921.404" fill="#E1E6EA" width="329.705" height="20.031"/>
	<path fill="#FF8C71" d="M2358.567,1201.502H2088.72c-8.851,0-16.024,7.175-16.024,16.026v48.077c0,8.85,7.174,16.025,16.024,16.025
		h269.848c8.851,0,16.025-7.175,16.025-16.025v-48.077C2374.593,1208.677,2367.418,1201.502,2358.567,1201.502z"/>
	<path fill="#ACB3B7" d="M2312.579,2039.187h-177.87c-6.638,0-12.02,5.383-12.02,12.02v31.346c0,6.639,5.382,12.02,12.02,12.02
		h177.87c6.639,0,12.019-5.381,12.019-12.02v-31.346C2324.598,2044.57,2319.218,2039.187,2312.579,2039.187z"/>
	<path fill="#ACB3B7" d="M1827.808,2039.187h-177.871c-6.638,0-12.02,5.383-12.02,12.02v31.346c0,6.639,5.382,12.02,12.02,12.02
		h177.871c6.638,0,12.018-5.381,12.018-12.02v-31.346C1839.825,2044.57,1834.445,2039.187,1827.808,2039.187z"/>
	<path fill="#ACB3B7" d="M2797.351,2039.187h-177.871c-6.638,0-12.018,5.383-12.018,12.02v31.346c0,6.639,5.38,12.02,12.018,12.02
		h177.871c6.639,0,12.02-5.381,12.02-12.02v-31.346C2809.37,2044.57,2803.989,2039.187,2797.351,2039.187z"/>
	<circle fill="#FFDF7B" cx="2223.644" cy="1767.16" r="120.191"/>
	<rect x="2543.563" y="1921.404" fill="#E1E6EA" width="329.704" height="20.031"/>
	<circle fill="#FF8C71" cx="2708.415" cy="1767.16" r="120.191"/>
	<rect x="1574.02" y="1921.404" fill="#E1E6EA" width="329.704" height="20.031"/>
	<rect x="2100.005" y="1971.484" fill="#E1E6EA" width="247.277" height="20.033"/>
	<rect x="2584.776" y="1971.484" fill="#E1E6EA" width="247.279" height="20.033"/>
	<rect x="1615.232" y="1971.484" fill="#E1E6EA" width="247.278" height="20.033"/>
	<circle fill="#545F75" cx="1738.872" cy="1767.16" r="120.192"/>
	
		<rect x="1779.156" y="777.466" transform="matrix(0.7049 0.7093 -0.7093 0.7049 1234.1389 -975.3595)" fill="#D5EAF7" width="20.032" height="435.871"/>
	
		<rect x="1571.237" y="985.386" transform="matrix(0.7093 0.7049 -0.7049 0.7093 1221.6747 -971.8066)" fill="#D5EAF7" width="435.871" height="20.032"/>
</g>
<g id="website_3_">
	<path fill="#FFFFFF" d="M2383.229,2323.82h-2225c-41.421,0-75-33.578-75-75v-2100c0-41.421,33.579-75,75-75h2225
		c41.421,0,75,33.579,75,75v2100C2458.229,2290.242,2424.65,2323.82,2383.229,2323.82z"/>
	<rect x="233.229" y="508.565" fill="#D5EAF7" width="2075" height="793.949"/>
	<rect x="535.577" y="621.32" fill="#FFFFFF" width="385.858" height="383.429"/>
	<path fill="#545F75" d="M2458.229,248.82h-2375v-100c0-41.421,33.579-75,75-75h2225c41.422,0,75,33.579,75,75V248.82z"/>
	<circle fill="#979CA5" cx="220.729" cy="161.32" r="37.5"/>
	<circle fill="#979CA5" cx="345.729" cy="161.32" r="37.5"/>
	<circle fill="#979CA5" cx="470.729" cy="161.32" r="37.5"/>
	<rect x="1082.344" y="621.32" fill="#545F75" width="411.687" height="50"/>
	<rect x="1026.555" y="1440.607" fill="#ACB3B7" width="488.35" height="50"/>
	<rect x="1082.344" y="746.32" fill="#FFFFFF" width="927.487" height="25"/>
	<rect x="831.061" y="380.487" fill="#E1E6EA" width="144.834" height="25"/>
	<rect x="1075.895" y="380.487" fill="#E1E6EA" width="144.834" height="25"/>
	<rect x="1320.729" y="380.487" fill="#E1E6EA" width="144.834" height="25"/>
	<rect x="1565.563" y="380.487" fill="#E1E6EA" width="144.835" height="25"/>
	<rect x="233.229" y="350.487" fill="#ACB3B7" width="125.49" height="18.824"/>
	<rect x="233.229" y="394.409" fill="#ACB3B7" width="125.49" height="18.823"/>
	<rect x="233.229" y="438.33" fill="#ACB3B7" width="125.49" height="18.823"/>
	<rect x="1082.344" y="821.32" fill="#FFFFFF" width="927.487" height="25"/>
	<rect x="1082.344" y="896.32" fill="#FFFFFF" width="792.487" height="25"/>
	<rect x="1082.344" y="971.32" fill="#FFFFFF" width="562.487" height="25"/>
	<rect x="534.486" y="1054.749" fill="#BFDCE8" width="387.487" height="25"/>
	<rect x="534.486" y="1129.749" fill="#BFDCE8" width="337.487" height="25"/>
	<rect x="1064.992" y="1968.693" fill="#E1E6EA" width="411.475" height="25"/>
	<path fill="#FF8C71" d="M1439.115,1070.249h-336.771c-11.045,0-20,8.954-20,20v60c0,11.045,8.955,20,20,20h336.771
		c11.046,0,20-8.955,20-20v-60C1459.115,1079.203,1450.161,1070.249,1439.115,1070.249z"/>
	<path fill="#ACB3B7" d="M1381.722,2115.689h-221.984c-8.284,0-15,6.715-15,15v39.119c0,8.285,6.716,15,15,15h221.984
		c8.284,0,15-6.715,15-15v-39.119C1396.722,2122.404,1390.006,2115.689,1381.722,2115.689z"/>
	<path fill="#ACB3B7" d="M776.722,2115.689H554.737c-8.284,0-15,6.715-15,15v39.119c0,8.285,6.716,15,15,15h221.984
		c8.284,0,15-6.715,15-15v-39.119C791.722,2122.404,785.006,2115.689,776.722,2115.689z"/>
	<path fill="#ACB3B7" d="M1986.722,2115.689h-221.984c-8.284,0-15,6.715-15,15v39.119c0,8.285,6.716,15,15,15h221.984
		c8.284,0,15-6.715,15-15v-39.119C2001.722,2122.404,1995.006,2115.689,1986.722,2115.689z"/>
	<circle fill="#FFDF7B" cx="1270.729" cy="1776.193" r="150"/>
	<rect x="1669.992" y="1968.693" fill="#E1E6EA" width="411.475" height="25"/>
	<circle fill="#FF8C71" cx="1875.729" cy="1776.193" r="150"/>
	<rect x="459.992" y="1968.693" fill="#E1E6EA" width="411.475" height="25"/>
	<rect x="1116.427" y="2031.193" fill="#E1E6EA" width="308.605" height="25"/>
	<rect x="1721.427" y="2031.193" fill="#E1E6EA" width="308.605" height="25"/>
	<rect x="511.427" y="2031.193" fill="#E1E6EA" width="308.605" height="25"/>
	<circle fill="#545F75" cx="665.729" cy="1776.193" r="150"/>
	
		<rect x="716.005" y="541.049" transform="matrix(0.7049 0.7093 -0.7093 0.7049 791.7383 -276.8035)" fill="#D5EAF7" width="25.001" height="543.971"/>
	
		<rect x="456.52" y="800.534" transform="matrix(0.7093 0.7049 -0.7049 0.7093 784.8305 -277.1824)" fill="#D5EAF7" width="543.971" height="25.001"/>
</g>
</svg>
