<svg xmlns="http://www.w3.org/2000/svg" width="612" height="1008"><path fill-rule="evenodd" clip-rule="evenodd" fill="#1582B6" d="M301.701 314.523s-36.721-58.951-38.896-66.925c-2.173-8.215 14.735-8.456 35.755-2.655 21.019 5.56 21.986-21.015 37.449-17.636 15.459 3.379 16.666 18.36 37.445 16.43 21.016-1.939 40.104-1.448 37.686 11.594-2.414 13.283-40.828 47.831-38.893 61.847 1.932 13.767 70.541 36.721 95.908 138.668 25.365 101.956 10.387 142.297-35.031 152.684-45.418 10.629-191.822 12.568-218.638-21.498-26.812-34.065-29.229-80.932 2.418-152.2 31.405-71.27 84.797-120.309 84.797-120.309z"/><path fill-rule="evenodd" clip-rule="evenodd" fill="#0F75A4" d="M341.08 228.997c11.111 5.077 14.254 16.43 32.373 14.74 21.016-1.939 40.104-1.448 37.686 11.594-2.414 13.283-40.828 47.831-38.893 61.847 1.932 13.767 70.541 36.721 95.908 138.668 25.365 101.956 10.387 142.297-35.031 152.684-16.424 3.871-46.141 6.525-78.754 6.767 33.578-10.146 53.633-17.395 74.646-57.744 21.02-40.1-7.248-152.675-46.383-187.465-39.379-35.031-37.203-71.27-34.549-99.292 2.661-28.025-7.003-41.799-7.003-41.799zM269.571 241.314c6.521-.965 17.148.25 28.988 3.629 2.177.483 3.866.725 5.556.725 25.61 90.354 29.958 55.805 22.954 76.828-7.49 22.464-35.996 47.591-35.996 41.307 0-6.283 22.951-27.781 21.257-47.831-1.689-20.059-42.759-74.658-42.759-74.658z"/><path fill="#08394D" d="M291.796 327.807c-4.349 0-7.973-3.621-7.973-8.215 0-4.345 3.624-7.974 8.214-7.974.242 0 69.576.966 84.552-.482 4.596-.241 8.457 2.904 8.939 7.49.242 4.354-2.896 8.215-7.486 8.698-15.704 1.447-86.004.483-86.246.483z"/><path fill="#08394D" d="M370.311 298.576c4.35-.724 8.457 2.173 9.422 6.525.969 4.345-1.932 8.689-6.279 9.422-.242 0-52.426 10.387-78.036 10.628-4.586.241-8.211-3.388-8.211-7.974 0-4.353 3.384-8.214 7.97-8.214 24.161-.241 74.893-10.146 75.134-10.387z"/><path fill="#08394D" d="M343.254 323.944c-2.174-3.87-.967-8.697 3.141-11.119 3.867-2.172 8.697-.724 10.871 3.146 0 .241 9.42 15.455-5.557 47.349-1.936 4.104-6.762 5.801-10.873 3.862-4.104-1.69-5.797-6.518-3.863-10.629 11.353-24.153 6.281-32.609 6.281-32.609z"/><path fill="#08394D" d="M354.609 329.255c-3.625-2.896-4.107-7.974-1.451-11.594 2.9-3.379 7.973-4.104 11.598-1.207 0 0 32.371 25.368 34.307 61.848.24 4.586-3.143 8.456-7.49 8.697-4.59.241-8.457-3.146-8.697-7.732-1.69-29.239-28.267-50.012-28.267-50.012z"/><path fill-rule="evenodd" clip-rule="evenodd" fill="#A97C50" d="M388.147 690.216s21.743-6.283 47.107-20.773c25.127-14.499 53.149-21.266 69.579-7.732 16.43 13.525-53.633 56.047-67.645 66.192-14.253 10.387-41.311 38.41-58.223 39.858-16.912 1.456-118.618 2.422-139.396 0-21.02-2.414-53.874-33.574-69.334-41.789-15.464-8.215-60.641-3.388-60.641-3.388v-89.871s78.036-6.034 123.937 1.216l46.143 30.678c.001-.001 56.775 29.471 108.473 25.609z"/><path fill-rule="evenodd" clip-rule="evenodd" fill="#8B5E3C" d="M499.037 657.84c1.931.966 4.107 2.414 5.797 3.87 16.43 13.525-53.633 56.047-67.645 66.192-14.253 10.387-41.311 38.41-58.223 39.858-16.912 1.456-118.618 2.422-139.396 0-21.02-2.414-53.874-33.574-69.334-41.789-15.464-8.215-60.641-3.388-60.641-3.388v-6.034c68.614-17.878 83.833 19.085 109.442 32.609 25.364 13.533 91.561 8.938 136.013 4.836 44.694-4.112 113.062-59.917 134.078-72.477 20.538-12.566 10.15-23.436 9.909-23.677z"/><path fill-rule="evenodd" clip-rule="evenodd" fill="#A97C50" d="M233.532 633.929c36.238 5.792 70.062 33.815 90.354 37.203 20.532 3.379 57.74.966 70.786 12.801 13.042 11.835-2.9 18.602-9.904 19.084-7.008.483-53.874 6.525-72.721 3.146-18.603-3.388-44.449-10.154-44.449-10.154l-30.928-4.345-3.138-57.735z"/><path fill-rule="evenodd" clip-rule="evenodd" fill="#8B5E3C" d="M394.672 683.933c13.042 11.835-2.9 18.602-9.904 19.084-7.008.483-53.874 6.525-72.721 3.146-18.603-3.388-44.449-10.154-44.449-10.154l-30.928-4.345c12.81-12.317 46.146 6.767 100.745 8.215 54.839 1.207 57.257-15.946 57.257-15.946z"/><path fill-rule="evenodd" clip-rule="evenodd" fill="#115F85" d="M131.822 616.051h-28.506c-7.486 0-13.529 6.034-13.529 13.283v92.043a13.511 13.511 0 0 0 13.529 13.533h28.506c7.249 0 13.529-6.042 13.529-13.533v-92.043c.001-7.249-6.28-13.283-13.529-13.283z"/><path fill-rule="evenodd" clip-rule="evenodd" fill="#0A6E9D" d="M131.822 616.051h-28.506c-7.486 0-13.529 6.034-13.529 13.283v80.933c0 7.49 6.043 13.524 13.529 13.524h28.506c7.249 0 13.529-6.034 13.529-13.524v-80.933c.001-7.249-6.28-13.283-13.529-13.283z"/><g><path fill-rule="evenodd" clip-rule="evenodd" fill="#FCC326" d="M798.683 215.163s-36.967-58.947-39.139-67.162c-2.176-7.973 14.977-8.215 35.996-2.659 21.02 5.801 21.744-20.774 37.205-17.395 15.701 3.142 16.912 18.36 37.689 16.43 20.773-1.931 39.857-1.448 37.445 11.598-2.414 13.046-40.588 47.832-38.656 61.843 1.936 13.774 70.299 36.721 95.668 138.671 25.367 101.952 10.627 142.052-35.031 152.684-45.418 10.388-191.818 12.322-218.635-21.502-26.816-34.061-29.23-80.932 2.418-152.201 31.649-71.264 85.04-120.307 85.04-120.307z"/><path fill-rule="evenodd" clip-rule="evenodd" fill="#E4A525" d="M838.058 129.641c10.871 5.073 14.012 16.425 32.377 14.736 20.773-1.931 39.857-1.448 37.445 11.598-2.414 13.046-40.588 47.832-38.656 61.843 1.936 13.774 70.299 36.721 95.668 138.671 25.367 101.952 10.627 142.052-35.031 152.684-16.422 3.867-46.143 6.521-78.756 6.764 33.578-10.388 53.629-17.637 74.652-57.736 21.256-40.104-7.008-152.684-46.383-187.715-39.139-34.79-36.967-71.269-34.309-99.292 2.657-27.783-7.007-41.553-7.007-41.553zM766.308 141.721c6.523-.969 17.152.483 29.232 3.621 1.932.724 3.867.965 5.557.965 25.367 90.354 29.713 55.81 22.709 76.587-7.246 22.464-35.996 47.59-35.996 41.552 0-6.284 22.949-27.786 21.26-47.836-1.448-20.049-42.762-74.647-42.762-74.889z"/><path fill="#5E461B" d="M788.774 228.45c-4.59 0-8.211-3.625-8.211-8.215 0-4.349 3.861-7.973 8.211-7.973.242 0 69.82.97 84.557-.483 4.59-.482 8.455 2.901 8.939 7.25.482 4.59-2.896 8.452-7.25 8.935-15.943 1.452-86.246.486-86.246.486z"/><path fill="#5E461B" d="M867.052 199.216c4.348-.724 8.693 1.936 9.422 6.525.965 4.349-1.936 8.456-6.285 9.421 0 0-52.422 10.387-78.031 10.628-4.59 0-8.215-3.625-8.215-7.973 0-4.586 3.625-8.215 7.975-8.215 24.155-.24 74.888-10.386 75.134-10.386z"/><path fill="#5E461B" d="M839.993 224.584c-2.176-3.866-.729-8.939 3.139-11.111 3.865-2.176 8.938-.728 11.115 3.138 0 0 9.18 15.464-5.801 47.349-1.932 4.111-6.764 5.801-10.629 3.87-4.107-1.935-5.797-6.767-4.107-10.632 11.355-24.157 6.283-32.614 6.283-32.614z"/><path fill="#5E461B" d="M851.347 229.657c-3.385-2.659-4.107-7.732-1.207-11.357 2.658-3.379 7.727-4.103 11.355-1.207 0 0 32.369 25.368 34.549 61.848.232 4.59-3.387 8.456-7.736 8.697-4.59.241-8.451-3.383-8.693-7.732-1.452-29.229-28.028-50.008-28.268-50.249z"/><path fill="#FFF" d="M828.638 438.874c-4.35-.246-8.939-.729-13.771-1.211a73.716 73.716 0 0 1-13.529-3.383c-4.107-1.689-7.49-3.379-10.387-5.557-2.658-2.417-4.107-5.072-4.107-8.214 0-1.207.242-2.655.967-3.866.482-1.448 1.207-2.896 2.418-4.104 1.205-.969 2.654-2.176 4.586-2.9 1.693-.724 3.869-.965 6.283-.965 2.172 0 4.107.241 6.283.724 1.932.483 3.861 1.207 6.039 1.931 2.172.729 4.59 1.453 7.004 2.177 2.418.724 5.076.966 8.215 1.207v-28.507c-4.832-1.447-9.664-2.9-14.736-4.835-5.072-1.689-9.422-3.862-13.529-6.521-3.865-2.66-7.008-6.28-9.422-10.387-2.658-4.107-3.865-9.181-3.865-15.461 0-11.115 3.625-19.57 11.115-25.851 7.486-6.042 17.633-9.663 30.438-10.146v-9.667c0-1.207.482-2.414 1.689-3.383.969-.965 2.176-1.448 3.623-1.448 1.453 0 2.66.483 3.867 1.448.965.97 1.447 2.176 1.447 3.383v9.667c3.385.241 7.25.724 11.357 1.207 4.107.482 7.973 1.448 11.598 2.896 3.621 1.211 6.762 2.901 9.18 5.077 2.414 2.172 3.621 4.828 3.621 7.969s-1.449 6.038-4.104 8.215c-2.658 2.417-5.801 3.383-9.908 3.383-1.932 0-3.625-.241-5.072-.482-1.449-.483-2.896-.966-4.35-1.448-1.447-.486-3.141-.97-5.072-1.693-1.932-.482-4.35-.725-7.25-.966v26.575c5.318 1.689 10.393 3.383 15.465 5.072 4.832 1.689 9.422 3.866 13.287 6.279 3.865 2.66 7.004 6.039 9.18 9.909 2.418 3.862 3.625 8.938 3.625 14.978 0 5.797-.965 10.869-3.143 15.218-2.176 4.591-5.072 8.456-8.697 11.599-3.623 3.383-8.215 6.037-13.287 7.969-5.072 1.936-10.387 3.142-16.43 3.625v9.666c0 1.449-.482 2.656-1.447 3.621-1.207.965-2.414 1.448-3.867 1.448-1.447 0-2.654-.483-3.623-1.448-1.207-.965-1.689-2.172-1.689-3.621v-9.179zm22.949-37.207c0-3.384-.965-5.797-2.658-7.246-1.932-1.451-3.621-2.658-5.553-3.383l-4.111-1.452v24.403c3.867-.725 7.008-2.173 9.182-4.107 2.175-2.177 3.14-4.832 3.14-8.215zm-22.949-41.553v-22.709c-3.381.482-6.521 1.448-8.939 3.143-2.414 1.447-3.625 3.861-3.625 7.486 0 3.142.971 5.555 2.9 7.008 1.932 1.447 3.867 2.658 5.557 3.383l4.107 1.689z"/></g><g><path fill-rule="evenodd" clip-rule="evenodd" fill="#E4A525" d="M337.048 76.286c28.756 0 52.763 20.675 57.754 48.011h1.068v10.693c0 32.44-26.382 58.822-58.822 58.822-32.443 0-58.704-26.382-58.704-58.822v-10.693h.949c4.991-27.337 28.996-48.011 57.755-48.011z"/><path fill-rule="evenodd" clip-rule="evenodd" fill="#FFDA63" d="M337.048 183c32.322 0 58.822-26.382 58.822-58.703 0-32.445-26.5-58.827-58.822-58.827-32.324 0-58.704 26.382-58.704 58.827 0 32.321 26.38 58.703 58.704 58.703z"/><path fill-rule="evenodd" clip-rule="evenodd" fill="#FCC326" d="M337.048 175.75c28.399 0 51.453-23.172 51.453-51.453 0-28.405-23.054-51.458-51.453-51.458-28.402 0-51.456 23.053-51.456 51.458 0 28.281 23.054 51.453 51.456 51.453z"/><path fill="#E4A525" d="M334.55 156.143c-2.137-.119-4.396-.237-6.89-.594-2.379-.356-4.516-.954-6.536-1.666s-3.804-1.662-5.111-2.73c-1.425-1.073-2.019-2.498-2.019-4.041 0-.594.119-1.191.356-1.904.237-.712.712-1.306 1.187-1.899.594-.594 1.309-1.068 2.259-1.547.833-.356 1.9-.475 3.088-.475 1.071 0 2.142.118 3.092.359.949.356 2.021.594 3.091.95 1.068.355 2.137.712 3.324 1.068 1.191.356 2.616.475 4.159.594v-13.903c-2.493-.831-4.871-1.543-7.365-2.379a28.202 28.202 0 0 1-6.538-3.324c-1.899-1.31-3.563-2.972-4.753-4.99-1.188-2.022-1.899-4.635-1.899-7.726 0-5.347 1.899-9.625 5.584-12.598 3.566-3.091 8.557-4.753 14.972-5.109v-4.634c0-.713.237-1.311.713-1.785.475-.475 1.072-.712 1.785-.712.831 0 1.424.237 1.899.712.475.475.712 1.072.712 1.785v4.634c1.785.119 3.685.356 5.707.594 2.019.356 3.922.713 5.703 1.425 1.666.594 3.21 1.548 4.397 2.498 1.188 1.068 1.78 2.374 1.78 3.922 0 1.543-.593 2.968-1.899 4.04-1.306 1.188-2.973 1.781-4.99 1.781-.95 0-1.781-.119-2.379-.356l-2.138-.712c-.831-.237-1.662-.475-2.615-.713a22.595 22.595 0 0 0-3.566-.598v13.072c2.616.835 5.113 1.666 7.606 2.498 2.498.831 4.635 1.899 6.539 3.209 1.899 1.188 3.442 2.85 4.634 4.753 1.188 1.9 1.662 4.397 1.662 7.365 0 2.854-.475 5.352-1.543 7.606-.95 2.142-2.379 4.041-4.278 5.704-1.781 1.547-3.922 2.854-6.42 3.803-2.493.954-5.228 1.548-8.2 1.785v4.753c0 .713-.237 1.307-.712 1.781-.476.475-1.068.712-1.899.712-.713 0-1.311-.237-1.785-.712-.476-.475-.713-1.068-.713-1.781v-4.515zm11.291-18.3c0-1.667-.475-2.854-1.425-3.566-.834-.712-1.784-1.188-2.734-1.662l-2.022-.717v12.123c2.022-.476 3.447-1.069 4.52-2.137 1.067-1.073 1.661-2.379 1.661-4.041zm-11.291-20.441v-11.169c-1.781.237-3.209.713-4.396 1.544-1.188.712-1.781 2.018-1.781 3.685 0 1.543.356 2.73 1.307 3.443.949.716 1.903 1.31 2.853 1.665l2.017.832z"/><path fill="#FFDA63" d="M334.55 153.29c-2.137-.118-4.396-.237-6.89-.594-2.379-.355-4.516-.949-6.536-1.662-2.021-.716-3.804-1.666-5.111-2.734-1.425-1.069-2.019-2.379-2.019-4.041 0-.594.119-1.188.356-1.899.237-.713.712-1.311 1.187-1.904.594-.593 1.309-1.068 2.259-1.424.833-.476 1.9-.594 3.088-.594 1.071 0 2.142.118 3.092.355.949.356 2.021.594 3.091.95 1.068.356 2.137.712 3.324 1.068 1.191.356 2.616.594 4.159.594v-13.903c-2.493-.712-4.871-1.543-7.365-2.374a28.214 28.214 0 0 1-6.538-3.329c-1.899-1.306-3.563-2.973-4.753-4.99-1.188-2.022-1.899-4.635-1.899-7.726 0-5.347 1.899-9.625 5.584-12.598 3.566-3.087 8.557-4.753 14.972-5.108v-4.635c0-.713.237-1.306.713-1.781.475-.475 1.072-.712 1.785-.712.831 0 1.424.237 1.899.712.475.476.712 1.068.712 1.781v4.635c1.785.118 3.685.355 5.707.594a39.81 39.81 0 0 1 5.703 1.428c1.666.713 3.21 1.544 4.397 2.493 1.188 1.069 1.78 2.379 1.78 3.923 0 1.662-.593 2.973-1.899 4.159-1.306 1.068-2.973 1.662-4.99 1.662-.95 0-1.781-.119-2.379-.356l-2.138-.712c-.831-.237-1.662-.476-2.615-.712a21.967 21.967 0 0 0-3.566-.594v13.072c2.616.83 5.113 1.661 7.606 2.492 2.498.836 4.635 1.904 6.539 3.21 1.899 1.307 3.442 2.854 4.634 4.754 1.188 2.022 1.662 4.396 1.662 7.369 0 2.849-.475 5.347-1.543 7.603-.95 2.141-2.379 4.04-4.278 5.707-1.781 1.543-3.922 2.85-6.42 3.803-2.493.95-5.228 1.544-8.2 1.781v4.872c0 .593-.237 1.187-.712 1.666-.476.475-1.068.712-1.899.712-.713 0-1.311-.237-1.785-.712-.476-.479-.713-1.073-.713-1.666v-4.635zm11.291-18.182c0-1.78-.475-2.973-1.425-3.685-.834-.712-1.784-1.188-2.734-1.543l-2.022-.832v12.119c2.022-.356 3.447-1.068 4.52-2.137 1.067-1.069 1.661-2.378 1.661-3.922zm-11.291-20.56v-11.169c-1.781.237-3.209.712-4.396 1.544-1.188.712-1.781 2.022-1.781 3.685s.356 2.734 1.307 3.447c.949.712 1.903 1.306 2.853 1.662l2.017.831z"/></g><g fill="#FFF"><path d="M355.271 477.338v-2.559l-10.096.234c.115-5.663-.003-10.384-.353-14.059-.424-4.472-1.152-7.777-2.228-10.107-1.323-2.866-3.155-4.474-5.449-4.778-1.984-.261-4.192.389-6.493 1.944-1.952 1.322-4.07 3.262-6.295 5.765-2.126 2.39-4.401 5.151-6.765 8.205a546.173 546.173 0 0 0-7.322 9.695 466.816 466.816 0 0 1-7.402 9.749c.545-2.526.92-5.054 1.079-7.555.254-4.015-.167-7.805-1.252-11.266-1.112-3.538-3.006-6.707-5.63-9.418-2.663-2.751-6.298-4.791-10.834-6.07-2.308-.624-5.014-.637-8.064-.04-2.861.561-5.792 1.522-8.711 2.857a49.635 49.635 0 0 0-8.379 4.894c-2.707 1.954-5.008 4.058-6.838 6.255-1.939 2.327-3.235 4.724-3.849 7.124-.712 2.774-.155 5.472 1.61 7.802l.199.231c1.967 2.026 4.226 3.571 6.714 4.589a27.827 27.827 0 0 0 7.569 1.905 43.08 43.08 0 0 0 7.82.126 82.601 82.601 0 0 0 7.514-.894c2.404-.401 4.661-.817 6.707-1.238a68.272 68.272 0 0 1 2.414-.451 25.972 25.972 0 0 1-1.521 7.461c-1.199 3.277-2.821 6.313-4.822 9.022-2.02 2.732-4.323 5.148-6.845 7.18-2.532 2.041-5.1 3.667-7.633 4.837l-1.452.67v1.6c0 1.755.486 3.294 1.446 4.573 1.014 1.351 2.273 2.175 3.743 2.452l.418.078.42-.063c2.81-.428 5.661-1.695 8.473-3.768 2.656-1.958 5.211-4.453 7.594-7.418 2.349-2.922 4.505-6.253 6.411-9.9a64.975 64.975 0 0 0 4.628-11.348c.117-.389.209-.779.317-1.169.087 1.004.292 1.882.623 2.654.713 1.664 2.182 2.619 4.031 2.619 2.78 0 5.331-.082 7.583-.243 2.209-.158 4.364-.315 6.468-.473 2.097-.158 4.248-.314 6.451-.472a93.471 93.471 0 0 1 4.766-.207l.438 27.343.069.278c.4 1.604 1.654 2.714 3.361 2.971.433.063.889.096 1.354.096.554 0 1.141-.046 1.75-.137a45.77 45.77 0 0 0 2.719-.502c.949-.208 1.294-.219 1.354-.219h2.5v-6.714c0-1.769-.012-3.709-.039-5.822a252.495 252.495 0 0 1 0-6.396c.027-2.194.093-4.294.194-6.242.104-1.987.233-3.777.386-5.323.06-.606.126-1.108.195-1.522l5.82-.36.252-.028c.627-.104 2.146-.575 2.691-2.737.178-.722.268-1.533.268-2.408 0-.72-.013-1.413-.041-2.078a33.59 33.59 0 0 1-.036-1.225zm-63.393-9.61c-1.216.458-2.55.893-3.984 1.297a86.697 86.697 0 0 1-6.164 1.493c-2.087.428-4.221.76-6.341.987-2.088.224-4.043.312-5.85.263-1.72-.046-3.284-.246-4.651-.594-.835-.212-1.525-.498-2.061-.852-.14-.757-.1-1.459.121-2.132.329-1.009.926-1.981 1.775-2.89.939-1.007 2.126-1.949 3.524-2.798a27.867 27.867 0 0 1 4.733-2.275 32.981 32.981 0 0 1 5.232-1.464 27.205 27.205 0 0 1 5.014-.507c1.541.092 2.916.457 4.088 1.083 1.22.653 2.182 1.449 2.941 2.433a7.995 7.995 0 0 1 1.504 3.287c.186.866.226 1.748.119 2.669zm40.119-3.315v12.256a643.02 643.02 0 0 0-7.847.906c-1.24.151-2.481.269-3.717.352l11.564-13.514zM409.347 451.551c-.748-1.768-1.596-3.015-2.594-3.814-1.077-.86-2.233-1.296-3.436-1.296l-.194.004a5.78 5.78 0 0 0-3.166 1.095c-.854.612-1.512 1.326-1.951 2.12l-33.071 59.591c-2.114 1.405-2.452 3.274-2.452 4.322 0 1.418.579 2.632 1.627 3.417.688.516 1.52.897 2.468 1.135.787.197 1.621.315 2.482.35.718.028 1.355.041 1.909.041h1.455l37.404-65.827-.481-1.138zM369.249 473.076a32.827 32.827 0 0 0 6.271-2.644c2.083-1.146 3.893-2.524 5.381-4.1 1.758-1.866 2.649-3.94 2.649-6.165 0-1.581-.345-2.921-1.025-3.986a7.265 7.265 0 0 0-2.51-2.393c-.948-.547-2.023-.916-3.2-1.095a19.816 19.816 0 0 0-2.933-.225c-1.746 0-3.709.379-5.833 1.126a25.372 25.372 0 0 0-5.809 2.927 18.8 18.8 0 0 0-4.719 4.542c-1.413 1.951-2.13 4.088-2.13 6.351 0 1.279.309 2.4.912 3.327a6.688 6.688 0 0 0 2.121 2.066c.805.5 1.693.848 2.637 1.036.813.163 1.628.246 2.422.246 1.628-.001 3.514-.332 5.766-1.013zM416.424 501.324c-.398-1.901-1.453-3.456-3.056-4.5-1.291-.838-2.778-1.455-4.422-1.835a24.657 24.657 0 0 0-4.605-.613 100.768 100.768 0 0 0-3.3-.081c-2.255-.237-4.256.121-5.954 1.058-1.658.914-2.998 2.17-3.981 3.732-.949 1.506-1.561 3.203-1.817 5.041-.256 1.817-.171 3.564.253 5.19.455 1.757 1.319 3.263 2.567 4.474 1.373 1.335 3.162 2.05 5.318 2.124l.087.002c1.465 0 3.262-.253 5.493-.774a26.731 26.731 0 0 0 6.388-2.391c2.125-1.123 3.907-2.553 5.296-4.251 1.642-2.007 2.244-4.472 1.733-7.176zm-16.038 4.651c.326-.606.757-1.056 1.313-1.373.681-.386 1.509-.641 2.46-.757.231-.028.465-.054.702-.077a3.935 3.935 0 0 1-1.42 1.433c-.698.416-1.532.707-2.481.864-.219.037-.441.07-.668.1.029-.066.061-.13.094-.19z"/></g></svg>