<svg xmlns="http://www.w3.org/2000/svg" width="335.986" height="235.189"><path fill="#FFF" d="M276.358 15.454h16.863v2h-16.863zM297.974 15.454h9.504v2h-9.504zM281.133 23.993h12.556v2h-12.556zM270.522 23.993h7.074v2h-7.074zM35.367 26.486h12.555v2H35.367zM24.756 26.486h7.076v2h-7.076zM51.162 16.069h12.555v2H51.162zM40.551 16.069h7.076v2h-7.076zM300.028 179.972h12.556v2h-12.556zM289.418 179.972h7.075v2h-7.075zM224.031 216.23h12.555v2h-12.555zM240.122 216.23h7.076v2h-7.076zM41.472 84.893h12.555v2H41.472zM57.562 84.893h7.075v2h-7.075zM47.358 168.382h16.863v2H47.358zM68.973 168.382h9.505v2h-9.505zM52.133 176.921h12.556v2H52.133zM41.522 176.921h7.075v2h-7.075zM270.275 172.57l-7.322-7.321 1.415-1.415 7.322 7.32z"/><path fill="#FFF" d="M264.369 172.57l-1.414-1.414 7.32-7.32 1.414 1.414z"/><path fill="#0195DF" d="M33.819 40.534h31v31h-31z"/><path fill="#ECF0F1" d="M42.819 48.505l14.041 8.324-14.041 8.323z"/><path fill="#2C465F" d="M269.819 40.534h31v31h-31z"/><path fill="#ECF0F1" d="M278.819 49.534h5v13h-5zM286.819 49.534h4v13h-4z"/><path fill="#2C465F" d="M246.065 196.079a4.932 4.932 0 0 1-4.932 4.932h-52.007a4.933 4.933 0 0 1-4.933-4.932v-55.916a4.932 4.932 0 0 1 4.933-4.933h52.007a4.932 4.932 0 0 1 4.932 4.933v55.916z"/><path fill="#F4F8F7" d="M189.431 140.698h51.4v54.849h-51.4z"/><circle fill="#3A4A5D" cx="215.13" cy="131.156" r="6.747"/><path fill="#3A4A5D" d="M228.944 137.902a6.746 6.746 0 0 1-6.746 6.746h-14.135a6.744 6.744 0 0 1-6.746-6.746 6.744 6.744 0 0 1 6.746-6.745h14.135a6.745 6.745 0 0 1 6.746 6.745z"/><path fill="#B6C8CF" d="M193.21 150.385h43.841v1.406H193.21zM193.21 155.85h43.841v1.405H193.21zM193.21 161.315h43.841v1.405H193.21zM193.21 166.781h43.841v1.403H193.21zM193.21 172.244h43.841v1.406H193.21zM193.21 177.71h43.841v1.406H193.21zM193.21 183.174h43.841v1.406H193.21zM193.21 188.642h43.841v1.404H193.21z"/><g><path fill="#FFF" d="M306.844 167.8c-.582 0-1.136-.34-1.379-.908-9.2-21.429-23.563-40.693-41.532-55.714-23.709-19.815-53.705-31.98-84.463-34.255-31.398-2.323-63.301 5.492-89.843 22.001-25.769 16.025-46.534 40.164-58.472 67.968a1.5 1.5 0 1 1-2.757-1.184c12.178-28.363 33.36-52.986 59.644-69.333 27.077-16.841 59.63-24.814 91.646-22.446 31.381 2.321 61.98 14.731 86.166 34.946 18.33 15.32 32.979 34.973 42.365 56.833a1.498 1.498 0 0 1-1.375 2.092z"/></g><g><circle fill="#FFF" cx="281.149" cy="125.842" r="25.693"/></g><g><circle fill="#FFF" cx="167.625" cy="75.018" r="16.847"/></g><g><circle fill="#0195DF" cx="228.058" cy="87.851" r="21.282"/></g><g><circle fill="#FFF" cx="53.944" cy="125.842" r="25.692"/></g><g><circle fill="#2C465F" cx="107.039" cy="87.851" r="21.282"/></g><g><path fill="#2C465F" d="M208.998 206.14a6.434 6.434 0 0 1-6.433 6.434h-67.832a6.432 6.432 0 0 1-6.432-6.434v-99.017a6.431 6.431 0 0 1 6.432-6.435h67.832a6.433 6.433 0 0 1 6.433 6.435v99.017z"/></g><g><path fill="#F4F8F7" d="M133.879 112.828h69.541v87.604h-69.541z"/></g><g><path fill="#30677A" d="M140.635 119.121h14.737v16.191h-14.737z"/></g><g><path fill="#B6C8CF" d="M159.137 119.121h39.12v1.435h-39.12z"/></g><g><path fill="#B6C8CF" d="M159.137 122.688h39.12v1.436h-39.12z"/></g><g><path fill="#B6C8CF" d="M159.137 126.252h39.12v1.434h-39.12z"/></g><g><path fill="#B6C8CF" d="M159.137 129.817h39.12v1.438h-39.12z"/></g><g><path fill="#B6C8CF" d="M159.137 133.384h20.906v1.435h-20.906z"/></g><g><path fill="#2FA4DF" d="M88.213 147.918s-1.094 1.253-1.094 5.645v32.4c0 4.395 1.094 5.646 1.094 5.646l27.123-3.94v-35.807l-27.123-3.944zM149.686 147.918s1.094 1.253 1.094 5.645v32.4c0 4.395-1.094 5.646-1.094 5.646l-27.123-3.94v-35.807l27.123-3.944z"/><path fill="#0195DF" d="M88.213 191.646s1.901 2.472 5.703 2.472h25.033v-27.649c-2.143.092-5.006 2.464-5.006 2.464l-25.73 22.713zM123.957 168.932s-2.863-2.372-5.006-2.464v27.649h25.031c3.803 0 5.703-2.472 5.703-2.472l-25.728-22.713z"/><g><path fill="#64B6DF" d="M143.982 145.444h-25.033-25.033c-3.802 0-5.703 2.475-5.703 2.475l25.73 22.713s2.863 2.374 5.006 2.466c2.145-.092 5.008-2.466 5.008-2.466l25.729-22.713c0-.001-1.901-2.475-5.704-2.475z"/></g></g><g><path fill="#FFF" d="M108.025 81.675a.547.547 0 0 1-.426.197.53.53 0 0 1-.416-.191c-3.844-4.702-10.631-2.36-10.424 3.427.166 4.605 3.43 6.89 7.273 10.127a5.544 5.544 0 0 0 3.582 1.3 5.523 5.523 0 0 0 3.588-1.309c3.801-3.232 7.023-5.501 7.244-9.98.293-5.917-6.587-8.294-10.421-3.571m1.743 11.981a3.317 3.317 0 0 1-2.152.782 3.358 3.358 0 0 1-2.176-.799c-3.898-3.286-6.383-5.03-6.51-8.604-.137-3.784 4.008-5.168 6.549-2.06a2.721 2.721 0 0 0 2.121.988c.84 0 1.619-.364 2.133-1 2.486-3.061 6.741-1.757 6.547 2.181-.174 3.504-2.752 5.312-6.512 8.512"/></g><g><path fill="#FFF" d="M237.892 86.314c1.098-1.114.492-3.057-1.024-3.285l-3.854-.586a1.843 1.843 0 0 1-1.393-1.053l-1.725-3.64c-.34-.715-.998-1.072-1.658-1.072-.659 0-1.318.357-1.658 1.072l-1.723 3.64a1.853 1.853 0 0 1-1.394 1.053l-3.854.586c-1.518.229-2.123 2.171-1.024 3.285l2.788 2.832c.438.441.635 1.08.531 1.704l-.659 4c-.203 1.245.745 2.256 1.823 2.256.283 0 .578-.069.861-.226l3.447-1.889c.27-.146.564-.223.859-.223s.59.076.859.223l3.448 1.889c.283.155.577.226.86.226 1.076 0 2.027-1.011 1.82-2.256l-.658-4a1.977 1.977 0 0 1 .533-1.704l2.795-2.832zm-4.513.992c-1.019 1.034-1.479 2.522-1.239 3.98l.444 2.712-2.339-1.28a4.208 4.208 0 0 0-2.01-.517 4.2 4.2 0 0 0-2.008.517l-2.34 1.28.447-2.712a4.618 4.618 0 0 0-1.242-3.98l-1.891-1.921 2.615-.397c1.406-.211 2.621-1.131 3.25-2.459l1.168-2.469 1.17 2.469c.628 1.328 1.844 2.248 3.248 2.459l2.615.397-1.888 1.921z"/></g><g><path fill="#2C465F" d="M164.39 63.647a8 8 0 1 0 0 16 8 8 0 0 0 0-16m0 14c-3.308 0-6-2.69-6-6 0-3.309 2.692-6 6-6s6 2.691 6 6-2.693 6-6 6m12 4.586l-1.414 1.414-4.242-4.241 1.414-1.415 4.242 4.242z"/></g><g><path fill="#2C465F" d="M65.373 129.282v5.719c0 1.26-.514 2.269-1.773 2.269H45.307c-1.26 0-2.789-1.009-2.789-2.269v-18.294c0-1.26 1.529-2.293 2.789-2.293h5.719a1.143 1.143 0 0 1 0 2.287h-4.572c-.63 0-1.65.521-1.65 1.154v14.86c0 1.26 1.529 2.27 2.789 2.27h14.861c.631 0 .635-.5.635-1.131v-4.57a1.141 1.141 0 1 1 2.284-.002m-9.447-3.284l6.645-6.646a.575.575 0 0 1 .981.39l.044 1.562c.019.63.543 1.109 1.174 1.109h-.254c.633 0 .857-.544.857-1.176v-4.538a2.29 2.29 0 0 0-2.285-2.285h-4.02c-.633 0-1.693.484-1.693 1.115v.004c0 .631.738 1.159 1.369 1.177l1.754.047a.574.574 0 0 1 .391.979l-6.613 6.646c-.445.446-.428 1.17.018 1.616a1.163 1.163 0 0 0 1.632 0"/></g><g><path fill="#2C465F" d="M270.469 116.496v17.651c0 1.22 1 2.206 2.232 2.206h17.866c1.232 0 2.232-.986 2.232-2.206v-17.651c0-1.219-1-2.206-2.232-2.206h-17.866c-1.232 0-2.232.988-2.232 2.206m18.982 17.652h-15.634a1.111 1.111 0 0 1-1.116-1.104V117.6c0-.608.502-1.104 1.116-1.104h15.634c.614 0 1.116.494 1.116 1.104v15.445c0 .609-.502 1.103-1.116 1.103m-3.109-6.37l-3.174 2.964a2.251 2.251 0 0 1-3.067 0l-3.172-2.964a1.094 1.094 0 0 1-.045-1.56 1.129 1.129 0 0 1 1.579-.044l1.113 1.04c.354.333.94.083.94-.4v-5.904c0-.609.5-1.104 1.117-1.104s1.117.494 1.117 1.104v5.904c0 .483.586.733.939.4l1.115-1.04a1.127 1.127 0 0 1 1.577.044 1.09 1.09 0 0 1-.039 1.56"/></g><g><path fill="#0195DF" d="M187.422 193.961l5.613-5.614-5.613-5.615-1.605 1.605 4.011 4.01-4.011 4.008zM175.683 182.731l-5.618 5.615 5.618 5.614 1.602-1.605-4.011-4.009 4.011-4.009zM187.422 152.823l5.613-5.615-5.613-5.614-1.605 1.604 4.011 4.01-4.011 4.009zM175.683 141.592l-5.618 5.614 5.618 5.614 1.602-1.603-4.011-4.011 4.011-4.008z"/><path fill="none" d="M180.024 193.058l3.098-9.422"/><path fill="#0195DF" d="M181.01 193.391l-2.018-.664 3.101-9.422 2.018.664zM185.808 146.169l-8.454-.047-.013 2.124 8.467.046z"/><path fill="#2C465F" d="M170.065 155.99H196v1.919h-25.935z"/><path fill="#6D808A" d="M158.076 144.802h5.351v3.081h-5.351z"/><path fill="#2C465F" d="M158.076 153.46h5.351v3.08h-5.351z"/><path fill="#0195DF" d="M158.076 162.117h5.351v3.08h-5.351z"/><path fill="#6D808A" d="M158.076 170.774h5.351v3.08h-5.351z"/><path fill="#2C465F" d="M158.076 179.432h5.351v3.08h-5.351z"/><path fill="#6D808A" d="M158.076 188.089h5.351v3.08h-5.351zM170.065 161.31H196v1.92h-25.935z"/><path fill="#0195DF" d="M170.065 166.631h20.496v1.919h-20.496z"/><path fill="#2C465F" d="M170.065 171.952H196v1.919h-25.935z"/><g><path fill="#6D808A" d="M170.065 177.273H196v1.919h-25.935z"/></g></g></svg>