<svg xmlns="http://www.w3.org/2000/svg" width="612" height="1029"><path fill="#89251B" d="M311.129 10.562l-1.227 147.015 87.155-.153c-35.95-87.78-83.222-143.697-85.928-146.862z"/><path fill="#DC4226" d="M310.869 10.256s-50.118 56.951-88.645 147.473l87.678-.153 1.227-147.015c-.082-.094-.26-.305-.26-.305z"/><path fill="#89251B" d="M408.648 441.216l61.723 66.864s2.948 48.544-.285 88.522c-.412 5.108-8.896 6.819-12.215 2.44-9.707-12.813-30.455-51.306-30.455-51.306l-44.185-7.932 25.417-98.588z"/><path fill="#DC4226" d="M203.789 443.64l-61.724 66.864s-2.948 48.543.284 88.521c.414 5.11 8.897 6.821 12.215 2.44 9.708-12.814 30.457-51.306 30.457-51.306l44.185-7.931-25.417-98.588z"/><path fill="#E25A46" d="M222.224 157.729c-42.845 100.666-59.911 242.838 10.885 394.673l73.503-.129 3.291-394.697-87.679.153z"/><path fill="#E4E5E6" d="M397.058 157.423l-87.155.153-3.291 394.697 72.977-.127c73.331-152.087 58.635-294.206 17.469-394.723z"/><path fill="#DC4226" d="M244.315 552.384l6.516 18.478 55.626-.097.155-18.492z"/><path fill="#89251B" d="M368.439 552.164l-61.827.109-.155 18.492 55.107-.096zM335.981 185.811l-26.15.113-.578 92.021 26.15-.111c20.569-.088 37.375-20.706 37.534-46.051l.002-.241c.16-25.345-16.387-45.819-36.958-45.731z"/><path fill="#DC4226" d="M286.003 186.024c-20.571.088-37.375 20.707-37.535 46.051l-.001.239c-.16 25.347 16.387 45.823 36.955 45.733l23.83-.103.578-92.021-23.827.101z"/><path fill="#F8FCF9" d="M287.358 195.307c-16.462.07-29.909 16.568-30.036 36.852-.128 20.282 13.112 36.667 29.575 36.597l22.413-.096.463-73.449-22.415.096z"/><path fill="#D2EDF6" d="M334.509 195.104l-24.735.107-.463 73.449 24.735-.105c16.463-.07 29.911-16.571 30.038-36.852.127-20.286-13.113-36.67-29.575-36.599z"/><g><path fill="#89251B" d="M324.684 295.074l-14.463.062-.319 50.896 14.463-.062c11.376-.048 20.671-11.452 20.759-25.469v-.133c.088-14.02-9.062-25.344-20.44-25.294z"/><path fill="#DC4226" d="M297.042 295.191c-11.377.05-20.67 11.452-20.759 25.47l-.001.134c-.088 14.016 9.065 25.34 20.439 25.292l13.18-.056.319-50.896-13.178.056z"/><path fill="#F8FCF9" d="M297.792 300.325c-9.105.038-16.542 9.163-16.612 20.382-.071 11.217 7.252 20.28 16.356 20.242l12.398-.054.255-40.624-12.397.054z"/><path fill="#D2EDF6" d="M323.869 300.213l-13.681.058-.255 40.624 13.68-.058c9.104-.04 16.543-9.166 16.612-20.384.071-11.217-7.251-20.278-16.356-20.24z"/></g><g><path fill="#FCEF51" d="M253.51 630.301c2.856 16.241 8.229 34.147 18.14 49.575l6.723-6.698s23.99 63.619 31.912 63.619c7.923 0 31.246-62.674 31.246-62.674l7.297 6.852c9.321-16.478 13.545-37.099 15.294-55.618 2.451-25.931-24.059-47.202-57.05-45.726-32.985 1.476-58.062 25.072-53.562 50.67z"/><path fill="#FCB248" d="M271.12 622.699c.246 16.92 2.65 37.647 11.49 51.338l4.675-4.561s12.011 31.121 22.405 41.912l.016.574c.083-.093.171-.196.257-.29.036.038.072.081.111.118l-.007-.236c9.861-10.946 20.34-42.242 20.34-42.242l4.897 4.486c8.435-14.278 10.371-37.112 10.333-55.396-.033-15.905-17.07-27.813-37.776-26.526-20.535 1.278-36.972 15.06-36.741 30.823z"/></g><g><path fill="#DC4226" d="M291.491 516.109c-4.249 0-7.566 2.78-7.131 5.977l17.032 125.136c.363 2.667 3.248 4.695 6.75 4.838V516.11h-16.651z"/><path fill="#89251B" d="M321.104 516.109h-12.962v135.95c.129.005.252.026.383.026 3.748 0 6.862-2.184 7.147-5.01l12.582-125.136c.315-3.144-2.978-5.83-7.15-5.83z"/></g><g><path fill="#FFF" d="M547.724 921.581c-4.083-4.082-8.767-7.18-13.75-9.383-.401-6.085-2.818-12.062-7.469-16.713a25.996 25.996 0 0 0-8.558-5.691 64.304 64.304 0 0 0 1.207-12.293c0-35.389-28.688-64.078-64.076-64.078-20.709 0-39.069 9.866-50.783 25.107-1.622-.204-3.263-.344-4.941-.344-7.562 0-14.599 2.172-20.595 5.873a27.251 27.251 0 0 0-16.283-20.641c.111-.673.208-1.351.208-2.055 0-6.912-5.603-12.516-12.515-12.516-.683 0-1.341.096-1.992.201 0-.07.02-.132.02-.201 0-11.57-8.37-21.136-19.374-23.098 1.532-2.98 2.48-6.309 2.48-9.893 0-12.021-9.746-21.768-21.768-21.768s-21.768 9.746-21.768 21.768c0 2.526.514 4.913 1.306 7.169-9.622 4.543-16.294 14.308-16.294 25.653 0 .16.021.313.024.473-1.147-.28-2.327-.473-3.561-.473-8.262 0-14.959 6.697-14.959 14.96 0 .173.045.332.051.501-9.719 1.974-17.377 9.608-19.389 19.312-5.773-3.332-12.454-5.268-19.598-5.268-1.677 0-3.319.14-4.941.344-11.713-15.241-30.074-25.107-50.783-25.107-35.389 0-64.077 28.689-64.077 64.078 0 4.209.433 8.312 1.208 12.293a25.996 25.996 0 0 0-8.558 5.691c-4.65 4.651-7.068 10.628-7.468 16.713-4.983 2.203-9.667 5.301-13.751 9.383-17.721 17.723-17.721 46.452 0 64.172 17.72 17.721 46.451 17.721 64.171 0 2.84-2.841 5.174-5.986 7.104-9.301a63.11 63.11 0 0 0 25.173 5.225c23.917 0 44.721-13.261 55.507-32.82 11.062 15.921 29.457 26.363 50.312 26.363 14.418 0 27.645-5.014 38.108-13.347 10.464 8.333 23.691 13.347 38.107 13.347 20.855 0 39.249-10.442 50.312-26.363 10.784 19.56 31.589 32.82 55.506 32.82a63.117 63.117 0 0 0 25.173-5.225c1.929 3.314 4.263 6.46 7.104 9.301 17.721 17.721 46.451 17.721 64.171 0 17.72-17.717 17.72-46.446-.001-64.169z"/><path fill="#9EB8E0" d="M515.639 1001.525c-12.261 0-24.522-4.667-33.856-14.001a47.477 47.477 0 0 1-6.354-7.939 65.336 65.336 0 0 1-24.152 4.595c-22.7 0-43.719-11.707-55.742-30.798-12.062 15.309-30.508 24.341-50.076 24.341-13.883 0-27.015-4.38-38.107-12.688-11.092 8.308-24.226 12.688-38.108 12.688-19.567 0-38.012-9.032-50.076-24.341-12.023 19.091-33.042 30.798-55.743 30.798a65.33 65.33 0 0 1-24.153-4.595c-1.877 2.93-4.009 5.595-6.354 7.939-18.668 18.668-49.042 18.668-67.712 0-9.044-9.044-14.024-21.067-14.024-33.856s4.98-24.814 14.024-33.857c3.807-3.806 8.229-6.923 13.161-9.283.752-6.411 3.581-12.333 8.058-16.812a28.333 28.333 0 0 1 7.519-5.4 66.49 66.49 0 0 1-.901-10.814c0-36.714 29.868-66.581 66.581-66.581 20.322 0 39.153 9.08 51.89 24.966a38.542 38.542 0 0 1 3.834-.202 41.72 41.72 0 0 1 18 4.101 27.32 27.32 0 0 1 18.493-17.612c.749-8.945 8.268-15.994 17.402-15.994.374 0 .75.014 1.133.043.828-10.189 6.744-19.424 15.687-24.455-.538-2.019-.8-3.967-.8-5.907 0-13.384 10.889-24.271 24.272-24.271 13.382 0 24.271 10.887 24.271 24.271 0 2.764-.5 5.499-1.488 8.163 10.029 3.06 17.261 11.866 18.263 22.329 8.092.219 14.605 6.87 14.605 15.014 0 .184-.004.364-.013.541 7.384 3.695 12.966 10.428 15.276 18.333a41.626 41.626 0 0 1 18.903-4.555c1.207 0 2.449.065 3.836.202 12.736-15.886 31.565-24.966 51.889-24.966 36.712 0 66.58 29.867 66.58 66.581a66.59 66.59 0 0 1-.9 10.814 28.404 28.404 0 0 1 7.519 5.4c4.478 4.479 7.305 10.4 8.06 16.812a47.605 47.605 0 0 1 13.159 9.283c18.667 18.67 18.667 49.047 0 67.714-9.335 9.332-21.596 13.999-33.856 13.999zm-38.144-28.254l1.117 1.922c1.921 3.301 4.179 6.258 6.711 8.79 16.714 16.718 43.916 16.718 60.631 0 16.716-16.715 16.716-43.914 0-60.63-3.711-3.712-8.081-6.694-12.993-8.865l-1.386-.613-.101-1.512c-.38-5.774-2.773-11.14-6.739-15.105a23.431 23.431 0 0 0-7.735-5.145l-1.902-.779.393-2.017a62.173 62.173 0 0 0 1.161-11.815c0-33.953-27.622-61.574-61.573-61.574-19.226 0-37.014 8.795-48.799 24.13l-.873 1.135-1.421-.177c-1.769-.221-3.241-.324-4.632-.324-6.784 0-13.451 1.901-19.278 5.499l-3.177 1.961-.609-3.682c-1.376-8.302-7.041-15.483-14.784-18.741l-1.823-.768.324-1.951c.104-.628.174-1.147.174-1.645 0-5.521-4.492-10.012-10.011-10.012-.505 0-1.042.08-1.592.17l-2.903.469.02-3.27c-.063-10.113-7.323-18.726-17.312-20.505l-3.336-.596 1.551-3.015c1.461-2.843 2.204-5.786 2.204-8.748 0-10.623-8.643-19.264-19.265-19.264-10.623 0-19.265 8.641-19.265 19.264 0 2.03.382 4.104 1.166 6.341l.745 2.129-2.038.963c-9.028 4.263-14.859 13.443-14.859 23.39.014.193.022.313.023.437l.048 3.239-3.149-.771c-1.115-.271-2.056-.4-2.963-.4-6.868 0-12.456 5.589-12.456 12.456.024.078.043.247.049.418l.07 2.116-2.074.422a22.324 22.324 0 0 0-17.435 17.365l-.704 3.393-3-1.732a36.76 36.76 0 0 0-18.347-4.932c-1.391 0-2.862.104-4.631.324l-1.422.177-.873-1.135c-11.786-15.335-29.572-24.13-48.797-24.13-33.952 0-61.573 27.621-61.573 61.574 0 3.88.392 7.854 1.162 11.815l.392 2.017-1.902.779a23.391 23.391 0 0 0-7.734 5.145c-3.968 3.968-6.361 9.331-6.74 15.105l-.1 1.512-1.387.613c-4.909 2.171-9.281 5.153-12.992 8.865-8.098 8.098-12.558 18.864-12.558 30.315 0 11.45 4.459 22.217 12.558 30.314 16.716 16.718 43.913 16.718 60.629 0 2.53-2.528 4.788-5.486 6.711-8.79l1.12-1.922 2.041.884a60.418 60.418 0 0 0 24.176 5.02c22.164 0 42.592-12.082 53.313-31.526l1.948-3.532 2.302 3.312c11.002 15.835 29.042 25.289 48.255 25.289 13.393 0 26.032-4.428 36.548-12.803l1.56-1.242 1.56 1.242c10.517 8.375 23.153 12.803 36.548 12.803 19.215 0 37.255-9.454 48.256-25.289l2.303-3.312 1.946 3.532c10.723 19.444 31.15 31.526 53.313 31.526a60.408 60.408 0 0 0 24.176-5.02l2.039-.883zm-126.825-164l-.005.038a.437.437 0 0 1 .005-.038zm-4.962-.683a.356.356 0 0 1-.005.043l.005-.043z"/><path fill="#9EB8E0" d="M547.724 960.372c-17.72 17.719-46.45 17.719-64.171 0-2.841-2.843-5.175-5.986-7.104-9.303a63.118 63.118 0 0 1-25.173 5.226c-23.917 0-44.722-13.262-55.506-32.822-11.063 15.922-29.457 26.364-50.312 26.364-14.416 0-27.644-5.012-38.107-13.347-10.463 8.335-23.689 13.347-38.108 13.347-20.855 0-39.249-10.442-50.312-26.364-10.786 19.561-31.59 32.822-55.507 32.822a63.11 63.11 0 0 1-25.173-5.226c-1.93 3.316-4.264 6.46-7.104 9.303-17.72 17.719-46.451 17.719-64.171 0a45.176 45.176 0 0 1-11.478-19.396c-4.464 15.378-.646 32.652 11.478 44.776 17.72 17.721 46.451 17.721 64.171 0 2.84-2.841 5.174-5.986 7.104-9.301a63.11 63.11 0 0 0 25.173 5.225c23.917 0 44.721-13.261 55.507-32.82 11.062 15.921 29.457 26.363 50.312 26.363 14.418 0 27.645-5.014 38.108-13.347 10.464 8.333 23.691 13.347 38.107 13.347 20.855 0 39.249-10.442 50.312-26.363 10.784 19.56 31.589 32.82 55.506 32.82a63.117 63.117 0 0 0 25.173-5.225c1.929 3.314 4.263 6.46 7.104 9.301 17.721 17.721 46.451 17.721 64.171 0 12.125-12.124 15.942-29.398 11.479-44.776a45.189 45.189 0 0 1-11.479 19.396zM380.557 855.163c-3.742 12.417-13.941 22.478-27.517 25.388a36.686 36.686 0 0 1-14.929.096 26.283 26.283 0 0 1-2.899 6.145c-7.903 12.216-24.216 15.711-36.431 7.809a26.212 26.212 0 0 1-8.876-9.615c-.663 9.275 3.606 18.618 11.964 24.024 12.215 7.903 28.526 4.408 36.43-7.808 1.267-1.959 2.209-4.029 2.902-6.145a36.65 36.65 0 0 0 14.925-.098c13.578-2.911 29.972-16.419 24.431-39.796z"/><g><path fill="#9EB8E0" d="M197.077 888.934c8.031 3.412 17.623 2.473 24.975-3.291a24.685 24.685 0 0 0 6.479-7.674c1.392.552 2.867.958 4.425 1.146 9.719 1.176 18.55-5.749 19.727-15.469a17.631 17.631 0 0 0-1.147-8.729c5.08 3.651 8.071 9.884 7.266 16.532-1.176 9.717-10.008 16.645-19.727 15.467a17.681 17.681 0 0 1-4.426-1.146 24.662 24.662 0 0 1-6.479 7.675c-7.352 5.764-21.395 8.42-31.093-4.511z"/></g></g></svg>