<svg xmlns="http://www.w3.org/2000/svg" width="889.5" height="786"><path fill-rule="evenodd" clip-rule="evenodd" fill="#95C45B" d="M825.6 480.4H474.5c-2.2-6.3-3.3-13.1-3.3-20.1 0-31.1 22.9-56.9 52.8-61.4 4.2-45.8 42.7-81.6 89.5-81.6 44.5 0 81.4 32.3 88.6 74.7 1.5-.1 3.1-.2 4.7-.2 30.7 0 56.4 21.2 63.4 49.8 4.4-1.5 9-2.4 13.9-2.4 22.7 0 41.3 18.4 41.5 41.2z"/><path fill-rule="evenodd" clip-rule="evenodd" fill="#FFF" d="M369.2 187.4c-2 0-3.9.3-5.7 1-2.8-11.7-13.4-20.4-26-20.4-.6 0-1.3 0-1.9.1-3-17.4-18.1-30.6-36.3-30.6-19.2 0-34.9 14.7-36.7 33.4-12.2 1.8-21.6 12.4-21.6 25.1 0 12.9 9.5 23.5 21.9 25.2v.2h106.2c9.4 0 17-7.6 17-17s-7.5-17-16.9-17zM837.6 580.2c-1.6 0-3.1.3-4.5.8-2.2-9.2-10.5-15.9-20.3-15.9-.5 0-1 0-1.5.1-2.3-13.6-14.1-23.9-28.4-23.9-15 0-27.3 11.5-28.7 26.1-9.6 1.4-16.9 9.7-16.9 19.7s7.5 18.3 17.1 19.7v.2h83.1c7.4 0 13.3-6 13.3-13.3s-5.9-13.5-13.2-13.5zM145.1 675.6c-1.9 0-3.8.3-5.5.9-2.7-11.3-12.9-19.6-25-19.6-.6 0-1.2 0-1.8.1-2.9-16.7-17.4-29.5-35-29.5-18.5 0-33.7 14.1-35.3 32.2-11.8 1.8-20.8 11.9-20.8 24.2 0 12.4 9.2 22.6 21.1 24.3v.2h102.4c9.1 0 16.4-7.3 16.4-16.4 0-9-7.4-16.4-16.5-16.4zM533.2 205.7h63.9v53.9h-63.9z"/><path fill="#FFF" d="M591.4 216.7H539v-21.1c0-14.5 11.8-26.2 26.2-26.2s26.2 11.8 26.2 26.2v21.1zm-42.2-10.3h32.1v-10.9c0-8.8-7.2-16-16-16s-16 7.2-16 16v10.9z"/><path fill-rule="evenodd" clip-rule="evenodd" fill="#679E34" d="M572.9 227.7c0-4.3-3.5-7.7-7.7-7.7-4.3 0-7.7 3.5-7.7 7.7 0 2.9 1.6 5.5 4.1 6.8v11h7.3v-11c2.4-1.3 4-3.9 4-6.8z"/><path fill-rule="evenodd" clip-rule="evenodd" fill="#FFF" d="M695.9 480.5c-1-4.4-2.7-8.5-5-12.1l4.7-7.1-9.4-9.4-7.1 4.7c-3.7-2.3-7.8-4.1-12.1-5l-1.6-8.3h-13.3l-1.6 8.3c-4.4 1-8.5 2.7-12.1 5l-7.1-4.7-9.4 9.4 4.7 7.1c-2.3 3.7-4.1 7.8-5 12.1l-8.3 1.6v13.3l8.3 1.6c1 4.4 2.7 8.5 5 12.1l-4.7 7.1 9.4 9.4 7.1-4.7c3.7 2.3 7.8 4.1 12.1 5l1.6 8.3h13.3l1.6-8.3c4.4-1 8.5-2.7 12.1-5l7.1 4.7 9.4-9.4-4.7-7.1c2.3-3.7 4.1-7.8 5-12.1l8.3-1.6v-13.3l-8.3-1.6zm-37.2 23.2c-8.2 0-14.9-6.7-14.9-14.9s6.7-14.9 14.9-14.9 14.9 6.7 14.9 14.9-6.6 14.9-14.9 14.9z"/><path fill-rule="evenodd" clip-rule="evenodd" fill="#E3E3E3" d="M695.9 669.5H169.4c-5.8 0-12-2.9-12.6-11.5v-7.9l57.6-106.5c3.1-6.2 9.5-10.2 16.4-10.2h402.9c7.5 0 24.1 14.8 27.5 21.5l47.5 96.9v3.5c.1 10.2-6.4 14.2-12.8 14.2"/><linearGradient id="a" gradientUnits="userSpaceOnUse" x1="432.761" y1="518.745" x2="432.761" y2="655.238"><stop offset="0" stop-color="#fff"/><stop offset=".575" stop-color="#d6d6d6"/><stop offset="1" stop-color="#f6f6f7"/></linearGradient><path fill-rule="evenodd" clip-rule="evenodd" fill="url(#a)" d="M696 658.4H169.4c-5.8 0-15.5-5.1-11.9-11.4l56.8-114.5c3.1-6.2 9.5-10.2 16.4-10.2h402.9c7.5 0 14.4 4.2 17.8 11l56.3 112.6c4 7.1-5.3 12.5-11.7 12.5"/><linearGradient id="b" gradientUnits="userSpaceOnUse" x1="432.761" y1="235.708" x2="432.761" y2="500.57"><stop offset="0" stop-color="#121212"/><stop offset="1" stop-color="#444446"/></linearGradient><path fill-rule="evenodd" clip-rule="evenodd" fill="url(#b)" d="M225.6 249.6h414.3c4.6 0 8.4 3.8 8.4 8.4v255.6c0 4.6-3.8 8.4-8.4 8.4H225.6c-4.6 0-8.4-3.8-8.4-8.4V258.1c0-4.7 3.8-8.5 8.4-8.5"/><path fill-rule="evenodd" clip-rule="evenodd" fill="#679E34" d="M233.8 267.8h397.9v236.1H233.8z"/><linearGradient id="c" gradientUnits="userSpaceOnUse" x1="431.56" y1="734.39" x2="431.56" y2="505.229"><stop offset="0" stop-color="#fff"/><stop offset=".575" stop-color="#d6d6d6"/><stop offset="1" stop-color="#f6f6f7"/></linearGradient><path fill-rule="evenodd" clip-rule="evenodd" fill="url(#c)" d="M509 653.4H353.9c-1.7 0-3-1.5-2.8-3.2l6.5-40.9c.4-2.2 2.3-3.8 4.5-3.8H502c2 0 3.7 1.5 4 3.4l6 41.1c.3 1.8-1.2 3.4-3 3.4"/><linearGradient id="d" gradientUnits="userSpaceOnUse" x1="246.864" y1="666.99" x2="246.864" y2="533.4"><stop offset="0" stop-color="#121212"/><stop offset="1" stop-color="#444446"/></linearGradient><path fill-rule="evenodd" clip-rule="evenodd" fill="url(#d)" d="M254.3 546.8h-16.8c-2.3 0-4-.7-3.6-1.5l1-2.5c.3-.8 2.5-1.5 4.8-1.5h16.6c2.3 0 4 .7 3.7 1.5l-.9 2.5c-.4.8-2.5 1.5-4.8 1.5"/><linearGradient id="e" gradientUnits="userSpaceOnUse" x1="275.088" y1="666.99" x2="275.088" y2="533.4"><stop offset="0" stop-color="#121212"/><stop offset="1" stop-color="#444446"/></linearGradient><path fill-rule="evenodd" clip-rule="evenodd" fill="url(#e)" d="M282.6 546.8h-16.8c-2.3 0-4-.7-3.7-1.5l.9-2.5c.3-.8 2.4-1.5 4.7-1.5h16.6c2.3 0 4 .7 3.8 1.5l-.7 2.5c-.3.8-2.4 1.5-4.8 1.5"/><linearGradient id="f" gradientUnits="userSpaceOnUse" x1="303.313" y1="666.99" x2="303.313" y2="533.4"><stop offset="0" stop-color="#121212"/><stop offset="1" stop-color="#444446"/></linearGradient><path fill-rule="evenodd" clip-rule="evenodd" fill="url(#f)" d="M311 546.8h-16.8c-2.3 0-4.1-.7-3.8-1.5l.7-2.5c.2-.8 2.3-1.5 4.6-1.5h16.6c2.3 0 4 .7 3.8 1.5l-.6 2.5c-.1.8-2.1 1.5-4.5 1.5"/><linearGradient id="g" gradientUnits="userSpaceOnUse" x1="331.537" y1="666.99" x2="331.537" y2="533.4"><stop offset="0" stop-color="#121212"/><stop offset="1" stop-color="#444446"/></linearGradient><path fill-rule="evenodd" clip-rule="evenodd" fill="url(#g)" d="M339.4 546.8h-16.8c-2.3 0-4.1-.7-3.9-1.5l.6-2.5c.2-.8 2.2-1.5 4.6-1.5h16.6c2.3 0 4.1.7 3.9 1.5l-.5 2.5c-.1.8-2.1 1.5-4.5 1.5"/><linearGradient id="h" gradientUnits="userSpaceOnUse" x1="359.762" y1="666.99" x2="359.762" y2="533.4"><stop offset="0" stop-color="#121212"/><stop offset="1" stop-color="#444446"/></linearGradient><path fill-rule="evenodd" clip-rule="evenodd" fill="url(#h)" d="M367.8 546.8H351c-2.3 0-4.1-.7-4-1.5l.4-2.5c.1-.8 2.1-1.5 4.5-1.5h16.6c2.3 0 4.1.7 4 1.5l-.3 2.5c-.1.8-2 1.5-4.4 1.5"/><linearGradient id="i" gradientUnits="userSpaceOnUse" x1="387.986" y1="666.99" x2="387.986" y2="533.4"><stop offset="0" stop-color="#121212"/><stop offset="1" stop-color="#444446"/></linearGradient><path fill-rule="evenodd" clip-rule="evenodd" fill="url(#i)" d="M396.2 546.8h-16.8c-2.3 0-4.2-.7-4.1-1.5l.3-2.5c.1-.8 2.1-1.5 4.4-1.5h16.6c2.3 0 4.2.7 4.1 1.5l-.2 2.5c0 .8-2 1.5-4.3 1.5"/><linearGradient id="j" gradientUnits="userSpaceOnUse" x1="416.212" y1="666.99" x2="416.212" y2="533.4"><stop offset="0" stop-color="#121212"/><stop offset="1" stop-color="#444446"/></linearGradient><path fill-rule="evenodd" clip-rule="evenodd" fill="url(#j)" d="M424.6 546.8h-16.8c-2.3 0-4.2-.7-4.2-1.5l.1-2.5c0-.8 2-1.5 4.3-1.5h16.6c2.3 0 4.2.7 4.2 1.5v2.5c0 .8-1.9 1.5-4.2 1.5"/><linearGradient id="k" gradientUnits="userSpaceOnUse" x1="444.502" y1="666.99" x2="444.502" y2="533.4"><stop offset="0" stop-color="#121212"/><stop offset="1" stop-color="#444446"/></linearGradient><path fill-rule="evenodd" clip-rule="evenodd" fill="url(#k)" d="M453 546.8h-16.8c-2.3 0-4.3-.7-4.3-1.5v-2.5c0-.8 1.9-1.5 4.2-1.5h16.6c2.3 0 4.2.7 4.3 1.5l.1 2.5c.1.8-1.8 1.5-4.1 1.5"/><linearGradient id="l" gradientUnits="userSpaceOnUse" x1="472.727" y1="666.99" x2="472.727" y2="533.4"><stop offset="0" stop-color="#121212"/><stop offset="1" stop-color="#444446"/></linearGradient><path fill-rule="evenodd" clip-rule="evenodd" fill="url(#l)" d="M481.4 546.8h-16.8c-2.3 0-4.3-.7-4.3-1.5l-.2-2.5c-.1-.8 1.8-1.5 4.1-1.5h16.6c2.3 0 4.3.7 4.4 1.5l.3 2.5c0 .8-1.8 1.5-4.1 1.5"/><linearGradient id="m" gradientUnits="userSpaceOnUse" x1="500.951" y1="666.99" x2="500.951" y2="533.4"><stop offset="0" stop-color="#121212"/><stop offset="1" stop-color="#444446"/></linearGradient><path fill-rule="evenodd" clip-rule="evenodd" fill="url(#m)" d="M509.7 546.8h-16.8c-2.3 0-4.3-.7-4.4-1.5l-.3-2.5c-.1-.8 1.7-1.5 4-1.5h16.6c2.3 0 4.3.7 4.5 1.5l.4 2.5c.2.8-1.6 1.5-4 1.5"/><linearGradient id="n" gradientUnits="userSpaceOnUse" x1="529.175" y1="666.99" x2="529.175" y2="533.4"><stop offset="0" stop-color="#121212"/><stop offset="1" stop-color="#444446"/></linearGradient><path fill-rule="evenodd" clip-rule="evenodd" fill="url(#n)" d="M538.1 546.8h-16.8c-2.3 0-4.4-.7-4.5-1.5l-.5-2.5c-.2-.8 1.6-1.5 3.9-1.5h16.6c2.3 0 4.4.7 4.6 1.5l.6 2.5c.2.8-1.5 1.5-3.9 1.5"/><linearGradient id="o" gradientUnits="userSpaceOnUse" x1="557.399" y1="666.99" x2="557.399" y2="533.4"><stop offset="0" stop-color="#121212"/><stop offset="1" stop-color="#444446"/></linearGradient><path fill-rule="evenodd" clip-rule="evenodd" fill="url(#o)" d="M566.5 546.8h-16.8c-2.3 0-4.4-.7-4.6-1.5l-.6-2.5c-.2-.8 1.5-1.5 3.8-1.5h16.6c2.3 0 4.4.7 4.6 1.5l.7 2.5c.4.8-1.3 1.5-3.7 1.5"/><linearGradient id="p" gradientUnits="userSpaceOnUse" x1="585.624" y1="666.99" x2="585.624" y2="533.4"><stop offset="0" stop-color="#121212"/><stop offset="1" stop-color="#444446"/></linearGradient><path fill-rule="evenodd" clip-rule="evenodd" fill="url(#p)" d="M594.9 546.8h-16.8c-2.3 0-4.5-.7-4.7-1.5l-.8-2.5c-.3-.8 1.4-1.5 3.7-1.5H593c2.3 0 4.4.7 4.7 1.5l.9 2.5c.3.8-1.3 1.5-3.7 1.5"/><linearGradient id="q" gradientUnits="userSpaceOnUse" x1="613.849" y1="666.99" x2="613.849" y2="533.4"><stop offset="0" stop-color="#121212"/><stop offset="1" stop-color="#444446"/></linearGradient><path fill-rule="evenodd" clip-rule="evenodd" fill="url(#q)" d="M623.3 546.8h-16.8c-2.3 0-4.5-.7-4.8-1.5l-.9-2.5c-.3-.8 1.3-1.5 3.7-1.5h16.6c2.3 0 4.5.7 4.8 1.5l1 2.5c.4.8-1.2 1.5-3.6 1.5"/><linearGradient id="r" gradientUnits="userSpaceOnUse" x1="243.501" y1="667.007" x2="243.501" y2="533.398"><stop offset="0" stop-color="#121212"/><stop offset="1" stop-color="#444446"/></linearGradient><path fill-rule="evenodd" clip-rule="evenodd" fill="url(#r)" d="M252.7 556.2h-21.5c-.5 0-.9-.2-.8-.4l3.2-7.9c.1-.2.6-.3 1.1-.3h21.1c.5 0 .9.2.8.3l-2.8 7.9c-.1.2-.6.4-1.1.4"/><linearGradient id="s" gradientUnits="userSpaceOnUse" x1="282.611" y1="666.998" x2="282.611" y2="533.402"><stop offset="0" stop-color="#121212"/><stop offset="1" stop-color="#444446"/></linearGradient><path fill-rule="evenodd" clip-rule="evenodd" fill="url(#s)" d="M292.4 566.5h-21.9c-.5 0-.9-.2-.9-.4l2.6-8.2c.1-.2.6-.4 1.1-.4h21.5c.5 0 .9.2.9.4l-2.2 8.2c-.1.2-.6.4-1.1.4"/><linearGradient id="t" gradientUnits="userSpaceOnUse" x1="285.956" y1="667.006" x2="285.956" y2="533.397"><stop offset="0" stop-color="#121212"/><stop offset="1" stop-color="#444446"/></linearGradient><path fill-rule="evenodd" clip-rule="evenodd" fill="url(#t)" d="M295.9 577.2h-22.4c-.6 0-1-.2-.9-.4l2.6-8.5c.1-.2.6-.4 1.1-.4h22c.5 0 .9.2.9.4l-2.2 8.5c0 .3-.5.4-1.1.4"/><linearGradient id="u" gradientUnits="userSpaceOnUse" x1="298.231" y1="666.998" x2="298.231" y2="533.402"><stop offset="0" stop-color="#121212"/><stop offset="1" stop-color="#444446"/></linearGradient><path fill-rule="evenodd" clip-rule="evenodd" fill="url(#u)" d="M308.6 588.5h-22.9c-.6 0-1-.2-.9-.4l2.5-8.9c.1-.2.6-.4 1.1-.4h22.5c.6 0 1 .2.9.4l-2 8.9c-.2.2-.7.4-1.2.4"/><linearGradient id="v" gradientUnits="userSpaceOnUse" x1="226.733" y1="667.002" x2="226.733" y2="533.399"><stop offset="0" stop-color="#121212"/><stop offset="1" stop-color="#444446"/></linearGradient><path fill-rule="evenodd" clip-rule="evenodd" fill="url(#v)" d="M236.3 601.5H213c-.6 0-1-.2-.9-.5l4.3-10.6c.1-.2.7-.4 1.3-.4h22.8c.6 0 1 .2.9.4l-3.8 10.6c-.1.3-.6.5-1.3.5"/><linearGradient id="w" gradientUnits="userSpaceOnUse" x1="257.556" y1="667.002" x2="257.556" y2="533.399"><stop offset="0" stop-color="#121212"/><stop offset="1" stop-color="#444446"/></linearGradient><path fill-rule="evenodd" clip-rule="evenodd" fill="url(#w)" d="M267.5 601.5h-23.3c-.6 0-1.1-.2-1-.5l3.7-10.6c.1-.2.6-.4 1.3-.4H271c.6 0 1 .2 1 .4l-3.2 10.6c-.1.3-.7.5-1.3.5"/><linearGradient id="x" gradientUnits="userSpaceOnUse" x1="287.446" y1="667.002" x2="287.446" y2="533.399"><stop offset="0" stop-color="#121212"/><stop offset="1" stop-color="#444446"/></linearGradient><path fill-rule="evenodd" clip-rule="evenodd" fill="url(#x)" d="M297.7 601.5h-23.3c-.6 0-1.1-.2-1-.5l3.1-10.6c.1-.2.6-.4 1.2-.4h22.8c.6 0 1.1.2 1 .4l-2.6 10.6c0 .3-.6.5-1.2.5"/><linearGradient id="y" gradientUnits="userSpaceOnUse" x1="321.394" y1="667.002" x2="321.394" y2="533.399"><stop offset="0" stop-color="#121212"/><stop offset="1" stop-color="#444446"/></linearGradient><path fill-rule="evenodd" clip-rule="evenodd" fill="url(#y)" d="M335.8 601.5H305c-.7 0-1.2-.2-1.2-.5l2.5-10.5c.1-.3.7-.5 1.4-.5h30.1c.7 0 1.2.2 1.2.5l-1.8 10.5c-.1.3-.7.5-1.4.5"/><linearGradient id="z" gradientUnits="userSpaceOnUse" x1="509.067" y1="667.002" x2="509.067" y2="533.399"><stop offset="0" stop-color="#121212"/><stop offset="1" stop-color="#444446"/></linearGradient><path fill-rule="evenodd" clip-rule="evenodd" fill="url(#z)" d="M525.2 601.5h-30.8c-.7 0-1.3-.2-1.3-.5l-1.2-10.5c0-.3.5-.5 1.2-.5h30.1c.7 0 1.3.2 1.3.5l1.9 10.5c0 .3-.5.5-1.2.5"/><linearGradient id="A" gradientUnits="userSpaceOnUse" x1="543.712" y1="667.002" x2="543.712" y2="533.399"><stop offset="0" stop-color="#121212"/><stop offset="1" stop-color="#444446"/></linearGradient><path fill-rule="evenodd" clip-rule="evenodd" fill="url(#A)" d="M556.3 601.5h-23c-.6 0-1.2-.2-1.2-.5l-2-10.6c0-.2.4-.4 1-.4h22.5c.6 0 1.1.2 1.2.4l2.5 10.6c.1.3-.4.5-1 .5"/><linearGradient id="B" gradientUnits="userSpaceOnUse" x1="415.698" y1="667.002" x2="415.698" y2="533.399"><stop offset="0" stop-color="#121212"/><stop offset="1" stop-color="#444446"/></linearGradient><path fill-rule="evenodd" clip-rule="evenodd" fill="url(#B)" d="M486.7 601.5h-142c-1.5 0-2.6-.5-2.5-1.1l1.5-9.3c.1-.6 1.4-1.1 2.8-1.1h139c1.5 0 2.7.5 2.8 1.1l1 9.3c0 .6-1.1 1.1-2.6 1.1"/><linearGradient id="C" gradientUnits="userSpaceOnUse" x1="327.68" y1="666.998" x2="327.68" y2="533.402"><stop offset="0" stop-color="#121212"/><stop offset="1" stop-color="#444446"/></linearGradient><path fill-rule="evenodd" clip-rule="evenodd" fill="url(#C)" d="M338.3 588.5h-22.9c-.6 0-1-.2-.9-.4l2-8.9c0-.2.5-.4 1.1-.4H340c.6 0 1 .2.9.4l-1.5 8.9c-.1.2-.6.4-1.1.4"/><linearGradient id="D" gradientUnits="userSpaceOnUse" x1="357.13" y1="666.998" x2="357.13" y2="533.402"><stop offset="0" stop-color="#121212"/><stop offset="1" stop-color="#444446"/></linearGradient><path fill-rule="evenodd" clip-rule="evenodd" fill="url(#D)" d="M368 588.5h-22.9c-.6 0-1-.2-1-.4l1.5-8.9c0-.2.5-.4 1.1-.4h22.5c.6 0 1 .2 1 .4l-1 8.9c-.1.2-.6.4-1.2.4"/><linearGradient id="E" gradientUnits="userSpaceOnUse" x1="386.58" y1="666.998" x2="386.58" y2="533.402"><stop offset="0" stop-color="#121212"/><stop offset="1" stop-color="#444446"/></linearGradient><path fill-rule="evenodd" clip-rule="evenodd" fill="url(#E)" d="M397.7 588.5h-22.9c-.6 0-1-.2-1-.4l1-8.9c0-.2.5-.4 1.1-.4h22.5c.6 0 1 .2 1 .4l-.5 8.9c-.1.2-.6.4-1.2.4"/><linearGradient id="F" gradientUnits="userSpaceOnUse" x1="416.03" y1="666.998" x2="416.03" y2="533.402"><stop offset="0" stop-color="#121212"/><stop offset="1" stop-color="#444446"/></linearGradient><path fill-rule="evenodd" clip-rule="evenodd" fill="url(#F)" d="M427.5 588.5h-22.9c-.6 0-1-.2-1-.4l.4-8.9c0-.2.5-.4 1-.4h22.5c.6 0 1 .2 1 .4v8.9c0 .2-.5.4-1 .4"/><linearGradient id="G" gradientUnits="userSpaceOnUse" x1="445.693" y1="666.998" x2="445.693" y2="533.402"><stop offset="0" stop-color="#121212"/><stop offset="1" stop-color="#444446"/></linearGradient><path fill-rule="evenodd" clip-rule="evenodd" fill="url(#G)" d="M457.2 588.5h-22.9c-.6 0-1-.2-1-.4l-.1-8.9c0-.2.5-.4 1-.4h22.5c.6 0 1 .2 1 .4l.5 8.9c0 .2-.4.4-1 .4"/><linearGradient id="H" gradientUnits="userSpaceOnUse" x1="475.143" y1="666.998" x2="475.143" y2="533.402"><stop offset="0" stop-color="#121212"/><stop offset="1" stop-color="#444446"/></linearGradient><path fill-rule="evenodd" clip-rule="evenodd" fill="url(#H)" d="M486.9 588.5H464c-.6 0-1-.2-1.1-.4l-.6-8.9c0-.2.4-.4 1-.4h22.5c.6 0 1 .2 1.1.4l1 8.9c0 .2-.4.4-1 .4"/><linearGradient id="I" gradientUnits="userSpaceOnUse" x1="504.593" y1="666.998" x2="504.593" y2="533.402"><stop offset="0" stop-color="#121212"/><stop offset="1" stop-color="#444446"/></linearGradient><path fill-rule="evenodd" clip-rule="evenodd" fill="url(#I)" d="M516.6 588.5h-22.9c-.6 0-1.1-.2-1.1-.4l-1.1-8.9c0-.2.4-.4 1-.4H515c.6 0 1 .2 1.1.4l1.5 8.9c0 .2-.4.4-1 .4"/><linearGradient id="J" gradientUnits="userSpaceOnUse" x1="534.043" y1="666.998" x2="534.043" y2="533.402"><stop offset="0" stop-color="#121212"/><stop offset="1" stop-color="#444446"/></linearGradient><path fill-rule="evenodd" clip-rule="evenodd" fill="url(#J)" d="M546.4 588.5h-22.9c-.6 0-1.1-.2-1.1-.4l-1.6-8.9c0-.2.4-.4.9-.4h22.5c.6 0 1.1.2 1.1.4l2 8.9c0 .2-.4.4-.9.4"/><linearGradient id="K" gradientUnits="userSpaceOnUse" x1="574.181" y1="667.005" x2="574.181" y2="533.396"><stop offset="0" stop-color="#121212"/><stop offset="1" stop-color="#444446"/></linearGradient><path fill-rule="evenodd" clip-rule="evenodd" fill="url(#K)" d="M583.9 601.7H566c-2.3 0-4.3-.7-4.5-1.7l-.7-2.7c-.2-.9 1.4-1.6 3.7-1.6h17.6c2.2 0 4.3.7 4.5 1.6l.8 2.7c.4.9-1.3 1.7-3.5 1.7"/><linearGradient id="L" gradientUnits="userSpaceOnUse" x1="604.581" y1="667.005" x2="604.581" y2="533.396"><stop offset="0" stop-color="#121212"/><stop offset="1" stop-color="#444446"/></linearGradient><path fill-rule="evenodd" clip-rule="evenodd" fill="url(#L)" d="M614.4 601.7h-17.8c-2.3 0-4.3-.7-4.6-1.7l-.8-2.7c-.3-.9 1.3-1.6 3.6-1.6h17.6c2.2 0 4.3.7 4.6 1.6l.9 2.7c.4.9-1.2 1.7-3.5 1.7"/><linearGradient id="M" gradientUnits="userSpaceOnUse" x1="602.413" y1="667.005" x2="602.413" y2="533.396"><stop offset="0" stop-color="#121212"/><stop offset="1" stop-color="#444446"/></linearGradient><path fill-rule="evenodd" clip-rule="evenodd" fill="url(#M)" d="M612.1 595h-17.6c-2.2 0-4.3-.7-4.5-1.6l-.8-2.6c-.3-.9 1.3-1.6 3.5-1.6h17.4c2.2 0 4.3.7 4.6 1.6l.9 2.6c.3.9-1.2 1.6-3.5 1.6"/><linearGradient id="N" gradientUnits="userSpaceOnUse" x1="634.98" y1="667.005" x2="634.98" y2="533.396"><stop offset="0" stop-color="#121212"/><stop offset="1" stop-color="#444446"/></linearGradient><path fill-rule="evenodd" clip-rule="evenodd" fill="url(#N)" d="M645 601.7h-17.8c-2.3 0-4.4-.7-4.7-1.7l-1-2.7c-.3-.9 1.2-1.6 3.5-1.6h17.6c2.2 0 4.4.7 4.7 1.6l1.1 2.7c.4.9-1.1 1.7-3.4 1.7"/><linearGradient id="O" gradientUnits="userSpaceOnUse" x1="315.047" y1="667.006" x2="315.047" y2="533.397"><stop offset="0" stop-color="#121212"/><stop offset="1" stop-color="#444446"/></linearGradient><path fill-rule="evenodd" clip-rule="evenodd" fill="url(#O)" d="M325.3 577.2h-22.4c-.6 0-1-.2-.9-.4l2.1-8.5c.1-.2.5-.4 1.1-.4h22c.5 0 1 .2.9.4l-1.7 8.5c-.1.3-.5.4-1.1.4"/><linearGradient id="P" gradientUnits="userSpaceOnUse" x1="344.14" y1="667.006" x2="344.14" y2="533.397"><stop offset="0" stop-color="#121212"/><stop offset="1" stop-color="#444446"/></linearGradient><path fill-rule="evenodd" clip-rule="evenodd" fill="url(#P)" d="M354.7 577.2h-22.4c-.6 0-1-.2-.9-.4l1.6-8.5c0-.2.5-.4 1.1-.4h22c.5 0 1 .2.9.4l-1.2 8.5c-.1.3-.6.4-1.1.4"/><linearGradient id="Q" gradientUnits="userSpaceOnUse" x1="373.232" y1="667.006" x2="373.232" y2="533.397"><stop offset="0" stop-color="#121212"/><stop offset="1" stop-color="#444446"/></linearGradient><path fill-rule="evenodd" clip-rule="evenodd" fill="url(#Q)" d="M384 577.2h-22.4c-.6 0-1-.2-1-.4l1.1-8.5c0-.2.5-.4 1-.4h22c.5 0 1 .2 1 .4l-.7 8.5c0 .3-.4.4-1 .4"/><linearGradient id="R" gradientUnits="userSpaceOnUse" x1="402.146" y1="667.006" x2="402.146" y2="533.397"><stop offset="0" stop-color="#121212"/><stop offset="1" stop-color="#444446"/></linearGradient><path fill-rule="evenodd" clip-rule="evenodd" fill="url(#R)" d="M413.2 577.2h-22.4c-.6 0-1-.2-1-.4l.7-8.5c0-.2.5-.4 1-.4h22c.5 0 1 .2 1 .4l-.3 8.5c0 .3-.4.4-1 .4"/><linearGradient id="S" gradientUnits="userSpaceOnUse" x1="431.353" y1="667.006" x2="431.353" y2="533.397"><stop offset="0" stop-color="#121212"/><stop offset="1" stop-color="#444446"/></linearGradient><path fill-rule="evenodd" clip-rule="evenodd" fill="url(#S)" d="M442.6 577.2h-22.4c-.6 0-1-.2-1-.4l.2-8.5c0-.2.5-.4 1-.4h22c.5 0 1 .2 1 .4l.2 8.5c0 .3-.5.4-1 .4"/><linearGradient id="T" gradientUnits="userSpaceOnUse" x1="459.288" y1="667.006" x2="459.288" y2="533.397"><stop offset="0" stop-color="#121212"/><stop offset="1" stop-color="#444446"/></linearGradient><path fill-rule="evenodd" clip-rule="evenodd" fill="url(#T)" d="M470.7 577.2h-22.4c-.6 0-1-.2-1-.4l-.3-8.5c0-.2.4-.4 1-.4h22c.5 0 1 .2 1 .4l.7 8.5c0 .3-.5.4-1 .4"/><linearGradient id="U" gradientUnits="userSpaceOnUse" x1="488.114" y1="667.006" x2="488.114" y2="533.397"><stop offset="0" stop-color="#121212"/><stop offset="1" stop-color="#444446"/></linearGradient><path fill-rule="evenodd" clip-rule="evenodd" fill="url(#U)" d="M499.7 577.2h-22.4c-.6 0-1-.2-1-.4l-.8-8.5c0-.2.4-.4 1-.4h22c.5 0 1 .2 1 .4l1.2 8.5c0 .3-.4.4-1 .4"/><linearGradient id="V" gradientUnits="userSpaceOnUse" x1="516.939" y1="667.006" x2="516.939" y2="533.397"><stop offset="0" stop-color="#121212"/><stop offset="1" stop-color="#444446"/></linearGradient><path fill-rule="evenodd" clip-rule="evenodd" fill="url(#V)" d="M528.8 577.2h-22.4c-.6 0-1-.2-1.1-.4l-1.3-8.5c0-.2.4-.4.9-.4h22c.5 0 1 .2 1.1.4l1.7 8.5c.1.3-.3.4-.9.4"/><linearGradient id="W" gradientUnits="userSpaceOnUse" x1="545.586" y1="667.006" x2="545.586" y2="533.397"><stop offset="0" stop-color="#121212"/><stop offset="1" stop-color="#444446"/></linearGradient><path fill-rule="evenodd" clip-rule="evenodd" fill="url(#W)" d="M557.7 577.2h-22.4c-.6 0-1-.2-1.1-.4l-1.7-8.5c0-.2.4-.4.9-.4h22c.5 0 1 .2 1.1.4l2.1 8.5c.1.3-.3.4-.9.4"/><linearGradient id="X" gradientUnits="userSpaceOnUse" x1="574.233" y1="667.006" x2="574.233" y2="533.397"><stop offset="0" stop-color="#121212"/><stop offset="1" stop-color="#444446"/></linearGradient><path fill-rule="evenodd" clip-rule="evenodd" fill="url(#X)" d="M586.7 577.2h-22.4c-.6 0-1.1-.2-1.1-.4l-2.2-8.5c-.1-.2.3-.4.9-.4h22c.5 0 1 .2 1.1.4l2.6 8.5c0 .3-.4.4-.9.4"/><linearGradient id="Y" gradientUnits="userSpaceOnUse" x1="563.204" y1="666.998" x2="563.204" y2="533.402"><stop offset="0" stop-color="#121212"/><stop offset="1" stop-color="#444446"/></linearGradient><path fill-rule="evenodd" clip-rule="evenodd" fill="url(#Y)" d="M575.8 588.5h-22.9c-.6 0-1.1-.2-1.1-.4l-2.1-8.9c0-.2.4-.4.9-.4h22.5c.6 0 1.1.2 1.1.4l2.5 8.9c.1.2-.3.4-.9.4"/><linearGradient id="Z" gradientUnits="userSpaceOnUse" x1="614.739" y1="667.006" x2="614.739" y2="533.397"><stop offset="0" stop-color="#121212"/><stop offset="1" stop-color="#444446"/></linearGradient><path fill-rule="evenodd" clip-rule="evenodd" fill="url(#Z)" d="M637.9 577.2h-43.3c-.8 0-1.5-.2-1.6-.5l-2.6-8.3c-.1-.3.4-.5 1.2-.5h42.5c.8 0 1.5.2 1.6.5l3.4 8.3c.1.3-.5.5-1.2.5"/><linearGradient id="aa" gradientUnits="userSpaceOnUse" x1="611.134" y1="666.998" x2="611.134" y2="533.402"><stop offset="0" stop-color="#121212"/><stop offset="1" stop-color="#444446"/></linearGradient><path fill-rule="evenodd" clip-rule="evenodd" fill="url(#aa)" d="M642.2 588.5h-59.3c-.9 0-1.7-.3-1.8-.6l-2.4-8.4c-.1-.3.5-.6 1.4-.6h58.2c.9 0 1.7.3 1.9.6l3.5 8.4c0 .3-.6.6-1.5.6"/><linearGradient id="ab" gradientUnits="userSpaceOnUse" x1="246.457" y1="667.006" x2="246.457" y2="533.397"><stop offset="0" stop-color="#121212"/><stop offset="1" stop-color="#444446"/></linearGradient><path fill-rule="evenodd" clip-rule="evenodd" fill="url(#ab)" d="M266.8 577.2h-43.7c-.8 0-1.3-.2-1.2-.5l3.3-8.2c.1-.3.8-.5 1.6-.5h42.9c.8 0 1.3.2 1.2.5l-2.6 8.2c0 .3-.7.5-1.5.5"/><linearGradient id="ac" gradientUnits="userSpaceOnUse" x1="249.815" y1="666.998" x2="249.815" y2="533.402"><stop offset="0" stop-color="#121212"/><stop offset="1" stop-color="#444446"/></linearGradient><path fill-rule="evenodd" clip-rule="evenodd" fill="url(#ac)" d="M278.5 588.5h-60.1c-.9 0-1.5-.3-1.4-.7l3.4-8.4c.1-.3 1-.6 1.9-.6h59c.9 0 1.5.3 1.4.6l-2.4 8.4c-.1.4-.9.7-1.8.7"/><linearGradient id="ad" gradientUnits="userSpaceOnUse" x1="310.954" y1="666.998" x2="310.954" y2="533.402"><stop offset="0" stop-color="#121212"/><stop offset="1" stop-color="#444446"/></linearGradient><path fill-rule="evenodd" clip-rule="evenodd" fill="url(#ad)" d="M321 566.5h-22c-.5 0-.9-.2-.9-.4l2.1-8.2c.1-.2.5-.4 1.1-.4h21.5c.5 0 .9.2.9.4l-1.8 8.2c.1.2-.4.4-.9.4"/><linearGradient id="ae" gradientUnits="userSpaceOnUse" x1="339.123" y1="666.998" x2="339.123" y2="533.402"><stop offset="0" stop-color="#121212"/><stop offset="1" stop-color="#444446"/></linearGradient><path fill-rule="evenodd" clip-rule="evenodd" fill="url(#ae)" d="M349.4 566.5h-21.9c-.5 0-1-.2-.9-.4l1.7-8.2c0-.2.5-.4 1-.4h21.5c.5 0 .9.2.9.4l-1.3 8.2c0 .2-.5.4-1 .4"/><linearGradient id="af" gradientUnits="userSpaceOnUse" x1="367.466" y1="666.998" x2="367.466" y2="533.402"><stop offset="0" stop-color="#121212"/><stop offset="1" stop-color="#444446"/></linearGradient><path fill-rule="evenodd" clip-rule="evenodd" fill="url(#af)" d="M378 566.5h-22c-.5 0-1-.2-.9-.4l1.2-8.2c0-.2.5-.4 1-.4h21.5c.5 0 1 .2.9.4l-.8 8.2c.1.2-.4.4-.9.4"/><linearGradient id="ag" gradientUnits="userSpaceOnUse" x1="395.807" y1="666.998" x2="395.807" y2="533.402"><stop offset="0" stop-color="#121212"/><stop offset="1" stop-color="#444446"/></linearGradient><path fill-rule="evenodd" clip-rule="evenodd" fill="url(#ag)" d="M406.6 566.5h-21.9c-.5 0-1-.2-1-.4l.8-8.2c0-.2.5-.4 1-.4H407c.5 0 1 .2 1 .4l-.4 8.2c0 .2-.5.4-1 .4"/><linearGradient id="ah" gradientUnits="userSpaceOnUse" x1="424.028" y1="666.998" x2="424.028" y2="533.402"><stop offset="0" stop-color="#121212"/><stop offset="1" stop-color="#444446"/></linearGradient><path fill-rule="evenodd" clip-rule="evenodd" fill="url(#ah)" d="M435 566.5h-21.9c-.5 0-1-.2-1-.4l.3-8.2c0-.2.4-.4 1-.4h21.5c.5 0 1 .2 1 .4l.1 8.2c0 .2-.5.4-1 .4"/><linearGradient id="ai" gradientUnits="userSpaceOnUse" x1="451.702" y1="666.998" x2="451.702" y2="533.402"><stop offset="0" stop-color="#121212"/><stop offset="1" stop-color="#444446"/></linearGradient><path fill-rule="evenodd" clip-rule="evenodd" fill="url(#ai)" d="M462.8 566.5h-21.9c-.5 0-1-.2-1-.4l-.2-8.2c0-.2.4-.4 1-.4h21.5c.5 0 1 .2 1 .4l.6 8.2c-.1.2-.5.4-1 .4"/><linearGradient id="aj" gradientUnits="userSpaceOnUse" x1="480.276" y1="666.998" x2="480.276" y2="533.402"><stop offset="0" stop-color="#121212"/><stop offset="1" stop-color="#444446"/></linearGradient><path fill-rule="evenodd" clip-rule="evenodd" fill="url(#aj)" d="M491.6 566.5h-21.9c-.5 0-1-.2-1-.4l-.6-8.2c0-.2.4-.4.9-.4h21.5c.5 0 1 .2 1 .4l1 8.2c.1.2-.4.4-.9.4"/><linearGradient id="ak" gradientUnits="userSpaceOnUse" x1="508.503" y1="666.998" x2="508.503" y2="533.402"><stop offset="0" stop-color="#121212"/><stop offset="1" stop-color="#444446"/></linearGradient><path fill-rule="evenodd" clip-rule="evenodd" fill="url(#ak)" d="M520.1 566.5h-21.9c-.5 0-1-.2-1-.4l-1.1-8.2c0-.2.4-.4.9-.4h21.5c.5 0 1 .2 1 .4l1.5 8.2c0 .2-.4.4-.9.4"/><linearGradient id="al" gradientUnits="userSpaceOnUse" x1="536.264" y1="666.998" x2="536.264" y2="533.402"><stop offset="0" stop-color="#121212"/><stop offset="1" stop-color="#444446"/></linearGradient><path fill-rule="evenodd" clip-rule="evenodd" fill="url(#al)" d="M548.1 566.5h-21.9c-.5 0-1-.2-1.1-.4l-1.6-8.2c0-.2.4-.4.9-.4H546c.5 0 1 .2 1.1.4l1.9 8.2c0 .2-.4.4-.9.4"/><linearGradient id="am" gradientUnits="userSpaceOnUse" x1="565.188" y1="666.998" x2="565.188" y2="533.402"><stop offset="0" stop-color="#121212"/><stop offset="1" stop-color="#444446"/></linearGradient><path fill-rule="evenodd" clip-rule="evenodd" fill="url(#am)" d="M577.3 566.5h-21.9c-.5 0-1-.2-1.1-.4l-2-8.2c-.1-.2.3-.4.9-.4h21.5c.5 0 1 .2 1.1.4l2.4 8.2c0 .2-.4.4-.9.4"/><linearGradient id="an" gradientUnits="userSpaceOnUse" x1="592.834" y1="666.998" x2="592.834" y2="533.402"><stop offset="0" stop-color="#121212"/><stop offset="1" stop-color="#444446"/></linearGradient><path fill-rule="evenodd" clip-rule="evenodd" fill="url(#an)" d="M605.2 566.5h-21.9c-.5 0-1-.2-1.1-.4l-2.5-8.2c-.1-.2.3-.4.9-.4H602c.5 0 1 .2 1.1.4l2.9 8.2c.1.2-.3.4-.8.4"/><linearGradient id="ao" gradientUnits="userSpaceOnUse" x1="621.293" y1="666.998" x2="621.293" y2="533.402"><stop offset="0" stop-color="#121212"/><stop offset="1" stop-color="#444446"/></linearGradient><path fill-rule="evenodd" clip-rule="evenodd" fill="url(#ao)" d="M633.9 566.5H612c-.5 0-1.1-.2-1.1-.4l-3-8.2c-.1-.2.3-.4.8-.4h21.5c.5 0 1 .2 1.1.4l3.3 8.2c.2.2-.2.4-.7.4"/><linearGradient id="ap" gradientUnits="userSpaceOnUse" x1="271.666" y1="667.007" x2="271.666" y2="533.398"><stop offset="0" stop-color="#121212"/><stop offset="1" stop-color="#444446"/></linearGradient><path fill-rule="evenodd" clip-rule="evenodd" fill="url(#ap)" d="M281.1 556.2h-21.5c-.5 0-.9-.2-.8-.4l2.7-7.9c.1-.2.5-.3 1.1-.3h21.1c.5 0 .9.2.8.3l-2.4 7.9c0 .2-.5.4-1 .4"/><linearGradient id="aq" gradientUnits="userSpaceOnUse" x1="298.977" y1="667.007" x2="298.977" y2="533.398"><stop offset="0" stop-color="#121212"/><stop offset="1" stop-color="#444446"/></linearGradient><path fill-rule="evenodd" clip-rule="evenodd" fill="url(#aq)" d="M308.7 556.2h-21.5c-.5 0-.9-.2-.9-.4l2.3-7.9c.1-.2.5-.3 1.1-.3h21.1c.5 0 .9.2.9.3l-1.9 7.9c-.1.2-.6.4-1.1.4"/><linearGradient id="ar" gradientUnits="userSpaceOnUse" x1="326.97" y1="667.007" x2="326.97" y2="533.398"><stop offset="0" stop-color="#121212"/><stop offset="1" stop-color="#444446"/></linearGradient><path fill-rule="evenodd" clip-rule="evenodd" fill="url(#ar)" d="M336.9 556.2h-21.5c-.5 0-.9-.2-.9-.4l1.8-7.9c0-.2.5-.3 1-.3h21.1c.5 0 .9.2.9.3l-1.5 7.9c.1.2-.4.4-.9.4"/><linearGradient id="as" gradientUnits="userSpaceOnUse" x1="354.266" y1="667.007" x2="354.266" y2="533.398"><stop offset="0" stop-color="#121212"/><stop offset="1" stop-color="#444446"/></linearGradient><path fill-rule="evenodd" clip-rule="evenodd" fill="url(#as)" d="M364.4 556.2H343c-.5 0-.9-.2-.9-.4l1.4-7.9c0-.2.5-.3 1-.3h21.1c.5 0 .9.2.9.3l-1 7.9c-.1.2-.5.4-1.1.4"/><linearGradient id="at" gradientUnits="userSpaceOnUse" x1="382.416" y1="667.007" x2="382.416" y2="533.398"><stop offset="0" stop-color="#121212"/><stop offset="1" stop-color="#444446"/></linearGradient><path fill-rule="evenodd" clip-rule="evenodd" fill="url(#at)" d="M392.8 556.2h-21.5c-.5 0-.9-.2-.9-.4l.9-7.9c0-.2.5-.3 1-.3h21.1c.5 0 .9.2.9.3l-.6 7.9c.1.2-.3.4-.9.4"/><linearGradient id="au" gradientUnits="userSpaceOnUse" x1="409.471" y1="667.007" x2="409.471" y2="533.398"><stop offset="0" stop-color="#121212"/><stop offset="1" stop-color="#444446"/></linearGradient><path fill-rule="evenodd" clip-rule="evenodd" fill="url(#au)" d="M420.1 556.2h-21.5c-.5 0-1-.2-.9-.4l.5-7.9c0-.2.4-.3 1-.3h21.1c.5 0 1 .2.9.3l-.1 7.9c0 .2-.4.4-1 .4"/><linearGradient id="av" gradientUnits="userSpaceOnUse" x1="437.737" y1="667.007" x2="437.737" y2="533.398"><stop offset="0" stop-color="#121212"/><stop offset="1" stop-color="#444446"/></linearGradient><path fill-rule="evenodd" clip-rule="evenodd" fill="url(#av)" d="M448.5 556.2H427c-.5 0-1-.2-1-.4l.1-7.9c0-.2.4-.3 1-.3h21.1c.5 0 1 .2 1 .3l.3 7.9c-.1.2-.5.4-1 .4"/><linearGradient id="aw" gradientUnits="userSpaceOnUse" x1="465.076" y1="667.007" x2="465.076" y2="533.398"><stop offset="0" stop-color="#121212"/><stop offset="1" stop-color="#444446"/></linearGradient><path fill-rule="evenodd" clip-rule="evenodd" fill="url(#aw)" d="M476 556.2h-21.5c-.5 0-1-.2-1-.4l-.4-7.9c0-.2.4-.3.9-.3h21.1c.5 0 1 .2 1 .3l.8 7.9c.1.2-.3.4-.9.4"/><linearGradient id="ax" gradientUnits="userSpaceOnUse" x1="493.127" y1="667.007" x2="493.127" y2="533.398"><stop offset="0" stop-color="#121212"/><stop offset="1" stop-color="#444446"/></linearGradient><path fill-rule="evenodd" clip-rule="evenodd" fill="url(#ax)" d="M504.3 556.2h-21.5c-.5 0-1-.2-1-.4l-.8-7.8c0-.2.4-.3.9-.3H503c.5 0 1 .2 1 .3l1.2 7.9c.1.1-.3.3-.9.3"/><linearGradient id="ay" gradientUnits="userSpaceOnUse" x1="521.12" y1="667.007" x2="521.12" y2="533.398"><stop offset="0" stop-color="#121212"/><stop offset="1" stop-color="#444446"/></linearGradient><path fill-rule="evenodd" clip-rule="evenodd" fill="url(#ay)" d="M532.6 556.2h-21.5c-.5 0-1-.2-1-.4l-1.3-7.9c0-.2.4-.3.9-.3h21.1c.5 0 1 .2 1 .3l1.7 7.9c0 .2-.4.4-.9.4"/><linearGradient id="az" gradientUnits="userSpaceOnUse" x1="548.829" y1="667.007" x2="548.829" y2="533.398"><stop offset="0" stop-color="#121212"/><stop offset="1" stop-color="#444446"/></linearGradient><path fill-rule="evenodd" clip-rule="evenodd" fill="url(#az)" d="M560.5 556.2H539c-.5 0-1-.2-1-.4l-1.7-7.9c0-.2.4-.3.9-.3h21.1c.5 0 1 .2 1 .3l2.1 7.9c0 .2-.3.4-.9.4"/><linearGradient id="aA" gradientUnits="userSpaceOnUse" x1="575.458" y1="667.007" x2="575.458" y2="533.398"><stop offset="0" stop-color="#121212"/><stop offset="1" stop-color="#444446"/></linearGradient><path fill-rule="evenodd" clip-rule="evenodd" fill="url(#aA)" d="M587.4 556.2h-21.5c-.5 0-1-.2-1.1-.4l-2.2-7.9c-.1-.2.3-.3.9-.3h21.1c.5 0 1 .2 1.1.3l2.5 7.9c.1.2-.3.4-.8.4"/><linearGradient id="aB" gradientUnits="userSpaceOnUse" x1="610.127" y1="667.007" x2="610.127" y2="533.398"><stop offset="0" stop-color="#121212"/><stop offset="1" stop-color="#444446"/></linearGradient><path fill-rule="evenodd" clip-rule="evenodd" fill="url(#aB)" d="M627.6 556.2h-32.1c-1.5 0-2.8-.4-3-1l-2.2-6.6c-.2-.5.9-1 2.3-1h31.6c1.5 0 2.8.4 3 1l2.7 6.6c.3.5-.8 1-2.3 1"/><linearGradient id="aC" gradientUnits="userSpaceOnUse" x1="246.727" y1="666.998" x2="246.727" y2="533.402"><stop offset="0" stop-color="#121212"/><stop offset="1" stop-color="#444446"/></linearGradient><path fill-rule="evenodd" clip-rule="evenodd" fill="url(#aC)" d="M261.6 566.5h-32.8c-1.5 0-2.6-.5-2.3-1l2.8-6.9c.2-.6 1.6-1 3.1-1h32.2c1.5 0 2.5.5 2.4 1l-2.3 6.9c-.2.5-1.6 1-3.1 1"/><path fill-rule="evenodd" clip-rule="evenodd" fill="#FFF" d="M233.8 265.9h397.9v48.8H233.8z"/><path fill="#FFF" d="M432.6 741.1h-3.8l.1-5.1h10l.1 5.1h-6.4zm-19.1-.6c-3.4-.2-6.8-.4-10.2-.7l.4-5c3.3.3 6.7.5 10 .7l-.2 5zm40.7-.1l-.3-5c3.3-.2 6.7-.5 10-.8l.5 5c-3.4.3-6.8.6-10.2.8zm-66-2.3c-3.4-.5-6.7-1-10.1-1.5l.8-5c3.3.6 6.6 1.1 9.9 1.5l-.6 5zm91.3-.4l-.7-5c3.3-.5 6.6-1 9.9-1.6l.9 5c-3.3.6-6.7 1.2-10.1 1.6zm-116.4-4c-3.3-.7-6.6-1.5-9.9-2.3l1.2-4.9c3.2.8 6.5 1.6 9.8 2.3l-1.1 4.9zm141.5-.6l-1.1-4.9c3.2-.7 6.5-1.5 9.7-2.4l1.3 4.9c-3.3.9-6.6 1.7-9.9 2.4zm-166.1-5.8c-3.2-1-6.5-2-9.7-3.1l1.6-4.8c3.2 1.1 6.4 2.1 9.6 3.1l-1.5 4.8zm190.7-.7l-1.5-4.8c3.2-1 6.4-2 9.5-3.1l1.6 4.8c-3.1 1-6.4 2.1-9.6 3.1zM314.3 719c-3.2-1.2-6.3-2.5-9.5-3.9l2-4.7c3.1 1.3 6.2 2.6 9.3 3.8l-1.8 4.8zm238.9-.9l-1.9-4.7c3.1-1.2 6.2-2.5 9.2-3.8l2 4.6c-3 1.3-6.2 2.6-9.3 3.9zm-262.3-9.3c-3.1-1.5-6.1-3-9.1-4.6l2.3-4.5c3 1.5 6 3.1 9 4.5l-2.2 4.6zm285.5-1l-2.2-4.5c3-1.5 6-3 8.9-4.6l2.4 4.5c-3 1.5-6.1 3.1-9.1 4.6zm-308-11c-2.9-1.7-5.9-3.5-8.7-5.3l2.7-4.3c2.8 1.8 5.7 3.5 8.6 5.2l-2.6 4.4zm330.3-1.1l-2.6-4.3c2.9-1.7 5.7-3.5 8.5-5.2l2.7 4.3c-2.7 1.7-5.6 3.5-8.6 5.2zm-351.8-12.6c-2.8-1.9-5.6-3.9-8.3-5.9l3-4.1c2.7 2 5.4 4 8.2 5.8l-2.9 4.2zm373.2-1.2l-2.9-4.1c2.7-1.9 5.4-3.9 8.1-5.9l3 4c-2.7 2-5.4 4-8.2 6zm-393.5-14.1c-2.6-2.1-5.2-4.3-7.8-6.6l3.3-3.8c2.5 2.2 5.1 4.4 7.7 6.5l-3.2 3.9zm413.7-1.4l-3.2-3.9c2.6-2.1 5.1-4.3 7.6-6.5l3.3 3.8c-2.5 2.3-5.1 4.5-7.7 6.6zM207.5 651c-2.4-2.3-4.9-4.7-7.3-7.1l3.6-3.5c2.3 2.4 4.7 4.7 7.1 7l-3.4 3.6zm451.8-1.5l-3.5-3.6c2.4-2.3 4.8-4.7 7.1-7.1l3.6 3.5-7.2 7.2zm-469.5-16.8c-2.3-2.5-4.5-5.1-6.7-7.7l3.9-3.3c2.1 2.5 4.4 5.1 6.6 7.6l-3.8 3.4zm487.1-1.6l-3.8-3.4c2.2-2.5 4.4-5.1 6.5-7.6l3.9 3.2c-2.1 2.7-4.4 5.3-6.6 7.8zm-503.4-18c-2.1-2.7-4.1-5.4-6.1-8.2l4.1-2.9c1.9 2.7 3.9 5.4 6 8l-4 3.1zm519.5-1.7l-4-3c2-2.7 4-5.4 5.9-8.1l4.1 2.9c-1.9 2.7-3.9 5.5-6 8.2zm-534.2-19.1c-1.8-2.8-3.7-5.7-5.4-8.6l4.3-2.6c1.7 2.8 3.5 5.7 5.3 8.5l-4.2 2.7zm548.8-1.8l-4.3-2.7c1.8-2.8 3.6-5.7 5.3-8.5l4.3 2.6c-1.7 2.8-3.5 5.7-5.3 8.6zm-561.8-20c-1.6-3-3.2-6-4.7-9l4.5-2.3c1.5 3 3.1 5.9 4.6 8.9l-4.4 2.4zm574.7-2l-4.5-2.4c1.6-2.9 3.1-5.9 4.6-8.9l4.5 2.2c-1.5 3-3 6.1-4.6 9.1zm-585.9-20.8c-1.4-3.1-2.7-6.2-4-9.3l4.7-1.9c1.3 3.1 2.6 6.2 3.9 9.2l-4.6 2zm597-2.2l-4.6-2 3.9-9.3 4.7 1.9c-1.3 3.2-2.6 6.3-4 9.4zm-606.5-21.4c-1.1-3.2-2.2-6.4-3.3-9.7l4.8-1.5c1 3.2 2.1 6.4 3.2 9.5l-4.7 1.7zm615.8-2.3l-4.8-1.7c1.1-3.1 2.1-6.4 3.1-9.6l4.8 1.5c-.9 3.3-2 6.6-3.1 9.8zm-623.3-22c-.9-3.3-1.7-6.6-2.5-9.9l4.9-1.2c.8 3.2 1.6 6.5 2.5 9.7l-4.9 1.4zm630.7-2.4l-4.9-1.3c.8-3.2 1.6-6.5 2.4-9.7l4.9 1.1c-.7 3.3-1.5 6.6-2.4 9.9zM111.9 475c-.6-3.3-1.2-6.7-1.7-10l5-.8c.5 3.3 1.1 6.6 1.7 9.9l-5 .9zm641.9-2.5l-5-.9c.6-3.3 1.1-6.6 1.6-9.9l5 .7c-.5 3.4-1 6.8-1.6 10.1zm-645.6-22.7c-.4-3.4-.7-6.8-.9-10.1l5-.4c.2 3.3.6 6.7.9 10l-5 .5zm649-2.5l-5-.5c.3-3.3.6-6.7.8-10l5 .3c-.1 3.4-.4 6.8-.8 10.2zm-650.7-22.9c-.1-3.1-.1-6.3-.1-9.5v-.7h5.1v.7c0 3.1 0 6.3.1 9.4l-5.1.1zm652.3-2.5l-5.1-.1c0-2.3.1-4.6.1-6.9v-3.1h5.1v3.2c-.1 2.2-.1 4.6-.1 6.9zm-647-22.7l-5-.2.6-10.2 5 .4c-.2 3.3-.4 6.6-.6 10zm641.5-2.5c-.2-3.3-.4-6.7-.7-10l5-.4c.3 3.4.5 6.8.7 10.2l-5 .2zM114 374.2l-5-.6c.4-3.4.9-6.7 1.4-10.1l5 .8c-.5 3.3-1 6.6-1.4 9.9zm636.9-2.5c-.4-3.3-.9-6.6-1.5-9.9l5-.8c.6 3.3 1.1 6.7 1.5 10.1l-5 .6zm-632.8-22.2l-5-1c.7-3.3 1.4-6.7 2.2-9.9l4.9 1.2c-.7 3.1-1.4 6.4-2.1 9.7zm628.5-2.4c-.7-3.3-1.5-6.5-2.3-9.8l4.9-1.2c.8 3.3 1.6 6.6 2.3 9.9l-4.9 1.1zm-622.5-21.9l-4.9-1.4c.9-3.2 1.9-6.5 3-9.7l4.8 1.6c-.9 3-1.9 6.3-2.9 9.5zm616.3-2.4l-3-9.6 4.8-1.6c1.1 3.2 2.1 6.5 3.1 9.7l-4.9 1.5zm-608.3-21.5l-4.7-1.8c1.2-3.2 2.5-6.4 3.8-9.5l4.7 1.9c-1.4 3.2-2.6 6.3-3.8 9.4zm600.2-2.2c-1.2-3.1-2.5-6.2-3.8-9.3l4.7-2c1.3 3.1 2.6 6.3 3.8 9.4l-4.7 1.9zm-590.4-20.9l-4.6-2.2c1.4-3.1 3-6.1 4.5-9.2l4.5 2.3c-1.5 3.1-3 6.1-4.4 9.1zm580.4-2.1c-1.4-3-2.9-6-4.5-9l4.5-2.3c1.6 3 3.1 6.1 4.5 9.1l-4.5 2.2zm-568.8-20.2l-4.4-2.5c1.7-2.9 3.4-5.9 5.2-8.8l4.3 2.6c-1.8 2.9-3.5 5.9-5.1 8.7zm557.1-1.9c-1.7-2.9-3.4-5.8-5.2-8.6l4.3-2.7c1.8 2.9 3.5 5.8 5.2 8.7l-4.3 2.6zm-543.9-19.3l-4.2-2.8c1.9-2.8 3.9-5.6 5.9-8.3l4.1 3c-1.9 2.5-3.9 5.3-5.8 8.1zm530.6-1.8c-1.9-2.7-3.8-5.5-5.8-8.2l4.1-3c2 2.7 4 5.5 5.9 8.3l-4.2 2.9zm-515.7-18.4l-3.9-3.2c2.1-2.6 4.3-5.3 6.5-7.9l3.8 3.3c-2.1 2.6-4.3 5.2-6.4 7.8zm500.7-1.7c-2.1-2.6-4.3-5.2-6.4-7.7l3.8-3.3c2.2 2.6 4.4 5.2 6.5 7.8l-3.9 3.2zM198 195.5l-3.7-3.5c2.3-2.5 4.7-4.9 7.1-7.3l3.6 3.6c-2.3 2.3-4.7 4.8-7 7.2zm467.7-1.5c-2.3-2.4-4.6-4.8-7-7.2l3.6-3.6c2.4 2.4 4.8 4.8 7.1 7.3l-3.7 3.5zm-449.8-16.1l-3.4-3.7c2.5-2.3 5.1-4.6 7.6-6.8l3.3 3.8c-2.6 2.2-5.1 4.4-7.5 6.7zm431.9-1.4c-2.5-2.2-5-4.5-7.5-6.6l3.3-3.9c2.6 2.2 5.2 4.4 7.7 6.7l-3.5 3.8zM235 161.7l-3.1-4c2.7-2.1 5.4-4.1 8.1-6.1l3 4.1c-2.7 1.9-5.4 3.9-8 6zm393.6-1.3c-2.6-2-5.3-4.1-8-6l3-4.1c2.7 2 5.5 4 8.2 6.1l-3.2 4zm-373.3-13.3l-2.8-4.2c2.8-1.9 5.7-3.7 8.6-5.5l2.7 4.3c-2.9 1.7-5.7 3.5-8.5 5.4zm352.8-1.2c-2.8-1.8-5.6-3.6-8.5-5.4l2.6-4.3c2.9 1.8 5.8 3.6 8.6 5.4l-2.7 4.3zM276.7 134l-2.5-4.4c2.9-1.6 6-3.3 9-4.8l2.3 4.5c-3 1.5-5.9 3.1-8.8 4.7zm309.9-1c-2.9-1.6-5.9-3.2-8.9-4.7l2.3-4.5c3 1.5 6.1 3.1 9 4.8l-2.4 4.4zM299 122.7l-2.1-4.6c3.1-1.4 6.2-2.8 9.3-4.1l2 4.7c-3.1 1.3-6.2 2.7-9.2 4zm265.1-.9c-3-1.4-6.1-2.7-9.2-4l1.9-4.7c3.1 1.3 6.3 2.6 9.4 4l-2.1 4.7zm-242-8.6l-1.7-4.7c3.2-1.2 6.4-2.3 9.6-3.4l1.6 4.8c-3.2 1.1-6.4 2.2-9.5 3.3zm218.7-.8c-3.1-1.1-6.3-2.2-9.5-3.2l1.6-4.8c3.2 1 6.5 2.1 9.7 3.3l-1.8 4.7zM346 105.5l-1.4-4.9c3.3-.9 6.6-1.8 9.9-2.6l1.2 4.9c-3.3.9-6.5 1.7-9.7 2.6zm170.9-.6c-3.2-.9-6.5-1.7-9.7-2.5l1.2-4.9c3.3.8 6.6 1.6 9.9 2.5l-1.4 4.9zm-146.6-5.2l-1-5c3.3-.7 6.7-1.3 10-1.8l.8 5c-3.2.6-6.5 1.2-9.8 1.8zm122.1-.4c-3.3-.6-6.6-1.2-9.9-1.7l.8-5c3.3.5 6.7 1.1 10 1.7l-.9 5zm-97.3-3.4l-.6-5c3.4-.4 6.8-.7 10.1-1l.4 5c-3.2.3-6.6.6-9.9 1zm72.5-.3c-3.3-.4-6.7-.7-10-.9l.4-5c3.4.3 6.8.6 10.1.9l-.5 5zm-47.5-1.7l-.2-5.1c3.4-.1 6.8-.2 10.2-.2v5.1c-3.3 0-6.7.1-10 .2zm22.5 0c-3.3-.1-6.7-.2-10-.2v-5.1c3.4 0 6.8.1 10.2.2l-.2 5.1z"/><path fill-rule="evenodd" clip-rule="evenodd" fill="#89BA44" d="M700.7 563.1c31.9 0 57.7 25.9 57.7 57.7s-25.9 57.7-57.7 57.7-57.7-25.8-57.7-57.7 25.8-57.7 57.7-57.7"/><path fill-rule="evenodd" clip-rule="evenodd" fill="#FFF" d="M432.6 28.3c31.9 0 57.7 25.9 57.7 57.7 0 31.9-25.9 57.7-57.7 57.7-31.9 0-57.7-25.9-57.7-57.7 0-31.9 25.8-57.7 57.7-57.7"/><path fill-rule="evenodd" clip-rule="evenodd" fill="#679E34" d="M182.9 563.1c31.9 0 57.7 25.9 57.7 57.7s-25.9 57.7-57.7 57.7-57.7-25.9-57.7-57.7 25.8-57.7 57.7-57.7"/><path fill-rule="evenodd" clip-rule="evenodd" fill="#FFF" d="M109.1 350.3c31.9 0 57.7 25.9 57.7 57.7s-25.9 57.7-57.7 57.7c-31.9 0-57.7-25.9-57.7-57.7s25.8-57.7 57.7-57.7M751.2 350.6c31.9 0 57.7 25.9 57.7 57.7 0 31.9-25.9 57.7-57.7 57.7s-57.7-25.9-57.7-57.7c-.1-31.9 25.8-57.7 57.7-57.7"/><path fill-rule="evenodd" clip-rule="evenodd" fill="#679E34" d="M661.5 120.7c31.9 0 57.7 25.9 57.7 57.7s-25.9 57.7-57.7 57.7c-31.9 0-57.7-25.9-57.7-57.7s25.8-57.7 57.7-57.7"/><path fill-rule="evenodd" clip-rule="evenodd" fill="#FFF" d="M677.2 166.5h.1l-.1-.1z"/><path fill-rule="evenodd" clip-rule="evenodd" fill="#89BA44" d="M212.7 120.7c31.9 0 57.7 25.9 57.7 57.7s-25.9 57.7-57.7 57.7c-31.9 0-57.7-25.9-57.7-57.7s25.8-57.7 57.7-57.7"/><path fill-rule="evenodd" clip-rule="evenodd" fill="#A1CE5F" d="M263.7 330.6h326.6v71.5H263.7z"/><path fill-rule="evenodd" clip-rule="evenodd" fill="#FFF" d="M263.7 402.1h327.4v101.8H263.7z"/><circle fill-rule="evenodd" clip-rule="evenodd" fill="#679E34" cx="332.6" cy="453" r="25.4"/><circle fill-rule="evenodd" clip-rule="evenodd" fill="#A1CE5F" cx="430.1" cy="453" r="25.4"/><circle fill-rule="evenodd" clip-rule="evenodd" fill="#679E34" cx="527.6" cy="453" r="25.4"/><path fill-rule="evenodd" clip-rule="evenodd" fill="#FFF" d="M280.8 355.2h159.8v22.3H280.8z"/><circle fill-rule="evenodd" clip-rule="evenodd" fill="#CDCFD0" cx="618.6" cy="277.6" r="4.3"/><circle fill-rule="evenodd" clip-rule="evenodd" fill="#A1CE5F" cx="603.8" cy="277.6" r="4.3"/><circle fill-rule="evenodd" clip-rule="evenodd" fill="#CDCFD0" cx="588.9" cy="277.6" r="4.3"/><path fill-rule="evenodd" clip-rule="evenodd" fill="#CDCFD0" d="M313.6 283.1h233v14.4h-233z"/><path fill-rule="evenodd" clip-rule="evenodd" fill="#A1CE5F" d="M534.1 283.1h12.6v14.4h-12.6z"/><path clip-rule="evenodd" fill="none" stroke="#A1CE5F" stroke-width="3" stroke-miterlimit="10" d="M265.6 285.5l4.9 4.8-4.9 4.9M253 285.5l-4.9 4.8 4.9 4.9"/><circle clip-rule="evenodd" fill="none" stroke="#A1CE5F" stroke-width="3" stroke-miterlimit="10" cx="288.1" cy="290.3" r="4.8"/><g fill="#FFF"><path d="M155.8 630.8c0-1.3.9-2.2 2.1-2.2 1.2 0 2.1.9 2.1 2.2 0 1.3-.8 2.2-2.1 2.2-1.3.1-2.1-.9-2.1-2.2zM163.9 620.1c0-1.8 0-3.3-.1-4.7h2.8l.2 2.9h.1c.9-1.6 2.9-3.2 5.7-3.2 2.4 0 6.1 1.4 6.1 7.4v10.3h-3.1v-10c0-2.8-1-5.1-4-5.1-2.1 0-3.7 1.5-4.2 3.2-.1.4-.2.9-.2 1.5v10.4h-3.1v-12.7zM198.6 615.4c-.1 1.2-.1 2.6-.1 4.8v10c0 4-.8 6.4-2.5 7.9-1.7 1.6-4.1 2.1-6.3 2.1-2.1 0-4.4-.5-5.8-1.4l.8-2.4c1.1.7 2.9 1.4 5.1 1.4 3.2 0 5.6-1.7 5.6-6v-1.9h-.1c-1 1.6-2.8 2.9-5.5 2.9-4.3 0-7.4-3.6-7.4-8.4 0-5.9 3.8-9.2 7.8-9.2 3 0 4.6 1.6 5.4 3h.1l.1-2.6h2.8zm-3.2 6.8c0-.5 0-1-.2-1.4-.6-1.8-2.1-3.3-4.4-3.3-3 0-5.1 2.5-5.1 6.5 0 3.4 1.7 6.2 5.1 6.2 1.9 0 3.7-1.2 4.4-3.2.2-.5.2-1.1.2-1.7v-3.1z"/></g><g><path fill-rule="evenodd" clip-rule="evenodd" fill="#FFF" d="M212.4 320.5c-23.7 0-42.3 14.8-42.3 14.8s8.6 50.4 42.3 66.2c33.7-15.8 42.3-66.2 42.3-66.2s-18.6-14.8-42.3-14.8z"/><circle fill-rule="evenodd" clip-rule="evenodd" fill="#A1CE5F" cx="212.4" cy="356.2" r="20"/><path fill="#FFF" d="M209.3 366.4l-7.8-7.8 3.7-3.7 4.1 4.1 11.7-11.7 3.7 3.8z"/></g><path fill-rule="evenodd" clip-rule="evenodd" fill="#FFF" d="M484.5 725.4l-33-38.5.3 50.7 10.8-10.3 9.2 24.6 7-2.6-9.2-24.6z"/><g fill="#89BA44"><path d="M395.7 97.4c0-1.3.9-2.3 2.1-2.3 1.2 0 2.1.9 2.1 2.3 0 1.3-.8 2.3-2.1 2.3s-2.1-1-2.1-2.3zM416.1 98.6c-.8.4-2.6 1-5 1-5.2 0-8.6-3.5-8.6-8.8 0-5.3 3.6-9.2 9.3-9.2 1.9 0 3.5.5 4.4.9l-.7 2.4c-.8-.4-1.9-.8-3.6-.8-4 0-6.1 2.9-6.1 6.5 0 4 2.6 6.5 6 6.5 1.8 0 3-.5 3.9-.9l.4 2.4zM435.3 90.5c0 6.4-4.4 9.2-8.6 9.2-4.7 0-8.3-3.4-8.3-8.9 0-5.8 3.8-9.2 8.6-9.2 4.9 0 8.3 3.6 8.3 8.9zm-13.8.2c0 3.8 2.2 6.6 5.3 6.6 3 0 5.3-2.8 5.3-6.7 0-2.9-1.5-6.6-5.2-6.6s-5.4 3.4-5.4 6.7zM439.2 86.7c0-1.8 0-3.3-.1-4.7h2.8l.1 2.8h.1c1-1.6 2.6-3.2 5.4-3.2 2.4 0 4.1 1.4 4.9 3.5h.1c.5-1 1.2-1.7 1.9-2.3 1-.8 2.2-1.2 3.8-1.2 2.3 0 5.7 1.5 5.7 7.5v10.2h-3.1v-9.8c0-3.3-1.2-5.3-3.8-5.3-1.8 0-3.2 1.3-3.7 2.9-.1.4-.2 1-.2 1.6v10.7H450V88.9c0-2.8-1.2-4.8-3.6-4.8-2 0-3.4 1.6-3.9 3.1-.2.5-.2 1-.2 1.5v10.4h-3.1V86.7z"/></g><g fill="#89BA44"><path d="M710.6 417.4c0-1.3.9-2.2 2.1-2.2s2.1.9 2.1 2.2c0 1.3-.8 2.2-2.1 2.2-1.2.1-2.1-.9-2.1-2.2zM718.3 416.1c.9.6 2.6 1.2 4.1 1.2 2.3 0 3.4-1.1 3.4-2.6s-.9-2.3-3.2-3.2c-3.1-1.1-4.6-2.8-4.6-4.9 0-2.8 2.2-5.1 6-5.1 1.8 0 3.3.5 4.3 1.1l-.8 2.3c-.7-.4-1.9-1-3.5-1-1.9 0-2.9 1.1-2.9 2.4 0 1.4 1 2.1 3.3 2.9 3 1.1 4.5 2.6 4.5 5.2 0 3-2.4 5.2-6.5 5.2-1.9 0-3.6-.5-4.9-1.2l.8-2.3zM732.9 393.9h3.1v10.8h.1c.5-.9 1.3-1.7 2.3-2.2.9-.5 2-.9 3.2-.9 2.3 0 6 1.4 6 7.4v10.3h-3.1v-9.9c0-2.8-1-5.1-4-5.1-2 0-3.6 1.4-4.2 3.1-.2.4-.2.9-.2 1.5v10.4H733v-25.4zM768.4 410.5c0 6.4-4.4 9.2-8.6 9.2-4.7 0-8.3-3.4-8.3-8.9 0-5.8 3.8-9.2 8.6-9.2 4.9 0 8.3 3.6 8.3 8.9zm-13.7.2c0 3.8 2.2 6.6 5.3 6.6 3 0 5.3-2.8 5.3-6.7 0-2.9-1.5-6.6-5.2-6.6-3.8 0-5.4 3.4-5.4 6.7zM772.3 407.6c0-2.2-.1-4-.1-5.6h2.8l.1 3h.1c1.3-2.1 3.3-3.4 6.1-3.4 4.2 0 7.3 3.5 7.3 8.8 0 6.2-3.8 9.3-7.9 9.3-2.3 0-4.3-1-5.3-2.7h-.1v9.4h-3.1v-18.8zm3.2 4.7c0 .5.1.9.1 1.3.6 2.2 2.5 3.7 4.7 3.7 3.3 0 5.3-2.7 5.3-6.7 0-3.5-1.8-6.4-5.1-6.4-2.1 0-4.1 1.5-4.8 3.9-.1.4-.2.9-.2 1.3v2.9z"/></g><g fill="#FFF"><path d="M683 630.8c0-1.3.9-2.2 2.1-2.2s2.1.9 2.1 2.2c0 1.3-.8 2.2-2.1 2.2-1.3.1-2.1-.9-2.1-2.2zM694.6 610.5c0 1.1-.8 1.9-2 1.9-1.1 0-1.9-.9-1.9-1.9 0-1.1.8-2 2-2 1.2.1 1.9.9 1.9 2zm-3.5 22.2v-17.3h3.1v17.3h-3.1zM714.4 607.3v20.9c0 1.5 0 3.3.1 4.5h-2.8l-.1-3h-.1c-1 1.9-3.1 3.4-5.9 3.4-4.2 0-7.4-3.5-7.4-8.8 0-5.8 3.5-9.3 7.8-9.3 2.6 0 4.4 1.2 5.2 2.6h.1v-10.3h3.1zm-3.2 15.1c0-.4 0-.9-.1-1.3-.5-2-2.2-3.6-4.5-3.6-3.2 0-5.2 2.9-5.2 6.7 0 3.5 1.7 6.4 5.1 6.4 2.1 0 4-1.4 4.6-3.8.1-.4.1-.9.1-1.4v-3z"/></g><g fill="#FFF"><path d="M185.8 188.3c0-1.3.9-2.3 2.1-2.3 1.3 0 2.1.9 2.1 2.3 0 1.3-.8 2.3-2.1 2.3-1.2-.1-2.1-1.1-2.1-2.3zM194 177.5c0-1.8 0-3.3-.1-4.7h2.8l.2 2.9h.1c.9-1.6 2.9-3.3 5.7-3.3 2.4 0 6.1 1.4 6.1 7.4v10.3h-3.1v-10c0-2.8-1-5.1-4-5.1-2.1 0-3.7 1.5-4.2 3.2-.1.4-.2.9-.2 1.5v10.4H194v-12.6zM215.6 182c.1 4.3 2.8 6 5.9 6 2.3 0 3.6-.4 4.8-.9l.5 2.3c-1.1.5-3 1.1-5.8 1.1-5.3 0-8.5-3.5-8.5-8.7 0-5.2 3.1-9.3 8.1-9.3 5.6 0 7.1 5 7.1 8.1 0 .6-.1 1.1-.1 1.5h-12zm9.2-2.2c0-2-.8-5.1-4.4-5.1-3.2 0-4.6 2.9-4.8 5.1h9.2zM235.5 167.9v5h4.5v2.4h-4.5v9.3c0 2.1.6 3.4 2.4 3.4.8 0 1.4-.1 1.8-.2l.1 2.4c-.6.2-1.6.4-2.8.4-1.5 0-2.6-.5-3.4-1.3-.9-.9-1.2-2.5-1.2-4.5v-9.4h-2.7V173h2.7v-4.1l3.1-1z"/></g><g fill="#FFF"><path d="M628.4 186.7c0-1.3.9-2.3 2.1-2.3 1.3 0 2.1.9 2.1 2.3 0 1.3-.8 2.3-2.1 2.3-1.2 0-2.1-1-2.1-2.3zM652.2 179.8c0 6.4-4.4 9.2-8.6 9.2-4.7 0-8.3-3.4-8.3-8.9 0-5.8 3.8-9.2 8.6-9.2 4.9 0 8.3 3.6 8.3 8.9zm-13.7.2c0 3.8 2.2 6.6 5.3 6.6 3 0 5.3-2.8 5.3-6.7 0-2.9-1.5-6.6-5.2-6.6s-5.4 3.4-5.4 6.7zM656.2 176.7c0-2 0-3.8-.1-5.4h2.8l.1 3.4h.1c.8-2.3 2.7-3.8 4.8-3.8.4 0 .6 0 .9.1v3c-.3-.1-.6-.1-1.1-.1-2.2 0-3.8 1.7-4.2 4-.1.4-.1.9-.1 1.5v9.2h-3.1v-11.9zM682.5 171.3c-.1 1.3-.1 2.6-.1 4.8v10c0 4-.8 6.4-2.5 7.9-1.7 1.6-4.1 2.1-6.3 2.1-2.1 0-4.4-.5-5.8-1.4l.8-2.4c1.1.7 2.9 1.4 5.1 1.4 3.2 0 5.6-1.7 5.6-6v-1.9h-.1c-1 1.6-2.8 2.9-5.5 2.9-4.3 0-7.4-3.6-7.4-8.4 0-5.9 3.8-9.2 7.8-9.2 3 0 4.6 1.6 5.4 3h.1l.1-2.6h2.8zm-3.3 6.8c0-.5 0-1-.2-1.4-.6-1.8-2.1-3.3-4.4-3.3-3 0-5.1 2.5-5.1 6.5 0 3.4 1.7 6.2 5.1 6.2 1.9 0 3.7-1.2 4.4-3.2.2-.5.2-1.1.2-1.7v-3.1z"/></g><g fill="#89BA44"><path d="M81.1 417.4c0-1.3.9-2.2 2.1-2.2 1.3 0 2.1.9 2.1 2.2 0 1.3-.8 2.2-2.1 2.2-1.3.1-2.1-.9-2.1-2.2zM89.2 406.7c0-1.8 0-3.3-.1-4.7h2.8l.1 2.8h.1c1-1.6 2.6-3.2 5.4-3.2 2.4 0 4.1 1.4 4.9 3.5h.1c.5-1 1.2-1.7 1.9-2.3 1-.8 2.2-1.2 3.8-1.2 2.3 0 5.7 1.5 5.7 7.5v10.2h-3.1v-9.8c0-3.3-1.2-5.3-3.8-5.3-1.8 0-3.2 1.3-3.7 2.9-.1.4-.2 1-.2 1.6v10.7H100V409c0-2.8-1.2-4.8-3.6-4.8-2 0-3.4 1.6-3.9 3.1-.2.5-.2 1-.2 1.5v10.4h-3.1v-12.5zM120.8 411.2c.1 4.3 2.8 6 5.9 6 2.3 0 3.6-.4 4.8-.9l.5 2.2c-1.1.5-3 1.1-5.8 1.1-5.3 0-8.5-3.5-8.5-8.7 0-5.2 3.1-9.3 8.1-9.3 5.6 0 7.1 5 7.1 8.1 0 .6-.1 1.1-.1 1.5h-12zm9.2-2.2c0-2-.8-5.1-4.4-5.1-3.2 0-4.6 2.9-4.8 5.1h9.2z"/></g></svg>