<?xml version="1.0" encoding="utf-8"?>
<!-- Generator: Adobe Illustrator 16.0.0, SVG Export Plug-In . SVG Version: 6.00 Build 0)  -->
<!DOCTYPE svg PUBLIC "-//W3C//DTD SVG 1.1//EN" "http://www.w3.org/Graphics/SVG/1.1/DTD/svg11.dtd">
<svg version="1.1" id="Layer_1" xmlns="http://www.w3.org/2000/svg" xmlns:xlink="http://www.w3.org/1999/xlink" x="0px" y="0px"
	 width="5000px" height="2500px" viewBox="0 0 5000 2500" enable-background="new 0 0 5000 2500" xml:space="preserve">
<rect x="-31.167" y="-31" fill="#47A0D9" width="5070.833" height="2566.667"/>
<path opacity="0.2" fill="#FFFFFF" d="M-93.667,1427.334c0,0,916.667,637.5,1812.5,220.833s990.69-712.475,1662.5-508.333
	C4135.5,1369,4627.48,1041.13,4950.992,1113.021C6075.992,1363.021,5123,2606.5,5123,2606.5H-93.667V1427.334z"/>
<path opacity="0.2" fill="#FFFFFF" d="M-93.667,714.833c0,0,1195.963,1437.62,1862.5,708.334
	C2500,623.167,3014.667,881.5,3252.167,931.5C4023.475,1093.881,5018.834,769,5373,594c1033.195-510.521-250,2012.5-250,2012.5
	H-93.667V714.833z"/>
<path fill="#FFFFFF" d="M-189.499,2448.167"/>
<path fill="#FFFFFF" d="M89.669,2302.332c463.125,6.812,1516.666,75.002,1954.166,45.835s666.667-112.501,912.501-112.501
	s724.999,179.166,1029.166,170.833s387.501-120.832,683.334-124.999s616.666,179.166,616.666,179.166L5302.169,2919l-5650.001-50
	C-347.832,2869-476.997,2293.998,89.669,2302.332z"/>
</svg>
